EpundaSlab.glyphspackage
{
glyphname = exclam;
kernLeft = KO_exclam;
layers = (
{
hints = (
{
horizontal = 1;
place = (-13,102);
type = Stem;
},
{
horizontal = 1;
place = (708,-20);
target = down;
type = TopGhost;
},
{
place = (69,102);
type = Stem;
},
{
place = (81,77);
type = Stem;
}
);
layerId = m01;
shapes = (
{
closed = 1;
nodes = (
(135,180,l),
(140,700,l),
(70,700,l),
(75,180,l)
);
},
{
closed = 1;
nodes = (
(130,-8,o),
(150,12,o),
(150,37,cs),
(150,62,o),
(130,82,o),
(105,82,cs),
(80,82,o),
(60,62,o),
(60,37,cs),
(60,12,o),
(80,-8,o),
(105,-8,cs)
);
}
);
width = 210;
},
{
layerId = m002;
shapes = (
{
closed = 1;
nodes = (
(195,250,l),
(215,700,l),
(35,700,l),
(55,250,l)
);
},
{
closed = 1;
nodes = (
(180,-8,o),
(225,36,o),
(225,92,cs),
(225,147,o),
(180,192,o),
(125,192,cs),
(69,192,o),
(25,147,o),
(25,92,cs),
(25,36,o),
(69,-8,o),
(125,-8,cs)
);
}
);
width = 250;
}
);
metricLeft = "=period";
metricRight = "=|";
note = exclam;
unicode = 33;
userData = {
KernOnSpecialSpacing = {
L = "spaced-off";
};
};
}
{
glyphname = quotedbl;
kernLeft = KO_quotedbl;
kernRight = KO_quotedbl;
layers = (
{
hints = (
{
horizontal = 1;
place = (504,204);
type = Stem;
},
{
place = (68,63);
type = Stem;
},
{
place = (196,63);
type = Stem;
}
);
layerId = m01;
shapes = (
{
closed = 1;
nodes = (
(55,500,l),
(95,500,l),
(105,700,l),
(45,700,l)
);
},
{
closed = 1;
nodes = (
(175,500,l),
(215,500,l),
(225,700,l),
(165,700,l)
);
}
);
width = 270;
},
{
layerId = m002;
shapes = (
{
closed = 1;
nodes = (
(45,440,l),
(145,440,l),
(165,700,l),
(25,700,l)
);
},
{
closed = 1;
nodes = (
(225,440,l),
(325,440,l),
(345,700,l),
(205,700,l)
);
}
);
width = 370;
}
);
metricRight = "=|";
note = quotedbl;
unicode = 34;
userData = {
KernOnSpecialSpacing = {
L = quotes;
R = quotes;
};
};
}
{
glyphname = numbersign;
kernLeft = KO_numbersign;
kernRight = KO_numbersign;
layers = (
{
hints = (
{
horizontal = 1;
place = (-8,21);
target = up;
type = BottomGhost;
},
{
horizontal = 1;
place = (133,67);
type = Stem;
},
{
horizontal = 1;
place = (297,66);
type = Stem;
},
{
horizontal = 1;
place = (483,21);
target = up;
type = BottomGhost;
}
);
layerId = m01;
shapes = (
{
closed = 1;
nodes = (
(119,0,l),
(174,0,l),
(280,500,l),
(225,500,l)
);
},
{
closed = 1;
nodes = (
(319,0,l),
(374,0,l),
(481,500,l),
(426,500,l)
);
},
{
closed = 1;
nodes = (
(83,378,l),
(71,323,l),
(571,323,l),
(583,378,l)
);
},
{
closed = 1;
nodes = (
(29,177,l),
(17,122,l),
(517,122,l),
(529,177,l)
);
}
);
width = 600;
},
{
layerId = m002;
shapes = (
{
closed = 1;
nodes = (
(157,0,l),
(273,0,l),
(392,560,l),
(276,560,l)
);
},
{
closed = 1;
nodes = (
(357,0,l),
(473,0,l),
(593,560,l),
(477,560,l)
);
},
{
closed = 1;
nodes = (
(134,438,l),
(109,323,l),
(670,323,l),
(695,438,l)
);
},
{
closed = 1;
nodes = (
(80,237,l),
(55,122,l),
(616,122,l),
(641,237,l)
);
}
);
width = 750;
}
);
note = numbersign;
unicode = 35;
}
{
glyphname = dollar;
kernRight = KO_dollar;
layers = (
{
layerId = m002;
name = Black;
shapes = (
{
ref = S;
},
{
closed = 1;
nodes = (
(295,604,l),
(295,742,l),
(175,742,l),
(175,604,l)
);
},
{
closed = 1;
nodes = (
(175,47,l),
(175,-75,l),
(295,-75,l),
(295,47,l)
);
}
);
width = 532;
},
{
layerId = m01;
name = Light;
shapes = (
{
ref = S;
},
{
closed = 1;
nodes = (
(243,636,l),
(243,742,l),
(183,742,l),
(183,636,l)
);
},
{
closed = 1;
nodes = (
(183,17,l),
(183,-75,l),
(243,-75,l),
(243,17,l)
);
}
);
width = 488;
}
);
unicode = 36;
userData = {
KernOnSpecialSpacing = {
L = symbols;
R = symbols;
};
};
}
{
glyphname = ampersand;
kernRight = KO_ampersand;
layers = (
{
layerId = m01;
shapes = (
{
closed = 1;
nodes = (
(300,52,l),
(178,52,o),
(117,99,o),
(117,187,cs),
(117,275,o),
(178,327,o),
(300,327,c),
(300,382,l),
(194,382,o),
(142,421,o),
(142,500,cs),
(142,579,o),
(194,618,o),
(300,618,c),
(300,678,l),
(156,678,o),
(75,614,o),
(75,500,cs),
(75,436,o),
(114,380,o),
(175,354,c),
(95,333,o),
(45,265,o),
(45,187,c),
(45,59,o),
(130,-8,o),
(300,-8,c)
);
},
{
closed = 1;
nodes = (
(430,-8,o),
(518,59,o),
(518,187,c),
(458,187,l),
(458,99,o),
(382,52,o),
(300,52,c),
(300,-8,l)
);
},
{
closed = 1;
nodes = (
(472,632,l),
(422,658,o),
(365,678,o),
(300,678,c),
(300,618,l),
(351,618,o),
(397,600,o),
(443,580,c)
);
},
{
closed = 1;
nodes = (
(518,187,l),
(518,505,l),
(458,495,l),
(458,187,l)
);
},
{
closed = 1;
nodes = (
(578,327,l),
(588,382,l),
(300,382,l),
(300,327,l)
);
}
);
width = 633;
},
{
layerId = m002;
shapes = (
{
closed = 1;
nodes = (
(310,112,l),
(268,112,o),
(207,134,o),
(207,207,cs),
(207,280,o),
(268,297,o),
(310,297,c),
(310,412,l),
(284,412,o),
(232,416,o),
(232,485,cs),
(232,554,o),
(284,559,o),
(310,559,c),
(310,679,l),
(126,679,o),
(45,614,o),
(45,500,cs),
(45,436,o),
(84,381,o),
(145,355,c),
(65,334,o),
(15,270,o),
(15,192,cs),
(15,64,o),
(100,-8,o),
(310,-8,c)
);
},
{
closed = 1;
nodes = (
(520,-8,o),
(568,64,o),
(568,192,c),
(388,207,l),
(388,134,o),
(352,112,o),
(310,112,c),
(310,-8,l)
);
},
{
closed = 1;
nodes = (
(522,633,l),
(472,654,o),
(402,679,o),
(310,679,c),
(310,559,l),
(379,559,o),
(430,548,o),
(493,521,c)
);
},
{
closed = 1;
nodes = (
(568,192,l),
(568,505,l),
(388,495,l),
(388,192,l)
);
},
{
closed = 1;
nodes = (
(628,297,l),
(638,412,l),
(310,412,l),
(310,297,l)
);
}
);
width = 653;
}
);
unicode = 38;
userData = {
KernOnSpecialSpacing = {
L = symbols;
R = symbols;
};
};
}
{
glyphname = quotesingle;
kernLeft = KO_quotesingle;
kernRight = KO_quotesingle;
layers = (
{
hints = (
{
horizontal = 1;
place = (504,21);
target = up;
type = BottomGhost;
},
{
horizontal = 1;
place = (708,-20);
target = down;
type = TopGhost;
},
{
place = (79,64);
type = Stem;
}
);
layerId = m01;
shapes = (
{
closed = 1;
nodes = (
(55,500,l),
(95,500,l),
(105,700,l),
(45,700,l)
);
}
);
width = 150;
},
{
layerId = m002;
shapes = (
{
closed = 1;
nodes = (
(45,440,l),
(145,440,l),
(165,700,l),
(25,700,l)
);
}
);
width = 190;
}
);
metricRight = "=|";
note = quotesingle;
unicode = 39;
userData = {
KernOnSpecialSpacing = {
L = quotes;
R = quotes;
};
};
}
{
glyphname = parenleft;
kernRight = KO_parenleft;
layers = (
{
hints = (
{
horizontal = 1;
place = (-85,22);
type = Stem;
},
{
horizontal = 1;
place = (751,-20);
target = down;
type = TopGhost;
},
{
place = (77,82);
type = Stem;
}
);
layerId = m01;
shapes = (
{
closed = 1;
nodes = (
(91,550,o),
(202,671,o),
(237,699,c),
(209,743,l),
(142,706,o),
(30,563,o),
(30,332,cs),
(30,99,o),
(142,-44,o),
(209,-82,c),
(237,-38,l),
(202,-10,o),
(91,111,o),
(91,332,cs)
);
}
);
width = 262;
},
{
layerId = m002;
shapes = (
{
closed = 1;
nodes = (
(186,550,o),
(297,671,o),
(332,699,c),
(214,783,l),
(147,746,o),
(15,603,o),
(15,332,cs),
(15,59,o),
(147,-84,o),
(214,-122,c),
(332,-38,l),
(297,-10,o),
(186,111,o),
(186,332,cs)
);
}
);
width = 332;
}
);
metricLeft = "=O";
note = parenleft;
unicode = 40;
userData = {
KernOnSpecialSpacing = {
R = parenthesis;
};
};
}
{
glyphname = parenright;
kernLeft = KO_parenright;
kernRight = KO_parenright;
layers = (
{
hints = (
{
horizontal = 1;
place = (-85,22);
type = Stem;
},
{
horizontal = 1;
place = (751,-20);
target = down;
type = TopGhost;
},
{
place = (206,82);
type = Stem;
}
);
layerId = m01;
shapes = (
{
closed = 1;
nodes = (
(191,111,o),
(80,-10,o),
(45,-38,c),
(73,-82,l),
(140,-44,o),
(252,99,o),
(252,332,cs),
(252,563,o),
(140,706,o),
(73,743,c),
(45,699,l),
(80,671,o),
(191,550,o),
(191,332,cs)
);
}
);
width = 282;
},
{
layerId = m002;
shapes = (
{
closed = 1;
nodes = (
(161,111,o),
(50,-10,o),
(15,-38,c),
(133,-122,l),
(200,-84,o),
(332,59,o),
(332,332,cs),
(332,603,o),
(200,746,o),
(133,783,c),
(15,699,l),
(50,671,o),
(161,550,o),
(161,332,cs)
);
}
);
width = 347;
}
);
metricRight = "=O";
note = parenright;
unicode = 41;
userData = {
KernOnSpecialSpacing = {
L = parenthesis;
};
};
}
{
glyphname = asterisk;
kernLeft = KO_asterisk;
kernRight = KO_asterisk;
layers = (
{
hints = (
{
horizontal = 1;
place = (350,21);
target = up;
type = BottomGhost;
},
{
horizontal = 1;
place = (759,-20);
target = down;
type = TopGhost;
},
{
place = (238,67);
type = Stem;
}
);
layerId = m01;
shapes = (
{
closed = 1;
nodes = (
(223,350,l),
(278,350,l),
(278,700,l),
(223,700,l)
);
},
{
closed = 1;
nodes = (
(85,461,l),
(113,414,l),
(416,589,l),
(388,636,l)
);
},
{
closed = 1;
nodes = (
(113,636,l),
(85,589,l),
(388,414,l),
(416,461,l)
);
}
);
width = 500;
},
{
layerId = m002;
shapes = (
{
closed = 1;
nodes = (
(203,330,l),
(298,330,l),
(298,720,l),
(203,720,l)
);
},
{
closed = 1;
nodes = (
(57,468,l),
(106,387,l),
(444,582,l),
(395,663,l)
);
},
{
closed = 1;
nodes = (
(106,663,l),
(57,582,l),
(395,387,l),
(444,468,l)
);
}
);
width = 500;
}
);
note = asterisk;
unicode = 42;
userData = {
KernOnSpecialSpacing = {
L = quotes;
R = quotes;
};
};
}
{
glyphname = plus;
kernLeft = KO_plus;
kernRight = KO_plus;
layers = (
{
layerId = m01;
shapes = (
{
closed = 1;
nodes = (
(90,320,l),
(510,320,l),
(510,380,l),
(90,380,l)
);
},
{
closed = 1;
nodes = (
(270,560,l),
(270,140,l),
(330,140,l),
(330,560,l)
);
}
);
width = 600;
},
{
layerId = m002;
shapes = (
{
closed = 1;
nodes = (
(50,290,l),
(550,290,l),
(550,410,l),
(50,410,l)
);
},
{
closed = 1;
nodes = (
(240,600,l),
(240,100,l),
(360,100,l),
(360,600,l)
);
}
);
width = 600;
}
);
unicode = 43;
userData = {
KernOnSpecialSpacing = {
L = math;
R = math;
};
};
}
{
glyphname = hyphen;
kernLeft = KO_hyphen;
kernRight = KO_hyphen;
layers = (
{
layerId = m01;
shapes = (
{
closed = 1;
nodes = (
(45,225,l),
(331,225,l),
(331,275,l),
(45,275,l)
);
}
);
width = 376;
},
{
layerId = m002;
shapes = (
{
closed = 1;
nodes = (
(15,180,l),
(381,180,l),
(381,320,l),
(15,320,l)
);
}
);
width = 396;
}
);
metricLeft = "=H";
metricRight = "=|";
unicode = 45;
userData = {
KernOnSpecialSpacing = {
L = hyphen;
R = hyphen;
};
};
}
{
glyphname = period;
kernLeft = KO_period;
kernRight = KO_period;
layers = (
{
layerId = m01;
shapes = (
{
closed = 1;
nodes = (
(85,-8,o),
(105,12,o),
(105,37,cs),
(105,62,o),
(85,82,o),
(60,82,cs),
(35,82,o),
(15,62,o),
(15,37,cs),
(15,12,o),
(35,-8,o),
(60,-8,cs)
);
}
);
width = 120;
},
{
layerId = m002;
shapes = (
{
closed = 1;
nodes = (
(170,-8,o),
(215,36,o),
(215,92,cs),
(215,147,o),
(170,192,o),
(115,192,cs),
(59,192,o),
(15,147,o),
(15,92,cs),
(15,36,o),
(59,-8,o),
(115,-8,cs)
);
}
);
width = 230;
}
);
metricLeft = "=i";
metricRight = "=|";
unicode = 46;
userData = {
KernOnSpecialSpacing = {
L = period;
R = period;
};
};
}
{
glyphname = slash;
kernLeft = KO_slash;
kernRight = KO_slash;
layers = (
{
hints = (
{
horizontal = 1;
place = (-37,22);
type = Stem;
},
{
horizontal = 1;
place = (716,21);
target = up;
type = BottomGhost;
}
);
layerId = m01;
shapes = (
{
closed = 1;
nodes = (
(45,-125,l),
(100,-125,l),
(276,700,l),
(221,700,l)
);
}
);
width = 321;
},
{
layerId = m002;
shapes = (
{
closed = 1;
nodes = (
(45,-125,l),
(180,-125,l),
(356,700,l),
(221,700,l)
);
}
);
width = 401;
}
);
note = slash;
unicode = 47;
userData = {
KernOnSpecialSpacing = {
L = slash;
R = slash;
};
};
}
{
glyphname = colon;
kernLeft = KO_colon;
kernRight = KO_colon;
layers = (
{
hints = (
{
horizontal = 1;
place = (-13,21);
target = up;
type = BottomGhost;
},
{
horizontal = 1;
place = (399,-20);
target = down;
type = TopGhost;
},
{
place = (59,97);
type = Stem;
}
);
layerId = m01;
shapes = (
{
closed = 1;
nodes = (
(85,358,o),
(105,378,o),
(105,403,cs),
(105,428,o),
(85,448,o),
(60,448,cs),
(35,448,o),
(15,428,o),
(15,403,cs),
(15,378,o),
(35,358,o),
(60,358,cs)
);
},
{
closed = 1;
nodes = (
(85,-8,o),
(105,12,o),
(105,37,cs),
(105,62,o),
(85,82,o),
(60,82,cs),
(35,82,o),
(15,62,o),
(15,37,cs),
(15,12,o),
(35,-8,o),
(60,-8,cs)
);
}
);
width = 120;
},
{
layerId = m002;
shapes = (
{
closed = 1;
nodes = (
(170,308,o),
(215,352,o),
(215,408,cs),
(215,463,o),
(170,508,o),
(115,508,cs),
(59,508,o),
(15,463,o),
(15,408,cs),
(15,352,o),
(59,308,o),
(115,308,cs)
);
},
{
closed = 1;
nodes = (
(170,-8,o),
(215,37,o),
(215,92,cs),
(215,147,o),
(170,192,o),
(115,192,cs),
(60,192,o),
(15,147,o),
(15,92,c),
(15,37,o),
(60,-8,o),
(115,-8,cs)
);
}
);
width = 230;
}
);
metricLeft = "=i";
metricRight = "=|";
note = colon;
unicode = 58;
userData = {
KernOnName = colon;
KernOnSpecialSpacing = {
L = "spaced-off";
R = "spaced-off";
};
};
}
{
glyphname = semicolon;
kernLeft = KO_colon;
layers = (
{
hints = (
{
horizontal = 1;
place = (-80,22);
type = Stem;
},
{
horizontal = 1;
place = (399,-20);
target = down;
type = TopGhost;
}
);
layerId = m01;
shapes = (
{
closed = 1;
nodes = (
(95,-8,o),
(115,12,o),
(115,37,cs),
(115,62,o),
(95,82,o),
(70,82,cs),
(45,82,o),
(25,62,o),
(25,37,cs),
(25,12,o),
(45,-8,o),
(70,-8,cs)
);
},
{
closed = 1;
nodes = (
(57,-133,l),
(87,-108,o),
(170,0,o),
(104,67,c),
(70,-8,l),
(70,-38,o),
(45,-81,o),
(15,-106,c)
);
},
{
closed = 1;
nodes = (
(85,358,o),
(105,378,o),
(105,403,cs),
(105,428,o),
(85,448,o),
(60,448,cs),
(35,448,o),
(15,428,o),
(15,403,cs),
(15,378,o),
(35,358,o),
(60,358,cs)
);
}
);
width = 202;
},
{
layerId = m002;
shapes = (
{
closed = 1;
nodes = (
(170,-8,o),
(215,37,o),
(215,92,cs),
(215,147,o),
(170,192,o),
(115,192,cs),
(60,192,o),
(15,147,o),
(15,92,c),
(15,37,o),
(60,-8,o),
(115,-8,cs)
);
},
{
closed = 1;
nodes = (
(125,-213,l),
(220,-131,o),
(299,72,o),
(181,167,c),
(115,-8,l),
(115,-63,o),
(78,-113,o),
(43,-146,c)
);
},
{
closed = 1;
nodes = (
(170,308,o),
(215,352,o),
(215,408,cs),
(215,463,o),
(170,508,o),
(115,508,cs),
(59,508,o),
(15,463,o),
(15,408,cs),
(15,352,o),
(59,308,o),
(115,308,cs)
);
}
);
width = 240;
}
);
metricLeft = "=i";
note = semicolon;
unicode = 59;
userData = {
KernOnSpecialSpacing = {
L = "spaced-off";
R = "spaced-off";
};
};
}
{
glyphname = less;
kernLeft = KO_less;
kernRight = KO_less;
layers = (
{
layerId = m01;
shapes = (
{
closed = 1;
nodes = (
(100,383,l),
(100,315,l),
(500,529,l),
(470,581,l)
);
},
{
closed = 1;
nodes = (
(100,383,l),
(100,315,l),
(470,119,l),
(500,169,l)
);
}
);
width = 600;
},
{
layerId = m002;
shapes = (
{
closed = 1;
nodes = (
(64,417,l),
(64,281,l),
(535,533,l),
(475,637,l)
);
},
{
closed = 1;
nodes = (
(64,417,l),
(64,281,l),
(475,63,l),
(536,165,l)
);
}
);
width = 600;
}
);
unicode = 60;
userData = {
KernOnSpecialSpacing = {
L = math;
R = math;
};
};
}
{
glyphname = equal;
kernLeft = KO_equal;
kernRight = KO_equal;
layers = (
{
layerId = m01;
shapes = (
{
closed = 1;
nodes = (
(90,410,l),
(510,410,l),
(510,470,l),
(90,470,l)
);
},
{
closed = 1;
nodes = (
(90,230,l),
(510,230,l),
(510,290,l),
(90,290,l)
);
}
);
width = 600;
},
{
layerId = m002;
shapes = (
{
closed = 1;
nodes = (
(50,390,l),
(550,390,l),
(550,510,l),
(50,510,l)
);
},
{
closed = 1;
nodes = (
(50,190,l),
(550,190,l),
(550,310,l),
(50,310,l)
);
}
);
width = 600;
}
);
metricRight = "=|";
unicode = 61;
userData = {
KernOnSpecialSpacing = {
L = math;
R = math;
};
};
}
{
glyphname = greater;
kernLeft = KO_greater;
kernRight = KO_greater;
layers = (
{
layerId = m01;
shapes = (
{
closed = 1;
nodes = (
(100,529,l),
(500,315,l),
(500,383,l),
(130,581,l)
);
},
{
closed = 1;
nodes = (
(130,119,l),
(500,315,l),
(500,383,l),
(100,169,l)
);
}
);
width = 600;
},
{
layerId = m002;
shapes = (
{
closed = 1;
nodes = (
(65,533,l),
(536,281,l),
(536,417,l),
(125,637,l)
);
},
{
closed = 1;
nodes = (
(125,63,l),
(536,281,l),
(536,417,l),
(64,165,l)
);
}
);
width = 600;
}
);
unicode = 62;
userData = {
KernOnSpecialSpacing = {
L = math;
R = math;
};
};
}
{
glyphname = question;
kernLeft = KO_question;
layers = (
{
layerId = m01;
shapes = (
{
closed = 1;
nodes = (
(196,-8,o),
(216,12,o),
(216,37,cs),
(216,62,o),
(196,82,o),
(171,82,cs),
(146,82,o),
(126,62,o),
(126,37,cs),
(126,12,o),
(146,-8,o),
(171,-8,cs)
);
},
{
closed = 1;
nodes = (
(86,621,o),
(128,653,o),
(191,653,c),
(191,708,l),
(117,708,o),
(57,668,o),
(25,645,c),
(60,601,l)
);
},
{
closed = 1;
nodes = (
(191,653,l),
(285,653,o),
(311,607,o),
(311,552,cs),
(311,443,o),
(141,458,o),
(141,310,c),
(201,310,l),
(201,425,o),
(373,410,o),
(373,552,c),
(373,634,o),
(317,708,o),
(191,708,c)
);
},
{
closed = 1;
nodes = (
(141,180,l),
(201,180,l),
(201,310,l),
(141,310,l)
);
}
);
width = 418;
},
{
layerId = m002;
shapes = (
{
closed = 1;
nodes = (
(247,-8,o),
(291,36,o),
(291,92,cs),
(291,148,o),
(247,192,o),
(191,192,cs),
(135,192,o),
(91,148,o),
(91,92,cs),
(91,36,o),
(135,-8,o),
(191,-8,cs)
);
},
{
closed = 1;
nodes = (
(122,572,o),
(151,588,o),
(211,588,c),
(211,708,l),
(97,708,o),
(37,653,o),
(5,625,c),
(80,536,l)
);
},
{
closed = 1;
nodes = (
(211,588,l),
(271,588,o),
(281,557,o),
(281,532,c),
(281,450,o),
(101,501,o),
(101,310,c),
(281,310,l),
(281,392,o),
(463,341,o),
(463,532,cs),
(463,614,o),
(397,708,o),
(211,708,c)
);
},
{
closed = 1;
nodes = (
(101,250,l),
(281,250,l),
(281,310,l),
(101,310,l)
);
}
);
width = 478;
}
);
unicode = 63;
userData = {
KernOnSpecialSpacing = {
L = "spaced-off";
};
};
}
{
glyphname = at;
layers = (
{
layerId = m01;
shapes = (
{
closed = 1;
nodes = (
(402,605,l),
(204,605,o),
(42,500,o),
(42,250,cs),
(42,0,o),
(204,-110,o),
(402,-110,cs),
(497,-110,o),
(595,-74,o),
(660,-21,c),
(630,19,l),
(565,-31,o),
(478,-54,o),
(402,-54,cs),
(254,-54,o),
(91,12,o),
(91,250,cs),
(91,488,o),
(254,550,o),
(402,550,c)
);
},
{
closed = 1;
nodes = (
(407,144,l),
(323,144,o),
(282,189,o),
(282,250,cs),
(282,320,o),
(353,347,o),
(537,347,c),
(537,402,l),
(512,402,l),
(310,402,o),
(222,356,o),
(222,250,cs),
(222,158,o),
(284,89,o),
(407,89,c)
);
},
{
closed = 1;
nodes = (
(597,399,ls),
(597,531,o),
(548,605,o),
(402,605,c),
(402,550,l),
(512,550,o),
(537,504,o),
(537,402,c),
(597,347,l)
);
},
{
closed = 1;
nodes = (
(565,257,o),
(499,144,o),
(407,144,c),
(407,89,l),
(518,89,o),
(597,237,o),
(597,237,c),
(565,257,l)
);
},
{
closed = 1;
nodes = (
(597,347,l),
(537,402,l),
(537,157,l),
(597,142,l)
);
},
{
closed = 1;
nodes = (
(537,97,l),
(597,97,l),
(597,237,l),
(537,157,l)
);
},
{
pos = (597,97);
ref = _serif.I.BR;
}
);
width = 696;
},
{
layerId = m002;
shapes = (
{
closed = 1;
nodes = (
(435,605,l),
(177,605,o),
(15,500,o),
(15,250,cs),
(15,0,o),
(207,-110,o),
(435,-110,cs),
(530,-110,o),
(628,-74,o),
(693,-21,c),
(663,59,l),
(598,9,o),
(511,-14,o),
(435,-14,cs),
(287,-14,o),
(124,42,o),
(124,250,cs),
(124,458,o),
(287,490,o),
(405,490,c)
);
},
{
closed = 1;
nodes = (
(420,204,l),
(395,204,o),
(375,219,o),
(375,250,cs),
(375,290,o),
(395,317,o),
(470,317,c),
(470,402,l),
(445,402,l),
(283,402,o),
(195,356,o),
(195,250,cs),
(195,158,o),
(257,89,o),
(360,89,c)
);
},
{
closed = 1;
nodes = (
(650,399,ls),
(650,531,o),
(587,605,o),
(435,605,c),
(405,489,l),
(461,489,o),
(470,467,o),
(470,402,c),
(650,317,l)
);
},
{
closed = 1;
nodes = (
(580,277,o),
(455,204,o),
(420,204,c),
(360,89,l),
(471,89,o),
(580,277,o),
(580,277,c),
(580,277,l)
);
},
{
closed = 1;
nodes = (
(650,317,l),
(470,402,l),
(470,157,l),
(650,142,l)
);
},
{
closed = 1;
nodes = (
(470,97,l),
(650,97,l),
(650,237,l),
(470,157,l)
);
},
{
pos = (650,97);
ref = _serif.I.BR;
}
);
width = 709;
}
);
metricLeft = "=o";
unicode = 64;
userData = {
KernOnSpecialSpacing = {
L = symbols;
R = symbols;
};
};
}
{
glyphname = A;
kernLeft = KO_A;
kernRight = KO_A;
layers = (
{
anchors = (
{
name = bottom;
pos = (304,0);
},
{
name = ogonek;
pos = (558,0);
},
{
name = top;
pos = (304,637);
}
);
layerId = m01;
shapes = (
{
closed = 1;
nodes = (
(122,0,l),
(314,628,l),
(294,628,l),
(486,0,l),
(558,0,l),
(342,667,l),
(266,667,l),
(50,0,l)
);
},
{
pos = (70,0);
ref = _serif.I.BL;
},
{
pos = (122,0);
ref = _serif.I.BR;
},
{
pos = (486,0);
ref = _serif.I.BL;
},
{
closed = 1;
nodes = (
(460,158,l),
(460,218,l),
(148,218,l),
(148,158,l)
);
},
{
pos = (538,0);
ref = _serif.I.BR;
},
{
pos = (266,667);
ref = _serif.I.TL;
}
);
width = 608;
},
{
anchors = (
{
name = bottom;
pos = (330,0);
},
{
name = ogonek;
pos = (620,0);
},
{
name = top;
pos = (330,657);
}
);
layerId = m002;
shapes = (
{
closed = 1;
nodes = (
(227,0,l),
(380,667,l),
(280,667,l),
(433,0,l),
(620,0,l),
(420,667,l),
(240,667,l),
(40,0,l)
);
},
{
pos = (70,0);
ref = _serif.I.BL;
},
{
pos = (227,0);
ref = _serif.I.BR;
},
{
pos = (433,0);
ref = _serif.I.BL;
},
{
closed = 1;
nodes = (
(486,178,l),
(486,298,l),
(174,298,l),
(174,178,l)
);
},
{
pos = (590,0);
ref = _serif.I.BR;
},
{
pos = (230,667);
ref = _serif.I.TL;
}
);
width = 660;
}
);
unicode = 65;
userData = {
KernOnName = A;
};
}
{
glyphname = B;
kernLeft = KO_B;
kernRight = KO_B;
layers = (
{
anchors = (
{
name = bottom;
pos = (275,0);
},
{
name = center;
pos = (275,334);
},
{
name = top;
pos = (275,657);
}
);
layerId = m01;
shapes = (
{
closed = 1;
nodes = (
(148,60,l),
(148,320,l),
(270,320,ls),
(392,320,o),
(453,279,o),
(453,191,cs),
(453,103,o),
(392,60,o),
(270,60,c)
);
},
{
closed = 1;
nodes = (
(376,616,o),
(428,577,o),
(428,498,cs),
(428,419,o),
(376,380,o),
(270,380,cs),
(148,380,l),
(148,613,l),
(148,613,o),
(195,616,o),
(270,616,cs)
);
},
{
closed = 1;
nodes = (
(440,0,o),
(525,63,o),
(525,191,cs),
(525,269,o),
(475,331,o),
(395,352,c),
(456,378,o),
(495,434,o),
(495,498,cs),
(495,612,o),
(414,676,o),
(270,676,cs),
(195,676,o),
(148,667,o),
(85,667,c),
(85,0,l),
(270,0,l)
);
},
{
pos = (85,667);
ref = _serif.I.TL;
},
{
pos = (85,0);
ref = _serif.I.BL;
}
);
width = 529;
},
{
anchors = (
{
name = bottom;
pos = (323,0);
},
{
name = center;
pos = (323,334);
},
{
name = top;
pos = (323,667);
}
);
layerId = m002;
shapes = (
{
closed = 1;
nodes = (
(262,120,l),
(262,290,l),
(304,290,ls),
(346,290,o),
(407,279,o),
(407,206,cs),
(407,133,o),
(346,120,o),
(304,120,c)
);
},
{
closed = 1;
nodes = (
(330,556,o),
(382,552,o),
(382,483,cs),
(382,414,o),
(330,410,o),
(304,410,cs),
(262,410,l),
(262,553,l),
(262,553,o),
(261,556,o),
(304,556,cs)
);
},
{
closed = 1;
nodes = (
(514,0,o),
(599,63,o),
(599,191,cs),
(599,269,o),
(549,331,o),
(469,352,c),
(530,378,o),
(569,434,o),
(569,498,cs),
(569,612,o),
(488,676,o),
(344,676,cs),
(199,676,o),
(170,667,o),
(80,667,c),
(80,0,l),
(344,0,l)
);
},
{
pos = (80,667);
ref = _serif.I.TL;
},
{
pos = (80,0);
ref = _serif.I.BL;
}
);
width = 602;
}
);
metricLeft = "=H";
metricRight = "=H/4";
unicode = 66;
}
{
glyphname = C;
kernLeft = KO_O;
kernRight = KO_C;
layers = (
{
anchors = (
{
name = bottom;
pos = (316,0);
},
{
name = top;
pos = (316,667);
}
);
layerId = m01;
shapes = (
{
closed = 1;
nodes = (
(367,614,o),
(413,596,o),
(459,576,c),
(488,628,l),
(438,654,o),
(381,674,o),
(316,674,cs),
(111,674,o),
(30,512,o),
(30,332,c),
(102,332,l),
(102,489,o),
(161,614,o),
(316,614,cs)
);
},
{
closed = 1;
nodes = (
(161,50,o),
(102,175,o),
(102,332,c),
(30,332,l),
(30,152,o),
(111,-10,o),
(316,-10,cs),
(381,-10,o),
(438,10,o),
(488,36,c),
(459,88,l),
(413,68,o),
(367,50,o),
(316,50,cs)
);
},
{
pos = (488,628);
ref = _serif.C.TR;
},
{
pos = (488,36);
ref = _serif.C.BR;
}
);
width = 518;
},
{
anchors = (
{
name = bottom;
pos = (341,0);
},
{
name = top;
pos = (341,667);
}
);
layerId = m002;
shapes = (
{
closed = 1;
nodes = (
(410,556,o),
(461,545,o),
(524,518,c),
(553,630,l),
(503,651,o),
(433,676,o),
(341,676,c),
(96,676,o),
(15,514,o),
(15,334,c),
(207,334,l),
(207,434,o),
(226,556,o),
(341,556,cs)
);
},
{
closed = 1;
nodes = (
(226,112,o),
(207,234,o),
(207,334,c),
(15,334,l),
(15,154,o),
(96,-9,o),
(341,-9,cs),
(433,-9,o),
(503,17,o),
(553,38,c),
(524,150,l),
(461,123,o),
(410,112,o),
(341,112,cs)
);
},
{
pos = (553,630);
ref = _serif.C.TR;
},
{
pos = (553,38);
ref = _serif.C.BR;
}
);
width = 568;
}
);
metricLeft = "=O";
unicode = 67;
userData = {
KernOnName = C;
};
}
{
glyphname = D;
kernLeft = KO_H;
kernRight = KO_O;
layers = (
{
anchors = (
{
name = bottom;
pos = (299,0);
},
{
name = center;
pos = (178,350);
},
{
name = top;
pos = (299,667);
}
);
layerId = m01;
shapes = (
{
closed = 1;
nodes = (
(310,0,l),
(515,0,o),
(600,156,o),
(600,336,cs),
(600,516,o),
(515,676,o),
(300,676,c),
(238,676,o),
(178,667,o),
(115,667,c),
(115,0,l)
);
},
{
closed = 1;
nodes = (
(178,612,l),
(178,612,o),
(225,616,o),
(300,616,cs),
(465,616,o),
(528,493,o),
(528,336,cs),
(528,179,o),
(465,60,o),
(310,60,cs),
(250,60,o),
(178,60,o),
(178,60,c)
);
},
{
pos = (115,667);
ref = _serif.I.TL;
},
{
pos = (115,0);
ref = _serif.I.BL;
}
);
width = 630;
},
{
anchors = (
{
name = bottom;
pos = (320,0);
},
{
name = center;
pos = (189,350);
},
{
name = top;
pos = (310,667);
}
);
layerId = m002;
shapes = (
{
closed = 1;
nodes = (
(320,0,l),
(565,0,o),
(650,156,o),
(650,336,cs),
(650,516,o),
(565,676,o),
(310,676,c),
(247,676,o),
(183,667,o),
(85,667,c),
(85,0,l)
);
},
{
closed = 1;
nodes = (
(278,555,l),
(278,555,o),
(285,556,o),
(310,556,cs),
(395,556,o),
(458,493,o),
(458,336,cs),
(458,179,o),
(395,120,o),
(320,120,cs),
(310,120,o),
(278,120,o),
(278,120,c)
);
},
{
pos = (85,667);
ref = _serif.I.TL;
},
{
pos = (85,0);
ref = _serif.I.BL;
}
);
width = 665;
}
);
metricLeft = "=H";
metricRight = "=O";
unicode = 68;
userData = {
KernOnName = D;
};
}
{
glyphname = E;
kernLeft = KO_H;
kernRight = KO_E;
layers = (
{
anchors = (
{
name = bottom;
pos = (305,0);
},
{
name = ogonek;
pos = (494,0);
},
{
name = top;
pos = (305,637);
},
{
name = topleft;
pos = (53,637);
}
);
layerId = m01;
shapes = (
{
closed = 1;
nodes = (
(115,0,l),
(494,0,l),
(494,60,l),
(178,60,l),
(178,320,l),
(435,320,l),
(435,380,l),
(178,380,l),
(178,607,l),
(495,607,l),
(495,667,l),
(115,667,l)
);
},
{
pos = (115,667);
ref = _serif.I.TL;
},
{
pos = (115,0);
ref = _serif.I.BL;
},
{
pos = (494,0);
ref = _serif.Z.BR;
},
{
pos = (495,667);
ref = _serif.E.TR;
},
{
pos = (435,320);
ref = _serif.Z.BR;
},
{
pos = (435,380);
ref = _serif.E.TR;
}
);
width = 540;
},
{
anchors = (
{
name = bottom;
pos = (315,0);
},
{
name = ogonek;
pos = (544,0);
},
{
name = top;
pos = (315,657);
},
{
name = topleft;
pos = (60,657);
}
);
layerId = m002;
shapes = (
{
closed = 1;
nodes = (
(85,0,l),
(544,0,l),
(544,140,l),
(268,140,l),
(268,265,l),
(475,265,l),
(475,405,l),
(268,405,l),
(268,527,l),
(545,527,l),
(545,667,l),
(85,667,l)
);
},
{
pos = (85,667);
ref = _serif.I.TL;
},
{
pos = (85,0);
ref = _serif.I.BL;
},
{
pos = (544,0);
ref = _serif.Z.BR;
},
{
pos = (545,667);
ref = _serif.E.TR;
},
{
pos = (475,265);
ref = _serif.Z.BR;
},
{
pos = (475,405);
ref = _serif.E.TR;
}
);
width = 560;
}
);
metricLeft = "=H";
metricRight = "=H";
unicode = 69;
}
{
glyphname = F;
kernLeft = KO_H;
kernRight = KO_F;
layers = (
{
anchors = (
{
name = bottom;
pos = (275,0);
},
{
name = top;
pos = (275,667);
}
);
layerId = m01;
shapes = (
{
closed = 1;
nodes = (
(115,0,l),
(178,0,l),
(178,300,l),
(435,300,l),
(435,360,l),
(178,360,l),
(178,607,l),
(495,607,l),
(495,667,l),
(115,667,l)
);
},
{
pos = (115,667);
ref = _serif.I.TL;
},
{
pos = (495,667);
ref = _serif.E.TR;
},
{
pos = (435,300);
ref = _serif.Z.BR;
},
{
pos = (435,360);
ref = _serif.E.TR;
},
{
pos = (115,0);
ref = _serif.I.BL;
},
{
pos = (178,0);
ref = _serif.I.BR;
}
);
width = 510;
},
{
anchors = (
{
name = bottom;
pos = (298,0);
},
{
name = top;
pos = (298,667);
}
);
layerId = m002;
shapes = (
{
closed = 1;
nodes = (
(85,0,l),
(268,0,l),
(268,250,l),
(475,250,l),
(475,390,l),
(268,390,l),
(268,527,l),
(545,527,l),
(545,667,l),
(85,667,l)
);
},
{
pos = (85,667);
ref = _serif.I.TL;
},
{
pos = (545,667);
ref = _serif.E.TR;
},
{
pos = (475,250);
ref = _serif.Z.BR;
},
{
pos = (475,390);
ref = _serif.E.TR;
},
{
pos = (85,0);
ref = _serif.I.BL;
},
{
pos = (268,0);
ref = _serif.I.BR;
}
);
width = 550;
}
);
metricLeft = "=H";
unicode = 70;
userData = {
KernOnName = F;
};
}
{
glyphname = H;
kernLeft = KO_H;
kernRight = KO_H;
layers = (
{
anchors = (
{
name = bottom;
pos = (342,0);
},
{
name = center;
pos = (342,334);
},
{
name = top;
pos = (342,637);
},
{
name = topleft;
pos = (53,667);
}
);
layerId = m01;
shapes = (
{
closed = 1;
nodes = (
(506,0,l),
(569,0,l),
(569,667,l),
(506,667,l),
(506,380,l),
(178,380,l),
(178,667,l),
(115,667,l),
(115,0,l),
(178,0,l),
(178,320,l),
(506,320,l)
);
},
{
pos = (115,667);
ref = _serif.I.TL;
},
{
pos = (506,667);
ref = _serif.I.TL;
},
{
pos = (178,667);
ref = _serif.I.TR;
},
{
pos = (569,667);
ref = _serif.I.TR;
},
{
pos = (115,0);
ref = _serif.I.BL;
},
{
pos = (506,0);
ref = _serif.I.BL;
},
{
pos = (178,0);
ref = _serif.I.BR;
},
{
pos = (569,0);
ref = _serif.I.BR;
}
);
width = 684;
},
{
anchors = (
{
name = bottom;
pos = (347,0);
},
{
name = center;
pos = (347,334);
},
{
name = top;
pos = (347,657);
},
{
name = topleft;
pos = (60,657);
}
);
layerId = m002;
shapes = (
{
closed = 1;
nodes = (
(426,0,l),
(609,0,l),
(609,667,l),
(426,667,l),
(426,420,l),
(268,420,l),
(268,667,l),
(85,667,l),
(85,0,l),
(268,0,l),
(268,280,l),
(426,280,l)
);
},
{
pos = (85,667);
ref = _serif.I.TL;
},
{
pos = (426,667);
ref = _serif.I.TL;
},
{
pos = (268,667);
ref = _serif.I.TR;
},
{
pos = (609,667);
ref = _serif.I.TR;
},
{
pos = (85,0);
ref = _serif.I.BL;
},
{
pos = (426,0);
ref = _serif.I.BL;
},
{
pos = (268,0);
ref = _serif.I.BR;
},
{
pos = (609,0);
ref = _serif.I.BR;
}
);
width = 694;
}
);
unicode = 72;
userData = {
KernOnName = H;
};
}
{
glyphname = I;
kernLeft = KO_I;
kernRight = KO_I;
layers = (
{
anchors = (
{
name = bottom;
pos = (147,0);
},
{
name = ogonek;
pos = (178,0);
},
{
name = top;
pos = (147,637);
},
{
name = topleft;
pos = (53,667);
}
);
layerId = m01;
shapes = (
{
closed = 1;
nodes = (
(178,0,l),
(178,667,l),
(115,667,l),
(115,0,l)
);
},
{
pos = (115,667);
ref = _serif.I.TL;
},
{
pos = (115,0);
ref = _serif.I.BL;
},
{
pos = (178,0);
ref = _serif.I.BR;
},
{
pos = (178,667);
ref = _serif.I.TR;
}
);
width = 293;
},
{
anchors = (
{
name = bottom;
pos = (171,0);
},
{
name = ogonek;
pos = (262,0);
},
{
name = top;
pos = (171,667);
},
{
name = topleft;
pos = (20,667);
}
);
layerId = m002;
shapes = (
{
closed = 1;
nodes = (
(262,0,l),
(262,667,l),
(80,667,l),
(80,0,l)
);
},
{
pos = (80,667);
ref = _serif.I.TL;
},
{
pos = (80,0);
ref = _serif.I.BL;
},
{
pos = (262,0);
ref = _serif.I.BR;
},
{
pos = (262,667);
ref = _serif.I.TR;
}
);
width = 342;
}
);
metricLeft = "=H";
metricRight = "=|";
unicode = 73;
userData = {
KernOnName = I;
};
}
{
glyphname = J;
kernLeft = KO_J;
kernRight = KO_J;
layers = (
{
anchors = (
{
name = bottom;
pos = (156,0);
},
{
name = top;
pos = (320,637);
}
);
layerId = m01;
shapes = (
{
closed = 1;
nodes = (
(351,667,l),
(289,667,l),
(289,208,ls),
(289,123,o),
(250,47,o),
(156,47,cs),
(102,47,o),
(72,62,o),
(42,83,c),
(15,41,l),
(53,8,o),
(97,-8,o),
(156,-8,cs),
(303,-8,o),
(351,95,o),
(351,224,cs)
);
},
{
pos = (289,667);
ref = _serif.I.TL;
},
{
pos = (351,667);
ref = _serif.I.TR;
},
{
pos = (15,41);
ref = _serif.S.BL;
}
);
width = 466;
},
{
anchors = (
{
name = bottom;
pos = (231,0);
},
{
name = top;
pos = (325,657);
}
);
layerId = m002;
shapes = (
{
closed = 1;
nodes = (
(416,667,l),
(234,667,l),
(234,208,ls),
(234,153,o),
(234,107,o),
(161,107,cs),
(114,107,o),
(55,123,o),
(27,143,c),
(0,41,l),
(32,14,o),
(111,-8,o),
(181,-8,cs),
(368,-8,o),
(416,95,o),
(416,224,cs)
);
},
{
pos = (234,667);
ref = _serif.I.TL;
},
{
pos = (416,667);
ref = _serif.I.TR;
},
{
pos = (0,41);
ref = _serif.S.BL;
}
);
width = 501;
}
);
metricRight = "=H";
unicode = 74;
}
{
glyphname = K;
kernLeft = KO_H;
kernRight = KO_K;
layers = (
{
anchors = (
{
name = bottom;
pos = (310,0);
},
{
name = top;
pos = (310,637);
}
);
layerId = m01;
shapes = (
{
closed = 1;
nodes = (
(487,0,l),
(565,0,l),
(301,381,l),
(227,380,l)
);
},
{
closed = 1;
nodes = (
(177,667,l),
(115,667,l),
(115,0,l),
(177,0,l)
);
},
{
closed = 1;
nodes = (
(146,208,l),
(555,667,l),
(470,667,l),
(146,300,l)
);
},
{
pos = (177,0);
ref = _serif.I.BR;
},
{
pos = (525,0);
ref = _serif.I.BR;
},
{
pos = (177,667);
ref = _serif.I.TR;
},
{
pos = (505,667);
ref = _serif.I.TR;
},
{
pos = (115,0);
ref = _serif.I.BL;
},
{
pos = (115,667);
ref = _serif.I.TL;
}
);
width = 595;
},
{
anchors = (
{
name = bottom;
pos = (333,0);
},
{
name = top;
pos = (333,657);
}
);
layerId = m002;
shapes = (
{
closed = 1;
nodes = (
(410,0,l),
(615,0,l),
(407,420,l),
(225,420,l)
);
},
{
closed = 1;
nodes = (
(267,666,l),
(85,666,l),
(85,0,l),
(267,0,l)
);
},
{
closed = 1;
nodes = (
(266,158,l),
(605,667,l),
(420,667,l),
(186,305,l)
);
},
{
pos = (267,0);
ref = _serif.I.BR;
},
{
pos = (565,0);
ref = _serif.I.BR;
},
{
pos = (267,666);
ref = _serif.I.TR;
},
{
pos = (555,667);
ref = _serif.I.TR;
},
{
pos = (85,0);
ref = _serif.I.BL;
},
{
pos = (85,666);
ref = _serif.I.TL;
}
);
width = 640;
}
);
metricLeft = "=H";
unicode = 75;
}
{
glyphname = L;
kernLeft = KO_H;
kernRight = KO_L;
layers = (
{
anchors = (
{
name = bottom;
pos = (257,0);
},
{
name = center;
pos = (257,334);
},
{
name = top;
pos = (257,637);
},
{
name = topright;
pos = (414,667);
}
);
layerId = m01;
shapes = (
{
closed = 1;
nodes = (
(178,667,l),
(115,667,l),
(115,0,l),
(178,0,l)
);
},
{
closed = 1;
nodes = (
(465,0,l),
(465,60,l),
(115,60,l),
(115,0,l)
);
},
{
pos = (115,667);
ref = _serif.I.TL;
},
{
pos = (465,0);
ref = _serif.Z.BR;
},
{
pos = (115,0);
ref = _serif.I.BL;
},
{
pos = (178,667);
ref = _serif.I.TR;
}
);
width = 480;
},
{
anchors = (
{
name = bottom;
pos = (278,0);
},
{
name = center;
pos = (278,334);
},
{
name = top;
pos = (278,657);
},
{
name = topright;
pos = (330,666);
}
);
layerId = m002;
shapes = (
{
closed = 1;
nodes = (
(268,667,l),
(85,667,l),
(85,0,l),
(268,0,l)
);
},
{
closed = 1;
nodes = (
(515,0,l),
(515,120,l),
(85,120,l),
(85,0,l)
);
},
{
pos = (85,667);
ref = _serif.I.TL;
},
{
pos = (515,0);
ref = _serif.Z.BR;
},
{
pos = (85,0);
ref = _serif.I.BL;
},
{
pos = (268,667);
ref = _serif.I.TR;
}
);
width = 515;
}
);
metricLeft = "=H";
unicode = 76;
userData = {
KernOnName = L;
};
}
{
glyphname = M;
kernLeft = KO_H;
kernRight = KO_H;
layers = (
{
anchors = (
{
name = bottom;
pos = (400,0);
},
{
name = top;
pos = (400,637);
}
);
layerId = m01;
shapes = (
{
closed = 1;
nodes = (
(438,-1,l),
(654,667,l),
(586,667,l),
(400,68,l),
(213,667,l),
(146,667,l),
(362,-1,l)
);
},
{
closed = 1;
nodes = (
(178,0,l),
(178,667,l),
(115,667,l),
(115,0,l)
);
},
{
closed = 1;
nodes = (
(685,0,l),
(685,667,l),
(622,667,l),
(622,0,l)
);
},
{
pos = (115,0);
ref = _serif.I.BL;
},
{
pos = (178,0);
ref = _serif.I.BR;
},
{
pos = (622,0);
ref = _serif.I.BL;
},
{
pos = (115,667);
ref = _serif.I.TL;
},
{
pos = (685,0);
ref = _serif.I.BR;
},
{
pos = (685,667);
ref = _serif.I.TR;
}
);
width = 800;
},
{
anchors = (
{
name = bottom;
pos = (425,0);
},
{
name = top;
pos = (425,657);
}
);
layerId = m002;
shapes = (
{
closed = 1;
nodes = (
(465,0,l),
(665,667,l),
(525,667,l),
(425,310,l),
(325,667,l),
(185,667,l),
(385,0,l)
);
},
{
closed = 1;
nodes = (
(268,0,l),
(268,667,l),
(85,667,l),
(85,0,l)
);
},
{
closed = 1;
nodes = (
(765,0,l),
(765,667,l),
(582,667,l),
(582,0,l)
);
},
{
pos = (85,0);
ref = _serif.I.BL;
},
{
pos = (268,0);
ref = _serif.I.BR;
},
{
pos = (582,0);
ref = _serif.I.BL;
},
{
pos = (85,667);
ref = _serif.I.TL;
},
{
pos = (765,0);
ref = _serif.I.BR;
},
{
pos = (765,667);
ref = _serif.I.TR;
}
);
width = 850;
}
);
metricLeft = "=H";
metricRight = "=H";
unicode = 77;
}
{
glyphname = N;
kernLeft = KO_H;
kernRight = KO_N;
layers = (
{
anchors = (
{
name = bottom;
pos = (342,0);
},
{
name = top;
pos = (342,637);
}
);
layerId = m01;
shapes = (
{
closed = 1;
nodes = (
(486,0,l),
(569,0,l),
(569,667,l),
(506,667,l),
(506,95,l),
(198,667,l),
(115,667,l),
(115,0,l),
(178,0,l),
(178,572,l)
);
},
{
pos = (115,667);
ref = _serif.I.TL;
},
{
pos = (506,667);
ref = _serif.I.TL;
},
{
pos = (115,0);
ref = _serif.I.BL;
},
{
pos = (178,0);
ref = _serif.I.BR;
},
{
pos = (569,667);
ref = _serif.I.TR;
}
);
width = 684;
},
{
anchors = (
{
name = bottom;
pos = (350,0);
},
{
name = top;
pos = (350,657);
}
);
layerId = m002;
shapes = (
{
closed = 1;
nodes = (
(460,0,l),
(615,0,l),
(615,667,l),
(460,667,l),
(460,305,l),
(240,667,l),
(85,667,l),
(85,0,l),
(240,0,l),
(240,360,l)
);
},
{
pos = (85,667);
ref = _serif.I.TL;
},
{
pos = (460,667);
ref = _serif.I.TL;
},
{
pos = (85,0);
ref = _serif.I.BL;
},
{
pos = (240,0);
ref = _serif.I.BR;
},
{
pos = (615,667);
ref = _serif.I.TR;
}
);
width = 700;
}
);
metricLeft = "=H";
metricRight = "=H";
unicode = 78;
userData = {
KernOnName = N;
};
}
{
glyphname = O;
kernLeft = KO_O;
kernRight = KO_O;
layers = (
{
anchors = (
{
name = bottom;
pos = (317,0);
},
{
name = center;
pos = (317,334);
},
{
name = ogonek;
pos = (583,10);
},
{
name = top;
pos = (317,637);
},
{
name = topleft;
pos = (5,637);
},
{
name = topright;
pos = (629,597);
}
);
layerId = m01;
shapes = (
{
closed = 1;
nodes = (
(522,-10,o),
(604,154,o),
(604,334,cs),
(604,514,o),
(522,676,o),
(317,676,c),
(112,676,o),
(30,514,o),
(30,334,cs),
(30,148,o),
(112,-10,o),
(317,-10,cs)
);
},
{
closed = 1;
nodes = (
(162,50,o),
(102,177,o),
(102,334,cs),
(102,491,o),
(162,616,o),
(317,616,cs),
(472,616,o),
(532,491,o),
(532,334,cs),
(532,177,o),
(472,50,o),
(317,50,cs)
);
}
);
width = 634;
},
{
anchors = (
{
name = bottom;
pos = (342,0);
},
{
name = center;
pos = (342,334);
},
{
name = ogonek;
pos = (616,10);
},
{
name = top;
pos = (342,657);
},
{
name = topleft;
pos = (20,657);
},
{
name = topright;
pos = (664,657);
}
);
layerId = m002;
shapes = (
{
closed = 1;
nodes = (
(587,-10,o),
(669,154,o),
(669,334,cs),
(669,514,o),
(587,676,o),
(342,676,cs),
(96,676,o),
(15,514,o),
(15,334,cs),
(15,154,o),
(96,-10,o),
(342,-10,cs)
);
},
{
closed = 1;
nodes = (
(227,110,o),
(207,234,o),
(207,334,cs),
(207,434,o),
(227,556,o),
(342,556,cs),
(457,556,o),
(477,434,o),
(477,334,cs),
(477,234,o),
(457,110,o),
(342,110,cs)
);
}
);
width = 684;
}
);
unicode = 79;
userData = {
KernOnName = O;
};
}
{
glyphname = P;
kernLeft = KO_H;
kernRight = KO_P;
layers = (
{
layerId = m01;
shapes = (
{
closed = 1;
nodes = (
(177,0,l),
(177,285,l),
(177,285,o),
(224,282,o),
(299,282,cs),
(432,282,o),
(525,363,o),
(525,478,cs),
(525,595,o),
(432,676,o),
(300,676,cs),
(225,676,o),
(178,667,o),
(115,667,c),
(115,0,l)
);
},
{
pos = (115,0);
ref = _serif.I.BL;
},
{
pos = (177,0);
ref = _serif.I.BR;
},
{
pos = (115,667);
ref = _serif.I.TL;
},
{
closed = 1;
nodes = (
(225,342,o),
(178,345,o),
(178,345,c),
(178,612,l),
(178,612,o),
(225,616,o),
(300,616,cs),
(398,616,o),
(453,566,o),
(453,477,cs),
(453,390,o),
(398,342,o),
(300,342,cs)
);
}
);
width = 540;
},
{
layerId = m002;
shapes = (
{
closed = 1;
nodes = (
(267,0,l),
(267,255,l),
(267,255,o),
(284,252,o),
(309,252,cs),
(482,252,o),
(575,331,o),
(575,463,cs),
(575,595,o),
(482,677,o),
(310,677,cs),
(205,677,o),
(175,667,o),
(85,667,c),
(85,0,l)
);
},
{
pos = (85,0);
ref = _serif.I.BL;
},
{
pos = (267,0);
ref = _serif.I.BR;
},
{
pos = (85,667);
ref = _serif.I.TL;
},
{
closed = 1;
nodes = (
(285,372,o),
(268,375,o),
(268,375,c),
(268,553,l),
(268,553,o),
(285,556,o),
(310,556,cs),
(355,556,o),
(383,520,o),
(383,462,cs),
(383,407,o),
(355,372,o),
(310,372,cs)
);
}
);
width = 575;
}
);
metricLeft = "=H";
unicode = 80;
userData = {
KernOnName = P;
};
}
{
glyphname = Q;
kernLeft = KO_O;
kernRight = KO_O;
layers = (
{
layerId = m01;
shapes = (
{
closed = 1;
nodes = (
(287,-2,l),
(295,-118,o),
(347,-208,o),
(481,-208,cs),
(537,-208,o),
(585,-188,o),
(622,-159,c),
(605,-129,l),
(575,-148,o),
(533,-163,o),
(481,-163,cs),
(394,-163,o),
(352,-83,o),
(346,-2,c)
);
},
{
closed = 1;
nodes = (
(30,156,o),
(112,-8,o),
(317,-8,c),
(522,-8,o),
(604,156,o),
(604,336,cs),
(604,516,o),
(522,678,o),
(317,678,cs),
(112,678,o),
(30,516,o),
(30,336,cs)
);
},
{
closed = 1;
nodes = (
(102,493,o),
(162,618,o),
(317,618,cs),
(472,618,o),
(532,493,o),
(532,336,cs),
(532,179,o),
(472,52,o),
(317,52,cs),
(162,52,o),
(102,179,o),
(102,336,cs)
);
}
);
width = 634;
},
{
layerId = m002;
shapes = (
{
closed = 1;
nodes = (
(252,-2,l),
(260,-118,o),
(312,-208,o),
(496,-208,cs),
(552,-208,o),
(600,-188,o),
(637,-159,c),
(610,-57,l),
(580,-76,o),
(548,-93,o),
(496,-93,cs),
(449,-93,o),
(407,-83,o),
(401,-2,c)
);
},
{
closed = 1;
nodes = (
(15,154,o),
(96,-10,o),
(342,-10,cs),
(587,-10,o),
(669,154,o),
(669,334,cs),
(669,514,o),
(587,676,o),
(342,676,cs),
(96,676,o),
(15,514,o),
(15,334,cs)
);
},
{
closed = 1;
nodes = (
(207,434,o),
(227,556,o),
(342,556,cs),
(457,556,o),
(477,434,o),
(477,334,cs),
(477,234,o),
(457,110,o),
(342,110,cs),
(227,110,o),
(207,234,o),
(207,334,cs)
);
}
);
width = 684;
}
);
metricLeft = "=O";
unicode = 81;
userData = {
KernOnName = Q;
};
}
{
glyphname = R;
kernLeft = KO_H;
kernRight = KO_R;
layers = (
{
anchors = (
{
name = bottom;
pos = (301,0);
},
{
name = top;
pos = (301,637);
}
);
layerId = m01;
shapes = (
{
closed = 1;
nodes = (
(177,0,l),
(177,285,l),
(177,285,o),
(224,282,o),
(299,282,cs),
(432,282,o),
(525,363,o),
(525,478,cs),
(525,595,o),
(432,676,o),
(300,676,cs),
(225,676,o),
(178,667,o),
(115,667,c),
(115,0,l)
);
},
{
closed = 1;
nodes = (
(525,0,l),
(358,309,l),
(296,302,l),
(452,0,l)
);
},
{
closed = 1;
nodes = (
(225,342,o),
(178,345,o),
(178,345,c),
(178,612,l),
(178,612,o),
(225,616,o),
(300,616,cs),
(398,616,o),
(453,566,o),
(453,477,cs),
(453,390,o),
(398,342,o),
(300,342,cs)
);
},
{
pos = (115,0);
ref = _serif.I.BL;
},
{
pos = (177,0);
ref = _serif.I.BR;
},
{
pos = (495,0);
ref = _serif.I.BR;
},
{
pos = (115,667);
ref = _serif.I.TL;
}
);
width = 580;
},
{
anchors = (
{
name = bottom;
pos = (327,0);
},
{
name = top;
pos = (327,657);
}
);
layerId = m002;
shapes = (
{
closed = 1;
nodes = (
(267,0,l),
(267,255,l),
(267,255,o),
(284,252,o),
(309,252,cs),
(482,252,o),
(575,331,o),
(575,463,c),
(575,595,o),
(482,677,o),
(310,677,cs),
(205,677,o),
(175,667,o),
(85,667,c),
(85,0,l)
);
},
{
closed = 1;
nodes = (
(590,0,l),
(423,309,l),
(243,302,l),
(399,0,l)
);
},
{
closed = 1;
nodes = (
(285,372,o),
(268,375,o),
(268,375,c),
(268,553,l),
(268,553,o),
(285,556,o),
(310,556,cs),
(355,556,o),
(383,520,o),
(383,462,cs),
(383,407,o),
(355,372,o),
(310,372,cs)
);
},
{
pos = (85,0);
ref = _serif.I.BL;
},
{
pos = (267,0);
ref = _serif.I.BR;
},
{
pos = (540,0);
ref = _serif.I.BR;
},
{
pos = (85,667);
ref = _serif.I.TL;
}
);
width = 610;
}
);
metricLeft = "=H";
unicode = 82;
}
{
glyphname = S;
kernLeft = KO_S;
kernRight = KO_S;
layers = (
{
anchors = (
{
name = bottom;
pos = (218,0);
},
{
name = top;
pos = (218,667);
}
);
layerId = m01;
shapes = (
{
closed = 1;
nodes = (
(451,300,o),
(380,357,o),
(217,385,cs),
(149,396,o),
(110,435,o),
(110,500,c),
(110,565,o),
(154,616,o),
(217,616,c),
(217,676,l),
(147,676,o),
(47,618,o),
(47,500,c),
(47,400,o),
(107,340,o),
(217,320,cs),
(304,305,o),
(379,274,o),
(379,194,cs),
(379,106,o),
(319,50,o),
(217,50,c),
(217,-10,l),
(377,-10,o),
(451,77,o),
(451,194,cs)
);
},
{
closed = 1;
nodes = (
(268,616,o),
(314,598,o),
(360,578,c),
(389,630,l),
(339,656,o),
(282,676,o),
(217,676,c),
(217,616,l)
);
},
{
closed = 1;
nodes = (
(166,50,o),
(120,68,o),
(74,88,c),
(45,36,l),
(95,10,o),
(152,-10,o),
(217,-10,c),
(217,50,l)
);
},
{
pos = (45,36);
ref = _serif.S.BL;
},
{
pos = (389,630);
ref = _serif.C.TR;
}
);
width = 496;
},
{
anchors = (
{
name = bottom;
pos = (243,0);
},
{
name = top;
pos = (243,667);
}
);
layerId = m002;
shapes = (
{
closed = 1;
nodes = (
(516,320,o),
(446,400,o),
(282,425,cs),
(215,435,o),
(205,469,o),
(205,500,cs),
(205,531,o),
(234,556,o),
(282,556,c),
(242,676,l),
(132,676,o),
(32,598,o),
(32,480,cs),
(32,380,o),
(92,307,o),
(202,280,cs),
(296,257,o),
(324,241,o),
(324,194,cs),
(324,137,o),
(288,120,o),
(242,120,c),
(242,-10,l),
(442,-10,o),
(516,97,o),
(516,214,cs)
);
},
{
closed = 1;
nodes = (
(331,556,o),
(362,545,o),
(425,518,c),
(454,630,l),
(404,651,o),
(334,676,o),
(242,676,c),
(282,556,l)
);
},
{
closed = 1;
nodes = (
(173,120,o),
(122,133,o),
(59,160,c),
(30,38,l),
(80,17,o),
(150,-10,o),
(242,-10,c),
(242,120,l)
);
},
{
pos = (30,38);
ref = _serif.S.BL;
},
{
pos = (454,630);
ref = _serif.C.TR;
}
);
width = 546;
}
);
metricRight = "=|";
unicode = 83;
}
{
glyphname = T;
kernLeft = KO_T;
kernRight = KO_T;
layers = (
{
anchors = (
{
name = bottom;
pos = (248,0);
},
{
name = center;
pos = (248,333);
},
{
name = top;
pos = (248,637);
}
);
layerId = m01;
shapes = (
{
closed = 1;
nodes = (
(278,607,l),
(465,607,l),
(465,667,l),
(30,667,l),
(30,607,l),
(215,607,l),
(215,0,l),
(278,0,l)
);
},
{
pos = (278,0);
ref = _serif.I.BR;
},
{
pos = (30,667);
ref = _serif.T.TL;
},
{
pos = (465,667);
ref = _serif.T.TR;
},
{
pos = (215,0);
ref = _serif.I.BL;
}
);
width = 495;
},
{
anchors = (
{
name = bottom;
pos = (271,0);
},
{
name = center;
pos = (271,334);
},
{
name = top;
pos = (271,657);
}
);
layerId = m002;
shapes = (
{
closed = 1;
nodes = (
(362,527,l),
(527,527,l),
(527,667,l),
(15,667,l),
(15,527,l),
(180,527,l),
(180,0,l),
(362,0,l)
);
},
{
pos = (362,0);
ref = _serif.I.BR;
},
{
pos = (15,667);
ref = _serif.T.TL;
},
{
pos = (527,667);
ref = _serif.T.TR;
},
{
pos = (180,0);
ref = _serif.I.BL;
}
);
width = 542;
}
);
unicode = 84;
userData = {
KernOnName = T;
};
}
{
glyphname = U;
kernLeft = KO_U;
kernRight = KO_U;
layers = (
{
anchors = (
{
name = bottom;
pos = (312,0);
},
{
name = ogonek;
pos = (385,0);
},
{
name = top;
pos = (312,637);
},
{
name = topright;
pos = (601,637);
}
);
layerId = m01;
shapes = (
{
closed = 1;
nodes = (
(476,336,l),
(476,131,o),
(431,52,o),
(312,52,c),
(193,52,o),
(148,131,o),
(148,336,c),
(85,336,l),
(85,87,o),
(148,-8,o),
(312,-8,c),
(476,-8,o),
(539,87,o),
(539,336,c)
);
},
{
closed = 1;
nodes = (
(476,336,l),
(539,336,l),
(539,667,l),
(476,667,l)
);
},
{
closed = 1;
nodes = (
(148,667,l),
(85,667,l),
(85,336,l),
(148,336,l)
);
},
{
pos = (85,667);
ref = _serif.I.TL;
},
{
pos = (476,667);
ref = _serif.I.TL;
},
{
pos = (148,667);
ref = _serif.I.TR;
},
{
pos = (539,667);
ref = _serif.I.TR;
}
);
width = 624;
},
{
anchors = (
{
name = bottom;
pos = (337,0);
},
{
name = ogonek;
pos = (426,0);
},
{
name = top;
pos = (337,657);
},
{
name = topright;
pos = (626,657);
}
);
layerId = m002;
shapes = (
{
closed = 1;
nodes = (
(421,336,l),
(421,191,o),
(416,112,o),
(337,112,c),
(258,112,o),
(253,191,o),
(253,336,c),
(70,336,l),
(70,87,o),
(133,-8,o),
(337,-8,c),
(541,-8,o),
(604,87,o),
(604,336,c)
);
},
{
closed = 1;
nodes = (
(421,336,l),
(604,336,l),
(604,667,l),
(421,667,l)
);
},
{
closed = 1;
nodes = (
(253,667,l),
(70,667,l),
(70,336,l),
(253,336,l)
);
},
{
pos = (70,667);
ref = _serif.I.TL;
},
{
pos = (421,667);
ref = _serif.I.TL;
},
{
pos = (253,667);
ref = _serif.I.TR;
},
{
pos = (604,667);
ref = _serif.I.TR;
}
);
width = 674;
}
);
metricRight = "=|";
unicode = 85;
userData = {
KernOnName = U;
};
}
{
glyphname = V;
kernLeft = KO_V;
kernRight = KO_V;
layers = (
{
layerId = m01;
shapes = (
{
closed = 1;
nodes = (
(97,667,l),
(25,667,l),
(241,0,l),
(317,0,l),
(533,667,l),
(460,667,l),
(279,69,l)
);
},
{
pos = (55,667);
ref = _serif.I.TL;
},
{
pos = (450,667);
ref = _serif.I.TL;
},
{
pos = (503,667);
ref = _serif.I.TR;
},
{
pos = (107,667);
ref = _serif.I.TR;
}
);
width = 558;
},
{
layerId = m002;
shapes = (
{
closed = 1;
nodes = (
(225,667,l),
(25,667,l),
(215,0,l),
(415,0,l),
(605,667,l),
(405,667,l),
(315,259,l)
);
},
{
pos = (55,667);
ref = _serif.I.TL;
},
{
pos = (415,667);
ref = _serif.I.TL;
},
{
pos = (575,667);
ref = _serif.I.TR;
},
{
pos = (215,667);
ref = _serif.I.TR;
}
);
width = 630;
}
);
metricRight = "=|";
unicode = 86;
userData = {
KernOnName = V;
};
}
{
glyphname = W;
kernLeft = KO_W;
kernRight = KO_W;
layers = (
{
anchors = (
{
name = bottom;
pos = (419,0);
},
{
name = top;
pos = (419,637);
}
);
layerId = m01;
shapes = (
{
closed = 1;
nodes = (
(92,667,l),
(25,667,l),
(201,0,l),
(277,0,l),
(443,667,l),
(385,667,l),
(239,69,l)
);
},
{
closed = 1;
nodes = (
(452,667,l),
(395,667,l),
(561,0,l),
(637,0,l),
(813,667,l),
(745,667,l),
(599,69,l)
);
},
{
pos = (55,667);
ref = _serif.I.TL;
},
{
pos = (735,667);
ref = _serif.I.TL;
},
{
pos = (783,667);
ref = _serif.I.TR;
},
{
pos = (102,667);
ref = _serif.I.TR;
}
);
width = 838;
},
{
anchors = (
{
name = bottom;
pos = (435,0);
},
{
name = top;
pos = (435,657);
}
);
layerId = m002;
shapes = (
{
closed = 1;
nodes = (
(195,667,l),
(-5,667,l),
(155,0,l),
(355,0,l),
(525,667,l),
(355,667,l),
(265,267,l)
);
},
{
closed = 1;
nodes = (
(525,667,l),
(355,667,l),
(515,0,l),
(715,0,l),
(875,667,l),
(675,667,l),
(605,267,l)
);
},
{
pos = (55,667);
ref = _serif.I.TL;
},
{
pos = (685,667);
ref = _serif.I.TL;
},
{
pos = (845,667);
ref = _serif.I.TR;
},
{
pos = (185,667);
ref = _serif.I.TR;
}
);
width = 900;
}
);
metricLeft = "=V";
metricRight = "=V";
unicode = 87;
userData = {
KernOnName = W;
};
}
{
glyphname = X;
kernLeft = KO_X;
kernRight = KO_X;
layers = (
{
layerId = m01;
shapes = (
{
closed = 1;
nodes = (
(439,0,l),
(513,0,l),
(317,350,l),
(504,667,l),
(432,667,l),
(246,350,l)
);
},
{
closed = 1;
nodes = (
(121,667,l),
(49,667,l),
(236,350,l),
(40,0,l),
(114,0,l),
(307,350,l)
);
},
{
pos = (89,667);
ref = _serif.I.TL;
},
{
pos = (422,667);
ref = _serif.I.TL;
},
{
pos = (439,0);
ref = _serif.I.BL;
},
{
pos = (70,0);
ref = _serif.I.BL;
},
{
pos = (114,0);
ref = _serif.I.BR;
},
{
pos = (483,0);
ref = _serif.I.BR;
},
{
pos = (131,667);
ref = _serif.I.TR;
},
{
pos = (464,667);
ref = _serif.I.TR;
}
);
width = 553;
},
{
layerId = m002;
shapes = (
{
closed = 1;
nodes = (
(404,0,l),
(598,0,l),
(422,350,l),
(589,667,l),
(397,667,l),
(261,350,l)
);
},
{
closed = 1;
nodes = (
(226,667,l),
(34,667,l),
(201,350,l),
(25,0,l),
(219,0,l),
(362,350,l)
);
},
{
pos = (84,667);
ref = _serif.I.TL;
},
{
pos = (387,667);
ref = _serif.I.TL;
},
{
pos = (394,0);
ref = _serif.I.BL;
},
{
pos = (75,0);
ref = _serif.I.BL;
},
{
pos = (229,0);
ref = _serif.I.BR;
},
{
pos = (548,0);
ref = _serif.I.BR;
},
{
pos = (236,667);
ref = _serif.I.TR;
},
{
pos = (539,667);
ref = _serif.I.TR;
}
);
width = 623;
}
);
metricLeft = "=|";
metricRight = "=K";
unicode = 88;
userData = {
KernOnName = X;
};
}
{
glyphname = Y;
kernLeft = KO_Y;
kernRight = KO_Y;
layers = (
{
anchors = (
{
name = bottom;
pos = (254,0);
},
{
name = top;
pos = (254,637);
},
{
name = topleft;
pos = (20,637);
}
);
layerId = m01;
shapes = (
{
closed = 1;
nodes = (
(72,667,l),
(0,667,l),
(223,300,l),
(286,300,l),
(508,667,l),
(435,667,l),
(254,370,l)
);
},
{
closed = 1;
nodes = (
(223,0,l),
(286,0,l),
(286,330,l),
(223,330,l)
);
},
{
pos = (40,667);
ref = _serif.I.TL;
},
{
pos = (425,667);
ref = _serif.I.TL;
},
{
pos = (82,667);
ref = _serif.I.TR;
},
{
pos = (468,667);
ref = _serif.I.TR;
},
{
pos = (223,0);
ref = _serif.I.BL;
},
{
pos = (286,0);
ref = _serif.I.BR;
}
);
width = 508;
},
{
anchors = (
{
name = bottom;
pos = (299,0);
},
{
name = top;
pos = (299,657);
},
{
name = topleft;
pos = (25,657);
}
);
layerId = m002;
shapes = (
{
closed = 1;
nodes = (
(202,667,l),
(5,667,l),
(208,251,l),
(391,251,l),
(593,667,l),
(395,667,l),
(299,430,l)
);
},
{
closed = 1;
nodes = (
(208,0,l),
(391,0,l),
(391,330,l),
(208,330,l)
);
},
{
pos = (55,667);
ref = _serif.I.TL;
},
{
pos = (385,667);
ref = _serif.I.TL;
},
{
pos = (212,667);
ref = _serif.I.TR;
},
{
pos = (543,667);
ref = _serif.I.TR;
},
{
pos = (208,0);
ref = _serif.I.BL;
},
{
pos = (391,0);
ref = _serif.I.BR;
}
);
width = 598;
}
);
metricRight = "=|";
unicode = 89;
userData = {
KernOnName = Y;
};
}
{
glyphname = Z;
kernLeft = KO_Z;
kernRight = KO_Z;
layers = (
{
anchors = (
{
name = bottom;
pos = (275,0);
},
{
name = center;
pos = (275,334);
},
{
name = top;
pos = (275,637);
}
);
layerId = m01;
shapes = (
{
closed = 1;
nodes = (
(45,60,l),
(45,0,l),
(490,0,l),
(480,60,l),
(120,60,l),
(490,607,l),
(490,667,l),
(70,667,l),
(80,607,l),
(415,607,l)
);
},
{
pos = (490,0);
ref = _serif.Z.BR;
},
{
pos = (70,667);
ref = _serif.T.TL;
}
);
width = 535;
},
{
anchors = (
{
name = bottom;
pos = (290,0);
},
{
name = center;
pos = (290,334);
},
{
name = top;
pos = (290,657);
}
);
layerId = m002;
shapes = (
{
closed = 1;
nodes = (
(15,140,l),
(15,0,l),
(530,0,l),
(520,140,l),
(205,140,l),
(540,527,l),
(540,667,l),
(40,667,l),
(50,527,l),
(350,527,l)
);
},
{
pos = (530,0);
ref = _serif.Z.BR;
},
{
pos = (40,667);
ref = _serif.T.TL;
}
);
width = 555;
}
);
metricRight = "=|";
unicode = 90;
}
{
glyphname = bracketleft;
kernRight = KO_bracketleft;
layers = (
{
hints = (
{
horizontal = 1;
place = (-81,72);
type = Stem;
},
{
horizontal = 1;
place = (674,72);
type = Stem;
},
{
place = (78,82);
type = Stem;
},
{
place = (78,184);
type = Stem;
}
);
layerId = m01;
shapes = (
{
closed = 1;
nodes = (
(209,-55,l),
(209,0,l),
(105,0,l),
(105,667,l),
(209,667,l),
(209,722,l),
(45,722,l),
(45,-55,l)
);
}
);
width = 254;
},
{
layerId = m002;
shapes = (
{
closed = 1;
nodes = (
(259,-85,l),
(259,30,l),
(155,30,l),
(155,637,l),
(259,637,l),
(259,752,l),
(15,752,l),
(15,-85,l)
);
}
);
width = 284;
}
);
metricLeft = "=H";
note = bracketleft;
unicode = 91;
userData = {
KernOnSpecialSpacing = {
L = NoKerning;
R = parenthesis;
};
};
}
{
glyphname = backslash;
kernLeft = KO_backslash;
kernRight = KO_backslash;
layers = (
{
hints = (
{
horizontal = 1;
place = (-37,22);
type = Stem;
},
{
horizontal = 1;
place = (716,21);
target = up;
type = BottomGhost;
}
);
layerId = m01;
shapes = (
{
closed = 1;
nodes = (
(219,-125,l),
(274,-125,l),
(100,700,l),
(45,700,l)
);
}
);
width = 319;
},
{
layerId = m002;
shapes = (
{
closed = 1;
nodes = (
(219,-125,l),
(334,-125,l),
(160,700,l),
(45,700,l)
);
}
);
width = 379;
}
);
note = backslash;
unicode = 92;
userData = {
KernOnSpecialSpacing = {
L = "spaced-off";
R = "spaced-off";
};
};
}
{
glyphname = bracketright;
kernLeft = KO_bracketright;
layers = (
{
hints = (
{
horizontal = 1;
place = (-81,72);
type = Stem;
},
{
horizontal = 1;
place = (674,72);
type = Stem;
},
{
place = (58,184);
type = Stem;
},
{
place = (160,82);
type = Stem;
}
);
layerId = m01;
shapes = (
{
closed = 1;
nodes = (
(209,-55,l),
(209,722,l),
(45,722,l),
(45,667,l),
(149,667,l),
(149,0,l),
(45,0,l),
(45,-55,l)
);
}
);
width = 254;
},
{
layerId = m002;
shapes = (
{
closed = 1;
nodes = (
(269,-85,l),
(269,752,l),
(25,752,l),
(25,637,l),
(129,637,l),
(129,30,l),
(25,30,l),
(25,-85,l)
);
}
);
width = 284;
}
);
metricRight = "=H";
note = bracketright;
unicode = 93;
userData = {
KernOnSpecialSpacing = {
L = parenthesis;
R = NoKerning;
};
};
}
{
glyphname = asciicircum;
kernLeft = KO_asciicircum;
kernRight = KO_asciicircum;
layers = (
{
layerId = m01;
shapes = (
{
closed = 1;
nodes = (
(300,417,l),
(360,417,l),
(240,667,l),
(170,667,l)
);
},
{
closed = 1;
nodes = (
(170,667,l),
(50,417,l),
(110,417,l),
(240,667,l)
);
}
);
width = 410;
},
{
layerId = m002;
shapes = (
{
closed = 1;
nodes = (
(245,417,l),
(385,417,l),
(285,667,l),
(145,667,l)
);
},
{
closed = 1;
nodes = (
(125,667,l),
(25,417,l),
(165,417,l),
(265,667,l)
);
}
);
width = 410;
}
);
metricRight = "=|";
unicode = 94;
userData = {
KernOnSpecialSpacing = {
L = math;
R = math;
};
};
}
{
glyphname = underscore;
kernLeft = KO_underscore;
kernRight = KO_underscore;
layers = (
{
hints = (
{
horizontal = 1;
place = (-85,66);
type = Stem;
}
);
layerId = m01;
shapes = (
{
closed = 1;
nodes = (
(45,-77,l),
(433,-77,l),
(433,-28,l),
(45,-28,l)
);
}
);
width = 478;
},
{
layerId = m002;
shapes = (
{
closed = 1;
nodes = (
(15,-122,l),
(483,-122,l),
(483,17,l),
(15,17,l)
);
}
);
width = 498;
}
);
metricLeft = "=H";
metricRight = "=|";
note = underscore;
unicode = 95;
userData = {
KernOnSpecialSpacing = {
L = underscore;
R = underscore;
};
};
}
{
glyphname = a;
kernLeft = KO_a;
kernRight = KO_n;
layers = (
{
anchors = (
{
name = bottom;
pos = (248,0);
},
{
name = ogonek;
pos = (470,0);
},
{
name = top;
pos = (255,500);
}
);
layerId = m002;
shapes = (
{
closed = 1;
nodes = (
(240,107,l),
(215,107,o),
(195,122,o),
(195,153,cs),
(195,193,o),
(215,220,o),
(290,220,c),
(290,305,l),
(265,305,l),
(103,305,o),
(15,259,o),
(15,153,cs),
(15,61,o),
(77,-8,o),
(180,-8,c)
);
},
{
closed = 1;
nodes = (
(75,363,o),
(163,392,o),
(225,392,c),
(255,508,l),
(144,508,o),
(15,455,o),
(15,455,c),
(57,353,l)
);
},
{
closed = 1;
nodes = (
(470,302,ls),
(470,434,o),
(407,508,o),
(255,508,c),
(225,392,l),
(281,392,o),
(290,370,o),
(290,305,c),
(470,220,l)
);
},
{
closed = 1;
nodes = (
(400,180,o),
(275,107,o),
(240,107,c),
(180,-8,l),
(291,-8,o),
(400,180,o),
(400,180,c),
(400,180,l)
);
},
{
closed = 1;
nodes = (
(470,220,l),
(290,305,l),
(290,60,l),
(470,45,l)
);
},
{
closed = 1;
nodes = (
(290,0,l),
(470,0,l),
(470,140,l),
(290,60,l)
);
},
{
pos = (470,0);
ref = _serif.I.BR;
},
{
pos = (15,455);
ref = _serif.a.TL;
}
);
width = 545;
},
{
anchors = (
{
name = bottom;
pos = (230,0);
},
{
name = ogonek;
pos = (420,0);
},
{
name = top;
pos = (225,500);
}
);
layerId = m01;
shapes = (
{
closed = 1;
nodes = (
(230,47,l),
(146,47,o),
(105,92,o),
(105,153,cs),
(105,223,o),
(176,250,o),
(360,250,c),
(360,305,l),
(335,305,l),
(133,305,o),
(45,259,o),
(45,153,cs),
(45,61,o),
(107,-8,o),
(230,-8,c)
);
},
{
closed = 1;
nodes = (
(105,423,o),
(153,452,o),
(225,452,c),
(225,508,l),
(134,508,o),
(60,455,o),
(60,455,cs),
(87,413,l)
);
},
{
closed = 1;
nodes = (
(420,302,ls),
(420,434,o),
(371,508,o),
(225,508,c),
(225,452,l),
(335,452,o),
(360,407,o),
(360,305,c),
(420,250,l)
);
},
{
closed = 1;
nodes = (
(388,160,o),
(322,47,o),
(230,47,c),
(230,-8,l),
(341,-8,o),
(420,140,o),
(420,140,c),
(388,160,l)
);
},
{
closed = 1;
nodes = (
(420,250,l),
(360,305,l),
(360,60,l),
(420,45,l)
);
},
{
closed = 1;
nodes = (
(360,0,l),
(420,0,l),
(420,140,l),
(360,60,l)
);
},
{
pos = (420,0);
ref = _serif.I.BR;
},
{
pos = (60,455);
ref = _serif.a.TL;
}
);
width = 495;
}
);
unicode = 97;
userData = {
KernOnName = a;
};
}
{
glyphname = b;
kernLeft = KO_b;
kernRight = KO_p;
layers = (
{
anchors = (
{
name = bottom;
pos = (251,0);
},
{
name = center;
pos = (251,250);
},
{
name = top;
pos = (251,500);
}
);
layerId = m01;
shapes = (
{
closed = 1;
nodes = (
(130,700,l),
(70,700,l),
(70,70,l),
(130,60,l)
);
},
{
closed = 1;
nodes = (
(70,70,l),
(70,0,l),
(100,0,l),
(130,60,l)
);
},
{
closed = 1;
nodes = (
(70,140,l),
(70,140,o),
(149,-8,o),
(260,-8,c),
(260,47,l),
(168,47,o),
(102,150,o),
(102,150,c)
);
},
{
closed = 1;
nodes = (
(102,350,o),
(168,452,o),
(260,452,c),
(260,508,l),
(149,508,o),
(70,360,o),
(70,360,c),
(102,350,l)
);
},
{
closed = 1;
nodes = (
(371,452,o),
(403,354,o),
(403,250,cs),
(403,145,o),
(371,47,o),
(260,47,c),
(260,-8,l),
(406,-8,o),
(465,121,o),
(465,250,cs),
(465,379,o),
(406,508,o),
(260,508,c),
(260,452,l)
);
},
{
pos = (70,700);
ref = _serif.I.TL;
}
);
width = 495;
},
{
anchors = (
{
name = bottom;
pos = (268,0);
},
{
name = center;
pos = (268,250);
},
{
name = top;
pos = (268,500);
}
);
layerId = m002;
shapes = (
{
closed = 1;
nodes = (
(220,700,l),
(40,700,l),
(40,70,l),
(220,60,l)
);
},
{
closed = 1;
nodes = (
(40,70,l),
(40,0,l),
(190,0,l),
(220,60,l)
);
},
{
closed = 1;
nodes = (
(110,170,l),
(110,170,o),
(219,-8,o),
(330,-8,c),
(270,107,l),
(235,107,o),
(110,170,o),
(110,170,c)
);
},
{
closed = 1;
nodes = (
(110,330,o),
(235,392,o),
(270,392,c),
(330,508,l),
(219,508,o),
(110,330,o),
(110,330,c),
(110,330,l)
);
},
{
closed = 1;
nodes = (
(331,392,o),
(333,294,o),
(333,250,cs),
(333,205,o),
(331,107,o),
(270,107,c),
(330,-8,l),
(456,-8,o),
(515,121,o),
(515,250,cs),
(515,379,o),
(456,508,o),
(330,508,c),
(270,392,l)
);
},
{
pos = (40,700);
ref = _serif.I.TL;
}
);
width = 530;
}
);
metricRight = "=o";
unicode = 98;
userData = {
KernOnName = b;
};
}
{
glyphname = c;
kernLeft = KO_e;
kernRight = KO_c;
layers = (
{
anchors = (
{
name = bottom;
pos = (234,0);
},
{
name = top;
pos = (234,500);
}
);
layerId = m01;
shapes = (
{
closed = 1;
nodes = (
(235,47,l),
(124,47,o),
(92,145,o),
(92,250,cs),
(92,354,o),
(124,453,o),
(235,453,c),
(235,508,l),
(89,508,o),
(30,379,o),
(30,250,cs),
(30,121,o),
(89,-8,o),
(235,-8,c)
);
},
{
closed = 1;
nodes = (
(308,-8,o),
(368,32,o),
(400,55,c),
(365,99,l),
(339,79,o),
(297,47,o),
(234,47,c),
(234,-8,l)
);
},
{
closed = 1;
nodes = (
(400,444,l),
(369,467,o),
(308,508,o),
(234,508,c),
(234,453,l),
(296,453,o),
(338,422,o),
(365,402,c)
);
},
{
pos = (400,55);
ref = _serif.s.BR;
},
{
pos = (400,444);
ref = _serif.s.TR;
}
);
width = 445;
},
{
anchors = (
{
name = bottom;
pos = (262,0);
},
{
name = top;
pos = (262,500);
}
);
layerId = m002;
shapes = (
{
closed = 1;
nodes = (
(260,107,l),
(197,107,o),
(197,205,o),
(197,250,c),
(197,294,o),
(197,392,o),
(260,392,c),
(260,508,l),
(74,508,o),
(15,379,o),
(15,250,c),
(15,121,o),
(74,-8,o),
(260,-8,c)
);
},
{
closed = 1;
nodes = (
(373,-8,o),
(424,32,o),
(455,55,c),
(400,140,l),
(363,120,o),
(310,107,o),
(259,107,c),
(259,-8,l)
);
},
{
closed = 1;
nodes = (
(455,445,l),
(424,468,o),
(374,508,o),
(260,508,c),
(260,392,l),
(310,392,o),
(363,380,o),
(400,360,c)
);
},
{
pos = (455,55);
ref = _serif.s.BR;
},
{
pos = (455,445);
ref = _serif.s.TR;
}
);
width = 485;
}
);
metricLeft = "=o";
unicode = 99;
}
{
glyphname = e;
kernLeft = KO_e;
kernRight = KO_e;
layers = (
{
anchors = (
{
name = bottom;
pos = (235,0);
},
{
name = ogonek;
pos = (400,45);
},
{
name = top;
pos = (235,500);
}
);
layerId = m01;
shapes = (
{
closed = 1;
nodes = (
(89,508,o),
(30,379,o),
(30,250,c),
(90,225,l),
(90,354,o),
(124,453,o),
(235,453,c),
(235,508,l)
);
},
{
closed = 1;
nodes = (
(373,87,o),
(307,48,o),
(235,48,c),
(235,-8,l),
(326,-8,o),
(400,45,o),
(400,45,c),
(373,87,l)
);
},
{
closed = 1;
nodes = (
(30,250,ls),
(30,121,o),
(89,-8,o),
(235,-8,c),
(235,48,l),
(125,48,o),
(90,145,o),
(90,225,c),
(30,250,l)
);
},
{
closed = 1;
nodes = (
(74,225,l),
(415,225,l),
(405,275,l),
(74,275,l)
);
},
{
closed = 1;
nodes = (
(235,453,l),
(356,453,o),
(353,354,o),
(353,225,c),
(415,225,l),
(415,379,o),
(391,508,o),
(235,508,c)
);
}
);
width = 475;
},
{
anchors = (
{
name = bottom;
pos = (230,0);
},
{
name = ogonek;
pos = (470,45);
},
{
name = top;
pos = (260,500);
}
);
layerId = m002;
shapes = (
{
closed = 1;
nodes = (
(74,508,o),
(15,379,o),
(15,250,c),
(195,195,l),
(195,314,o),
(200,393,o),
(250,393,c),
(260,508,l)
);
},
{
closed = 1;
nodes = (
(428,147,o),
(342,108,o),
(260,108,c),
(230,-8,l),
(381,-8,o),
(470,45,o),
(470,45,cs),
(428,147,l)
);
},
{
closed = 1;
nodes = (
(15,250,ls),
(15,121,o),
(78,-8,o),
(230,-8,c),
(260,108,l),
(200,108,o),
(195,145,o),
(195,195,c),
(15,250,l)
);
},
{
closed = 1;
nodes = (
(99,195,l),
(470,195,l),
(460,305,l),
(99,305,l)
);
},
{
closed = 1;
nodes = (
(250,393,l),
(300,393,o),
(298,314,o),
(298,195,c),
(470,195,l),
(470,369,o),
(446,508,o),
(260,508,c)
);
}
);
width = 500;
}
);
metricLeft = "=o";
unicode = 101;
userData = {
KernOnName = e;
};
}
{
glyphname = g;
kernLeft = KO_g;
kernRight = KO_g;
layers = (
{
anchors = (
{
name = bottom;
pos = (225,-200);
},
{
name = top;
pos = (220,500);
}
);
layerId = m01;
shapes = (
{
closed = 1;
nodes = (
(365,-208,o),
(430,-145,o),
(430,-50,cs),
(430,55,o),
(360,72,o),
(220,60,cs),
(80,48,o),
(77,71,o),
(163,202,c),
(132,215,l),
(103,173,o),
(55,115,o),
(55,70,cs),
(55,25,o),
(56,-8,o),
(220,0,c),
(348,6,o),
(368,-10,o),
(368,-50,cs),
(368,-90,o),
(353,-153,o),
(225,-153,c),
(225,-208,l)
);
},
{
closed = 1;
nodes = (
(225,-153,l),
(133,-153,o),
(88,-121,o),
(70,-111,c),
(45,-155,l),
(45,-155,o),
(114,-208,o),
(225,-208,c)
);
},
{
closed = 1;
nodes = (
(330,158,o),
(395,238,o),
(395,333,c),
(395,428,o),
(330,508,o),
(220,508,cs),
(110,508,o),
(45,428,o),
(45,333,cs),
(45,238,o),
(110,158,o),
(220,158,cs)
);
},
{
closed = 1;
nodes = (
(147,208,o),
(107,263,o),
(107,333,cs),
(107,403,o),
(147,458,o),
(220,458,cs),
(293,458,o),
(333,403,o),
(333,333,cs),
(333,263,o),
(293,208,o),
(220,208,cs)
);
},
{
closed = 1;
nodes = (
(395,333,l),
(395,500,l),
(360,500,l),
(360,333,l)
);
},
{
pos = (395,500);
ref = _serif.I.TR;
},
{
pos = (45,-155);
ref = _serif.s.BL;
}
);
width = 480;
},
{
anchors = (
{
name = bottom;
pos = (235,-200);
},
{
name = top;
pos = (229,500);
}
);
layerId = m002;
shapes = (
{
closed = 1;
nodes = (
(395,-208,o),
(475,-135,o),
(475,-40,cs),
(475,75,o),
(410,118,o),
(230,100,cs),
(130,90,o),
(127,103,o),
(183,202,c),
(142,245,l),
(93,203,o),
(25,115,o),
(25,70,cs),
(25,25,o),
(26,-25,o),
(230,-10,cs),
(298,-5,o),
(328,-10,o),
(328,-40,c),
(328,-70,o),
(303,-93,o),
(235,-93,c),
(235,-208,l)
);
},
{
closed = 1;
nodes = (
(235,-93,l),
(123,-93,o),
(70,-61,o),
(70,-61,cs),
(15,-155,l),
(15,-155,o),
(84,-208,o),
(235,-208,c)
);
},
{
closed = 1;
nodes = (
(380,158,o),
(445,238,o),
(445,333,cs),
(445,428,o),
(380,508,o),
(230,508,cs),
(80,508,o),
(15,428,o),
(15,333,cs),
(15,238,o),
(80,158,o),
(230,158,cs)
);
},
{
closed = 1;
nodes = (
(197,263,o),
(182,293,o),
(182,333,c),
(182,373,o),
(197,403,o),
(230,403,cs),
(263,403,o),
(278,373,o),
(278,333,c),
(278,293,o),
(263,263,o),
(230,263,cs)
);
},
{
closed = 1;
nodes = (
(445,333,l),
(445,500,l),
(410,500,l),
(410,333,l)
);
},
{
pos = (445,500);
ref = _serif.I.TR;
},
{
pos = (15,-155);
ref = _serif.s.BL;
}
);
width = 520;
}
);
unicode = 103;
userData = {
KernOnName = g;
};
}
{
glyphname = h;
kernLeft = KO_l;
kernRight = KO_n;
layers = (
{
anchors = (
{
name = bottom;
pos = (253,0);
},
{
name = center;
pos = (253,350);
},
{
name = top;
pos = (253,670);
}
);
layerId = m01;
shapes = (
{
closed = 1;
nodes = (
(435,250,l),
(435,302,ls),
(435,434,o),
(372,508,o),
(260,508,c),
(260,453,l),
(340,453,o),
(375,407,o),
(375,250,c)
);
},
{
closed = 1;
nodes = (
(130,700,l),
(70,700,l),
(70,0,l),
(130,0,l)
);
},
{
closed = 1;
nodes = (
(435,0,l),
(435,250,l),
(375,250,l),
(375,0,l)
);
},
{
closed = 1;
nodes = (
(102,350,o),
(168,453,o),
(260,453,c),
(260,508,l),
(149,508,o),
(70,360,o),
(70,360,c),
(102,350,l)
);
},
{
pos = (70,700);
ref = _serif.I.TL;
},
{
pos = (435,0);
ref = _serif.I.BR;
},
{
pos = (130,0);
ref = _serif.I.BR;
},
{
pos = (70,0);
ref = _serif.I.BL;
}
);
width = 510;
},
{
anchors = (
{
name = bottom;
pos = (298,0);
},
{
name = center;
pos = (298,350);
},
{
name = top;
pos = (298,690);
}
);
layerId = m002;
shapes = (
{
closed = 1;
nodes = (
(520,250,l),
(520,302,ls),
(520,434,o),
(457,508,o),
(365,508,c),
(305,373,l),
(340,373,o),
(340,327,o),
(340,250,c)
);
},
{
closed = 1;
nodes = (
(255,700,l),
(75,700,l),
(75,0,l),
(255,0,l)
);
},
{
closed = 1;
nodes = (
(520,0,l),
(520,250,l),
(340,250,l),
(340,0,l)
);
},
{
closed = 1;
nodes = (
(145,330,o),
(270,373,o),
(305,373,c),
(365,508,l),
(254,508,o),
(145,330,o),
(145,330,c),
(145,330,l)
);
},
{
pos = (75,700);
ref = _serif.I.TL;
},
{
pos = (520,0);
ref = _serif.I.BR;
},
{
pos = (255,0);
ref = _serif.I.BR;
},
{
pos = (75,0);
ref = _serif.I.BL;
}
);
width = 595;
}
);
metricRight = "=n";
unicode = 104;
userData = {
KernOnName = h;
};
}
{
glyphname = i;
kernLeft = KO_i;
kernRight = KO_i;
layers = (
{
layerId = m01;
shapes = (
{
closed = 1;
nodes = (
(145,0,l),
(145,500,l),
(85,500,l),
(85,0,l)
);
},
{
closed = 1;
nodes = (
(140,585,o),
(160,605,o),
(160,630,cs),
(160,655,o),
(140,675,o),
(115,675,cs),
(90,675,o),
(70,655,o),
(70,630,cs),
(70,605,o),
(90,585,o),
(115,585,cs)
);
},
{
pos = (85,500);
ref = _serif.Spur;
},
{
pos = (85,0);
ref = _serif.I.BL;
},
{
pos = (145,0);
ref = _serif.I.BR;
}
);
width = 230;
},
{
layerId = m002;
shapes = (
{
closed = 1;
nodes = (
(265,0,l),
(265,500,l),
(85,500,l),
(85,0,l)
);
},
{
closed = 1;
nodes = (
(230,530,o),
(275,574,o),
(275,630,cs),
(275,685,o),
(230,730,o),
(175,730,c),
(119,730,o),
(75,685,o),
(75,630,cs),
(75,574,o),
(119,530,o),
(175,530,cs)
);
},
{
pos = (85,500);
ref = _serif.Spur;
},
{
pos = (85,0);
ref = _serif.I.BL;
},
{
pos = (265,0);
ref = _serif.I.BR;
}
);
width = 340;
}
);
metricLeft = "=n";
unicode = 105;
userData = {
KernOnName = i;
};
}
{
glyphname = j;
kernLeft = KO_j;
kernRight = KO_j;
layers = (
{
layerId = m01;
shapes = (
{
closed = 1;
nodes = (
(130,585,o),
(150,605,o),
(150,630,cs),
(150,655,o),
(130,675,o),
(105,675,cs),
(80,675,o),
(60,655,o),
(60,630,cs),
(60,605,o),
(80,585,o),
(105,585,cs)
);
},
{
closed = 1;
nodes = (
(75,500,l),
(75,-33,l),
(75,-125,o),
(57,-153,o),
(2,-153,cs),
(-10,-153,o),
(-20,-152,o),
(-35,-150,c),
(-45,-200,l),
(-26,-204,o),
(-15,-205,o),
(2,-205,cs),
(102,-205,o),
(135,-154,o),
(135,0,c),
(135,500,l)
);
},
{
pos = (75,500);
ref = _serif.Spur;
}
);
width = 210;
},
{
layerId = m002;
shapes = (
{
closed = 1;
nodes = (
(230,530,o),
(275,574,o),
(275,630,cs),
(275,685,o),
(230,730,o),
(175,730,cs),
(119,730,o),
(75,685,o),
(75,630,cs),
(75,574,o),
(119,530,o),
(175,530,cs)
);
},
{
closed = 1;
nodes = (
(85,500,l),
(85,-33,l),
(85,-65,o),
(84,-93,o),
(52,-93,cs),
(40,-93,o),
(30,-92,o),
(15,-90,c),
(5,-200,l),
(24,-204,o),
(55,-207,o),
(92,-207,cs),
(232,-207,o),
(265,-154,o),
(265,0,c),
(265,500,l)
);
},
{
pos = (85,500);
ref = _serif.Spur;
}
);
width = 305;
}
);
unicode = 106;
}
{
glyphname = k;
kernLeft = KO_k;
kernRight = KO_k;
layers = (
{
anchors = (
{
name = bottom;
pos = (250,0);
},
{
name = top;
pos = (250,700);
}
);
layerId = m01;
shapes = (
{
closed = 1;
nodes = (
(460,500,l),
(380,500,l),
(145,250,l),
(145,170,l)
);
},
{
closed = 1;
nodes = (
(145,700,l),
(85,700,l),
(85,0,l),
(145,0,l)
);
},
{
closed = 1;
nodes = (
(460,0,l),
(253,320,l),
(218,270,l),
(390,0,l)
);
},
{
pos = (85,700);
ref = _serif.I.TL;
},
{
pos = (410,500);
ref = _serif.I.TR;
},
{
pos = (420,0);
ref = _serif.I.BR;
},
{
pos = (145,0);
ref = _serif.I.BR;
},
{
pos = (85,0);
ref = _serif.I.BL;
}
);
width = 505;
},
{
anchors = (
{
name = bottom;
pos = (280,0);
},
{
name = top;
pos = (280,700);
}
);
layerId = m002;
shapes = (
{
closed = 1;
nodes = (
(550,500,l),
(360,500,l),
(185,280,l),
(255,150,l)
);
},
{
closed = 1;
nodes = (
(255,700,l),
(75,700,l),
(75,0,l),
(255,0,l)
);
},
{
closed = 1;
nodes = (
(550,0,l),
(368,340,l),
(218,330,l),
(370,0,l)
);
},
{
pos = (75,700);
ref = _serif.I.TL;
},
{
pos = (480,500);
ref = _serif.I.TR;
},
{
pos = (490,0);
ref = _serif.I.BR;
},
{
pos = (235,0);
ref = _serif.I.BR;
},
{
pos = (75,0);
ref = _serif.I.BL;
}
);
width = 560;
}
);
unicode = 107;
userData = {
KernOnName = k;
};
}
{
glyphname = l;
kernLeft = KO_l;
kernRight = KO_l;
layers = (
{
anchors = (
{
name = bottom;
pos = (105,0);
},
{
name = center;
pos = (105,350);
},
{
name = top;
pos = (105,700);
},
{
name = topright;
pos = (167,700);
}
);
layerId = m01;
shapes = (
{
closed = 1;
nodes = (
(130,0,l),
(130,700,l),
(70,700,l),
(70,0,l)
);
},
{
pos = (70,700);
ref = _serif.I.TL;
},
{
pos = (130,0);
ref = _serif.I.BR;
},
{
pos = (70,0);
ref = _serif.I.BL;
}
);
width = 205;
},
{
anchors = (
{
name = bottom;
pos = (165,0);
},
{
name = center;
pos = (165,350);
},
{
name = top;
pos = (165,700);
},
{
name = topright;
pos = (270,700);
}
);
layerId = m002;
shapes = (
{
closed = 1;
nodes = (
(255,0,l),
(255,700,l),
(75,700,l),
(75,0,l)
);
},
{
pos = (75,700);
ref = _serif.I.TL;
},
{
pos = (255,0);
ref = _serif.I.BR;
},
{
pos = (75,0);
ref = _serif.I.BL;
}
);
width = 330;
}
);
metricLeft = "=h";
metricRight = "=n";
unicode = 108;
userData = {
KernOnName = l;
};
}
{
glyphname = m;
kernLeft = KO_i;
kernRight = KO_n;
layers = (
{
anchors = (
{
name = bottom;
pos = (365,0);
},
{
name = top;
pos = (365,500);
}
);
layerId = m01;
shapes = (
{
closed = 1;
nodes = (
(112,350,o),
(168,453,o),
(245,453,c),
(245,508,l),
(152,508,o),
(85,360,o),
(85,360,c),
(112,350,l)
);
},
{
closed = 1;
nodes = (
(400,250,l),
(399,302,ls),
(396,434,o),
(336,508,o),
(244,508,c),
(244,453,l),
(304,453,o),
(340,407,o),
(340,250,c)
);
},
{
closed = 1;
nodes = (
(366,350,o),
(422,453,o),
(499,453,c),
(499,508,l),
(406,508,o),
(339,390,o),
(339,390,c),
(366,350,l)
);
},
{
pos = (85,0);
ref = _serif.I.BL;
},
{
pos = (145,0);
ref = _serif.I.BR;
},
{
pos = (655,0);
ref = _serif.I.BR;
},
{
closed = 1;
nodes = (
(145,0,l),
(145,500,l),
(85,500,l),
(85,0,l)
);
},
{
closed = 1;
nodes = (
(400,0,l),
(400,250,l),
(340,250,l),
(340,0,l)
);
},
{
closed = 1;
nodes = (
(655,0,l),
(655,250,l),
(595,250,l),
(595,0,l)
);
},
{
closed = 1;
nodes = (
(655,250,l),
(654,302,ls),
(651,434,o),
(591,508,o),
(499,508,c),
(499,453,l),
(559,453,o),
(595,407,o),
(595,250,c)
);
},
{
pos = (85,500);
ref = _serif.Spur;
},
{
pos = (400,0);
ref = _serif.I.BR;
}
);
width = 730;
},
{
anchors = (
{
name = bottom;
pos = (440,0);
},
{
name = top;
pos = (440,500);
}
);
layerId = m002;
shapes = (
{
closed = 1;
nodes = (
(182,330,o),
(288,373,o),
(325,373,c),
(395,508,l),
(282,508,o),
(182,330,o),
(182,330,c),
(182,330,l)
);
},
{
closed = 1;
nodes = (
(530,250,l),
(529,302,ls),
(526,434,o),
(526,508,o),
(394,508,c),
(324,373,l),
(350,373,o),
(350,327,o),
(350,250,c)
);
},
{
closed = 1;
nodes = (
(446,330,o),
(563,373,o),
(589,373,c),
(659,508,l),
(566,508,o),
(446,330,o),
(446,330,c),
(446,330,l)
);
},
{
pos = (85,0);
ref = _serif.I.BL;
},
{
pos = (265,0);
ref = _serif.I.BR;
},
{
pos = (795,0);
ref = _serif.I.BR;
},
{
closed = 1;
nodes = (
(265,0,l),
(265,500,l),
(85,500,l),
(85,0,l)
);
},
{
closed = 1;
nodes = (
(530,0,l),
(530,250,l),
(350,250,l),
(350,0,l)
);
},
{
closed = 1;
nodes = (
(795,0,l),
(795,250,l),
(615,250,l),
(615,0,l)
);
},
{
closed = 1;
nodes = (
(795,250,l),
(794,302,ls),
(791,434,o),
(791,508,o),
(659,508,c),
(589,373,l),
(615,373,o),
(615,327,o),
(615,250,c)
);
},
{
pos = (85,500);
ref = _serif.Spur;
},
{
pos = (530,0);
ref = _serif.I.BR;
}
);
width = 870;
}
);
metricLeft = "=n";
metricRight = "=n";
unicode = 109;
}
{
glyphname = n;
kernLeft = KO_i;
kernRight = KO_n;
layers = (
{
anchors = (
{
name = bottom;
pos = (263,0);
},
{
name = top;
pos = (263,500);
}
);
layerId = m01;
shapes = (
{
closed = 1;
nodes = (
(449,302,ls),
(446,434,o),
(386,508,o),
(274,508,c),
(274,453,l),
(354,453,o),
(390,407,o),
(390,250,c),
(450,250,l)
);
},
{
closed = 1;
nodes = (
(85,0,l),
(145,0,l),
(145,500,l),
(85,500,l)
);
},
{
closed = 1;
nodes = (
(390,0,l),
(450,0,l),
(450,250,l),
(390,250,l)
);
},
{
closed = 1;
nodes = (
(117,350,o),
(183,453,o),
(275,453,c),
(275,508,l),
(164,508,o),
(85,360,o),
(85,360,c),
(117,350,l)
);
},
{
pos = (85,500);
ref = _serif.Spur;
},
{
pos = (145,0);
ref = _serif.I.BR;
},
{
pos = (85,0);
ref = _serif.I.BL;
},
{
pos = (450,0);
ref = _serif.I.BR;
}
);
width = 525;
},
{
anchors = (
{
name = bottom;
pos = (308,0);
},
{
name = top;
pos = (308,500);
}
);
layerId = m002;
shapes = (
{
closed = 1;
nodes = (
(530,302,ls),
(530,435,o),
(466,508,o),
(374,508,c),
(314,373,l),
(350,373,o),
(350,327,o),
(350,250,c),
(530,250,l)
);
},
{
closed = 1;
nodes = (
(85,0,l),
(265,0,l),
(265,500,l),
(85,500,l)
);
},
{
closed = 1;
nodes = (
(350,0,l),
(530,0,l),
(530,250,l),
(350,250,l)
);
},
{
closed = 1;
nodes = (
(155,330,o),
(280,373,o),
(315,373,c),
(375,508,l),
(264,508,o),
(155,330,o),
(155,330,c),
(155,330,l)
);
},
{
pos = (85,500);
ref = _serif.Spur;
},
{
pos = (265,0);
ref = _serif.I.BR;
},
{
pos = (85,0);
ref = _serif.I.BL;
},
{
pos = (530,0);
ref = _serif.I.BR;
}
);
width = 605;
}
);
unicode = 110;
userData = {
KernOnName = n;
};
}
{
glyphname = o;
kernLeft = KO_e;
kernRight = KO_o;
layers = (
{
anchors = (
{
name = bottom;
pos = (235,0);
},
{
name = center;
pos = (235,250);
},
{
name = ogonek;
pos = (433,10);
},
{
name = top;
pos = (235,500);
},
{
name = topright;
pos = (462,500);
}
);
layerId = m01;
shapes = (
{
closed = 1;
nodes = (
(30,121,o),
(89,-8,o),
(235,-8,cs),
(381,-8,o),
(440,121,o),
(440,250,cs),
(440,379,o),
(381,508,o),
(235,508,cs),
(89,508,o),
(30,379,o),
(30,250,cs)
);
},
{
closed = 1;
nodes = (
(92,354,o),
(124,452,o),
(235,452,cs),
(346,452,o),
(378,354,o),
(378,250,cs),
(378,145,o),
(346,47,o),
(235,47,cs),
(124,47,o),
(92,145,o),
(92,250,cs)
);
}
);
width = 470;
},
{
anchors = (
{
name = bottom;
pos = (260,0);
},
{
name = center;
pos = (260,250);
},
{
name = ogonek;
pos = (468,10);
},
{
name = top;
pos = (260,500);
},
{
name = topright;
pos = (500,500);
}
);
layerId = m002;
shapes = (
{
closed = 1;
nodes = (
(15,121,o),
(74,-8,o),
(260,-8,cs),
(446,-8,o),
(505,121,o),
(505,250,cs),
(505,379,o),
(446,508,o),
(260,508,cs),
(74,508,o),
(15,379,o),
(15,250,cs)
);
},
{
closed = 1;
nodes = (
(197,294,o),
(199,392,o),
(260,392,cs),
(321,392,o),
(323,294,o),
(323,250,cs),
(323,205,o),
(321,107,o),
(260,107,cs),
(199,107,o),
(197,205,o),
(197,250,cs)
);
}
);
width = 520;
}
);
metricRight = "=|";
unicode = 111;
userData = {
KernOnName = o;
};
}
{
glyphname = p;
kernLeft = KO_p;
kernRight = KO_p;
layers = (
{
anchors = (
{
name = bottom;
pos = (255,0);
},
{
name = top;
pos = (255,500);
}
);
layerId = m01;
shapes = (
{
closed = 1;
nodes = (
(85,500,l),
(85,-200,l),
(145,-200,l),
(145,500,l)
);
},
{
closed = 1;
nodes = (
(117,350,o),
(183,453,o),
(275,453,c),
(275,508,l),
(164,508,o),
(85,360,o),
(85,360,c),
(117,350,l)
);
},
{
closed = 1;
nodes = (
(85,140,l),
(85,140,o),
(164,-8,o),
(275,-8,c),
(275,48,l),
(183,48,o),
(117,150,o),
(117,150,c)
);
},
{
closed = 1;
nodes = (
(275,-8,l),
(421,-8,o),
(480,121,o),
(480,250,cs),
(480,379,o),
(421,508,o),
(275,508,c),
(275,453,l),
(386,453,o),
(418,355,o),
(418,250,cs),
(418,146,o),
(386,48,o),
(275,48,c)
);
},
{
pos = (85,500);
ref = _serif.Spur;
},
{
pos = (85,-200);
ref = _serif.I.BL;
},
{
pos = (145,-200);
ref = _serif.I.BR;
}
);
width = 510;
},
{
anchors = (
{
name = bottom;
pos = (288,0);
},
{
name = top;
pos = (288,500);
}
);
layerId = m002;
shapes = (
{
closed = 1;
nodes = (
(85,500,l),
(85,-200,l),
(262,-200,l),
(265,500,l)
);
},
{
closed = 1;
nodes = (
(155,330,o),
(280,393,o),
(315,393,c),
(375,508,l),
(264,508,o),
(155,330,o),
(155,330,c),
(155,330,l)
);
},
{
closed = 1;
nodes = (
(155,170,l),
(155,170,o),
(264,-8,o),
(375,-8,c),
(315,108,l),
(280,108,o),
(155,170,o),
(155,170,c)
);
},
{
closed = 1;
nodes = (
(375,-8,l),
(501,-8,o),
(560,121,o),
(560,250,cs),
(560,379,o),
(501,508,o),
(375,508,c),
(315,393,l),
(376,393,o),
(378,295,o),
(378,250,cs),
(378,206,o),
(376,108,o),
(315,108,c)
);
},
{
pos = (85,500);
ref = _serif.Spur;
},
{
pos = (85,-200);
ref = _serif.I.BL;
},
{
pos = (262,-200);
ref = _serif.I.BR;
}
);
width = 575;
}
);
metricLeft = "=n";
metricRight = "=o";
unicode = 112;
userData = {
KernOnName = p;
};
}
{
glyphname = r;
kernLeft = KO_i;
kernRight = KO_r;
layers = (
{
anchors = (
{
name = bottom;
pos = (182,0);
},
{
name = top;
pos = (182,500);
}
);
layerId = m01;
shapes = (
{
closed = 1;
nodes = (
(274,508,l),
(274,453,l)
);
},
{
closed = 1;
nodes = (
(85,0,l),
(145,0,l),
(145,500,l),
(85,500,l)
);
},
{
closed = 1;
nodes = (
(331,500,l),
(314,505,o),
(295,508,o),
(274,508,c),
(274,453,l),
(289,453,o),
(302,451,o),
(314,448,c)
);
},
{
closed = 1;
nodes = (
(117,350,o),
(183,453,o),
(275,453,c),
(275,508,l),
(164,508,o),
(85,360,o),
(85,360,c),
(117,350,l)
);
},
{
pos = (85,500);
ref = _serif.Spur;
},
{
pos = (85,0);
ref = _serif.I.BL;
},
{
pos = (145,0);
ref = _serif.I.BR;
},
{
pos = (331,500);
ref = _serif.r.TR;
}
);
width = 346;
},
{
anchors = (
{
name = bottom;
pos = (246,0);
},
{
name = top;
pos = (246,500);
}
);
layerId = m002;
shapes = (
{
closed = 1;
nodes = (
(374,508,l),
(314,373,l)
);
},
{
closed = 1;
nodes = (
(85,0,l),
(265,0,l),
(265,500,l),
(85,500,l)
);
},
{
closed = 1;
nodes = (
(441,493,l),
(424,501,o),
(395,508,o),
(374,508,c),
(314,373,l),
(342,373,o),
(366,365,o),
(394,348,c)
);
},
{
closed = 1;
nodes = (
(155,330,o),
(280,373,o),
(315,373,c),
(375,508,l),
(264,508,o),
(155,330,o),
(155,330,c),
(155,330,l)
);
},
{
pos = (85,500);
ref = _serif.Spur;
},
{
pos = (85,0);
ref = _serif.I.BL;
},
{
pos = (265,0);
ref = _serif.I.BR;
},
{
pos = (441,493);
ref = _serif.r.TR;
}
);
width = 441;
}
);
metricLeft = "=n";
unicode = 114;
userData = {
KernOnName = r;
};
}
{
glyphname = s;
kernLeft = KO_s;
kernRight = KO_s;
layers = (
{
anchors = (
{
name = bottom;
pos = (211,0);
},
{
name = top;
pos = (211,500);
}
);
layerId = m01;
shapes = (
{
closed = 1;
nodes = (
(334,-8,o),
(396,61,o),
(396,153,cs),
(396,239,o),
(340,275,o),
(211,290,c),
(211,232,l),
(298,220,o),
(336,201,o),
(336,153,cs),
(336,92,o),
(295,47,o),
(211,47,c),
(211,-8,l)
);
},
{
closed = 1;
nodes = (
(124,508,o),
(56,458,o),
(56,376,cs),
(56,294,o),
(115,246,o),
(211,232,c),
(211,290,l),
(149,298,o),
(116,327,o),
(116,376,cs),
(116,425,o),
(159,453,o),
(211,453,c),
(211,508,l)
);
},
{
closed = 1;
nodes = (
(77,32,o),
(137,-8,o),
(211,-8,c),
(211,47,l),
(148,47,o),
(106,79,o),
(80,99,c),
(45,55,l)
);
},
{
closed = 1;
nodes = (
(377,444,l),
(346,467,o),
(285,508,o),
(211,508,c),
(211,453,l),
(273,453,o),
(315,422,o),
(342,402,c)
);
},
{
pos = (45,55);
ref = _serif.s.BL;
},
{
pos = (377,444);
ref = _serif.s.TR;
}
);
width = 441;
},
{
anchors = (
{
name = bottom;
pos = (211,0);
},
{
name = top;
pos = (211,500);
}
);
layerId = m002;
shapes = (
{
closed = 1;
nodes = (
(361,-8,o),
(436,45,o),
(436,153,cs),
(436,255,o),
(377,305,o),
(241,320,c),
(191,202,l),
(236,196,o),
(256,182,o),
(256,153,cs),
(256,123,o),
(240,107,o),
(211,107,c),
(211,-8,l)
);
},
{
closed = 1;
nodes = (
(102,508,o),
(16,451,o),
(16,356,cs),
(16,272,o),
(83,213,o),
(191,202,c),
(241,320,l),
(211,324,o),
(196,335,o),
(196,356,cs),
(196,377,o),
(211,393,o),
(241,393,c),
(211,508,l)
);
},
{
closed = 1;
nodes = (
(37,32,o),
(97,-8,o),
(211,-8,c),
(211,107,l),
(148,107,o),
(122,123,o),
(80,159,c),
(5,55,l)
);
},
{
closed = 1;
nodes = (
(417,444,l),
(365,483,o),
(286,508,o),
(211,508,c),
(241,393,l),
(279,393,o),
(312,383,o),
(342,362,c)
);
},
{
pos = (5,55);
ref = _serif.s.BL;
},
{
pos = (417,444);
ref = _serif.s.TR;
}
);
width = 441;
}
);
metricRight = "=|";
unicode = 115;
userData = {
KernOnName = s;
};
}
{
glyphname = t;
kernLeft = KO_t;
kernRight = KO_t;
layers = (
{
anchors = (
{
name = bottom;
pos = (208,0);
},
{
name = center;
pos = (151,250);
},
{
name = top;
pos = (123,590);
},
{
name = topright;
pos = (290,700);
}
);
layerId = m01;
shapes = (
{
closed = 1;
nodes = (
(276,445,l),
(289,500,l),
(15,500,l),
(15,445,l)
);
},
{
closed = 1;
nodes = (
(248,48,o),
(238,47,o),
(226,47,cs),
(171,47,o),
(153,76,o),
(153,167,c),
(153,613,l),
(93,600,l),
(93,200,l),
(93,46,o),
(126,-5,o),
(226,-5,cs),
(243,-5,o),
(254,-4,o),
(273,0,c),
(263,50,l)
);
}
);
width = 304;
},
{
anchors = (
{
name = bottom;
pos = (261,0);
},
{
name = center;
pos = (167,250);
},
{
name = top;
pos = (167,600);
},
{
name = topright;
pos = (330,700);
}
);
layerId = m002;
shapes = (
{
closed = 1;
nodes = (
(350,380,l),
(350,500,l),
(0,500,l),
(0,380,l)
);
},
{
closed = 1;
nodes = (
(313,108,o),
(303,107,o),
(291,107,cs),
(258,107,o),
(257,136,o),
(257,167,c),
(257,620,l),
(77,600,l),
(77,200,l),
(77,46,o),
(141,-7,o),
(261,-7,cs),
(298,-7,o),
(319,-4,o),
(338,0,c),
(328,110,l)
);
}
);
width = 365;
}
);
unicode = 116;
userData = {
KernOnName = t;
};
}
{
glyphname = u;
kernLeft = KO_u;
kernRight = KO_u;
layers = (
{
anchors = (
{
name = bottom;
pos = (265,0);
},
{
name = ogonek;
pos = (450,0);
},
{
name = top;
pos = (265,500);
},
{
name = topright;
pos = (500,500);
}
);
layerId = m01;
shapes = (
{
closed = 1;
nodes = (
(86,198,ls),
(89,66,o),
(149,-8,o),
(261,-8,c),
(261,47,l),
(181,47,o),
(145,93,o),
(145,250,c),
(85,250,l)
);
},
{
closed = 1;
nodes = (
(450,500,l),
(390,500,l),
(390,60,l),
(450,140,l)
);
},
{
closed = 1;
nodes = (
(145,500,l),
(85,500,l),
(85,250,l),
(145,250,l)
);
},
{
closed = 1;
nodes = (
(390,0,l),
(450,0,l),
(450,140,l),
(390,65,l)
);
},
{
closed = 1;
nodes = (
(418,150,o),
(352,47,o),
(260,47,c),
(260,-8,l),
(371,-8,o),
(450,140,o),
(450,140,c),
(418,150,l)
);
},
{
pos = (450,0);
ref = _serif.I.BR;
},
{
pos = (85,500);
ref = _serif.Spur;
},
{
pos = (390,500);
ref = _serif.Spur;
}
);
width = 535;
},
{
anchors = (
{
name = bottom;
pos = (298,0);
},
{
name = ogonek;
pos = (520,0);
},
{
name = top;
pos = (298,500);
},
{
name = topright;
pos = (535,500);
}
);
layerId = m002;
shapes = (
{
closed = 1;
nodes = (
(76,198,ls),
(79,66,o),
(139,-8,o),
(231,-8,c),
(291,107,l),
(251,107,o),
(255,153,o),
(255,250,c),
(75,250,l)
);
},
{
closed = 1;
nodes = (
(520,500,l),
(340,500,l),
(340,60,l),
(520,140,l)
);
},
{
closed = 1;
nodes = (
(255,500,l),
(75,500,l),
(75,250,l),
(255,250,l)
);
},
{
closed = 1;
nodes = (
(340,0,l),
(520,0,l),
(520,140,l),
(340,60,l)
);
},
{
closed = 1;
nodes = (
(450,150,o),
(342,107,o),
(290,107,c),
(230,-8,l),
(341,-8,o),
(450,150,o),
(450,150,c),
(450,150,l)
);
},
{
pos = (520,0);
ref = _serif.I.BR;
},
{
pos = (75,500);
ref = _serif.Spur;
},
{
pos = (340,500);
ref = _serif.Spur;
}
);
width = 595;
}
);
metricRight = "=i";
unicode = 117;
userData = {
KernOnName = u;
};
}
{
glyphname = v;
kernLeft = KO_y;
kernRight = KO_v;
layers = (
{
layerId = m01;
shapes = (
{
closed = 1;
nodes = (
(25,500,l),
(192,0,l),
(266,0,l),
(433,500,l),
(369,500,l),
(229,58,l),
(89,500,l)
);
},
{
pos = (403,500);
ref = _serif.I.TR;
},
{
pos = (55,500);
ref = _serif.Spur;
},
{
pos = (369,500);
ref = _serif.Spur;
},
{
pos = (89,500);
ref = _serif.I.TR;
}
);
width = 458;
},
{
layerId = m002;
shapes = (
{
closed = 1;
nodes = (
(0,500,l),
(167,0,l),
(321,0,l),
(488,500,l),
(304,500,l),
(244,198,l),
(184,500,l)
);
},
{
pos = (478,500);
ref = _serif.I.TR;
},
{
pos = (40,500);
ref = _serif.Spur;
},
{
pos = (324,500);
ref = _serif.Spur;
},
{
pos = (164,500);
ref = _serif.I.TR;
}
);
width = 518;
}
);
metricRight = "=|";
unicode = 118;
userData = {
KernOnName = v;
};
}
{
glyphname = w;
kernLeft = KO_y;
kernRight = KO_w;
layers = (
{
anchors = (
{
name = bottom;
pos = (351,0);
},
{
name = top;
pos = (351,500);
}
);
layerId = m01;
shapes = (
{
closed = 1;
nodes = (
(530,0,l),
(667,500,l),
(603,500,l),
(493,58,l),
(383,500,l),
(324,500,l),
(456,0,l)
);
},
{
closed = 1;
nodes = (
(246,0,l),
(378,500,l),
(319,500,l),
(209,58,l),
(99,500,l),
(35,500,l),
(172,0,l)
);
},
{
pos = (55,500);
ref = _serif.Spur;
},
{
pos = (99,500);
ref = _serif.I.TR;
},
{
pos = (603,500);
ref = _serif.Spur;
},
{
pos = (637,500);
ref = _serif.I.TR;
}
);
width = 692;
},
{
anchors = (
{
name = bottom;
pos = (366,0);
},
{
name = top;
pos = (366,500);
}
);
layerId = m002;
shapes = (
{
closed = 1;
nodes = (
(585,0,l),
(722,500,l),
(558,500,l),
(508,198,l),
(438,500,l),
(299,500,l),
(431,0,l)
);
},
{
closed = 1;
nodes = (
(301,0,l),
(433,500,l),
(294,500,l),
(224,198,l),
(174,500,l),
(10,500,l),
(147,0,l)
);
},
{
pos = (40,500);
ref = _serif.Spur;
},
{
pos = (154,500);
ref = _serif.I.TR;
},
{
pos = (568,500);
ref = _serif.Spur;
},
{
pos = (692,500);
ref = _serif.I.TR;
}
);
width = 732;
}
);
metricLeft = "=v";
metricRight = "=v";
unicode = 119;
userData = {
KernOnName = w;
};
}
{
glyphname = x;
kernRight = KO_x;
layers = (
{
layerId = m01;
shapes = (
{
closed = 1;
nodes = (
(239,210,l),
(371,0,l),
(438,0,l),
(276,258,l),
(202,258,l),
(40,0,l),
(107,0,l)
);
},
{
closed = 1;
nodes = (
(40,500,l),
(202,258,l),
(276,258,l),
(438,500,l),
(370,500,l),
(239,306,l),
(107,500,l)
);
},
{
pos = (80,500);
ref = _serif.I.TL;
},
{
pos = (408,0);
ref = _serif.I.BR;
},
{
pos = (371,0);
ref = _serif.I.BL;
},
{
pos = (107,0);
ref = _serif.I.BR;
},
{
pos = (70,0);
ref = _serif.I.BL;
},
{
pos = (398,500);
ref = _serif.I.TR;
},
{
pos = (360,500);
ref = _serif.I.TL;
},
{
pos = (117,500);
ref = _serif.I.TR;
}
);
width = 478;
},
{
layerId = m002;
shapes = (
{
closed = 1;
nodes = (
(239,160,l),
(311,0,l),
(478,0,l),
(336,258,l),
(142,258,l),
(0,0,l),
(167,0,l)
);
},
{
closed = 1;
nodes = (
(0,500,l),
(142,258,l),
(336,258,l),
(478,500,l),
(310,500,l),
(239,356,l),
(167,500,l)
);
},
{
pos = (70,500);
ref = _serif.I.TL;
},
{
pos = (408,0);
ref = _serif.I.BR;
},
{
pos = (321,0);
ref = _serif.I.BL;
},
{
pos = (157,0);
ref = _serif.I.BR;
},
{
pos = (70,0);
ref = _serif.I.BL;
},
{
pos = (408,500);
ref = _serif.I.TR;
},
{
pos = (315,500);
ref = _serif.I.TL;
},
{
pos = (162,500);
ref = _serif.I.TR;
}
);
width = 478;
}
);
unicode = 120;
}
{
glyphname = y;
kernLeft = KO_y;
kernRight = KO_y;
layers = (
{
anchors = (
{
name = bottom;
pos = (229,0);
},
{
name = top;
pos = (229,500);
}
);
layerId = m01;
shapes = (
{
closed = 1;
nodes = (
(266,0,l),
(433,500,l),
(369,500,l),
(229,58,l),
(89,500,l),
(25,500,l),
(199,-23,l)
);
},
{
closed = 1;
nodes = (
(163,-205,o),
(213,-154,o),
(266,0,c),
(206,0,l),
(195,-33,l),
(163,-125,o),
(135,-145,o),
(80,-145,cs),
(68,-145,o),
(48,-144,o),
(34,-142,c),
(17,-200,l),
(35,-204,o),
(46,-205,o),
(63,-205,cs)
);
},
{
pos = (55,500);
ref = _serif.I.TL;
},
{
pos = (89,500);
ref = _serif.I.TR;
},
{
pos = (369,500);
ref = _serif.I.TL;
},
{
pos = (403,500);
ref = _serif.I.TR;
},
{
pos = (17,-200);
ref = _serif.S.BL;
}
);
width = 458;
},
{
anchors = (
{
name = bottom;
pos = (244,0);
},
{
name = top;
pos = (244,500);
}
);
layerId = m002;
shapes = (
{
closed = 1;
nodes = (
(321,0,l),
(488,500,l),
(304,500,l),
(244,198,l),
(184,500,l),
(0,500,l),
(167,0,l)
);
},
{
closed = 1;
nodes = (
(218,-205,o),
(268,-154,o),
(321,0,c),
(167,0,l),
(156,-33,l),
(144,-65,o),
(120,-95,o),
(65,-95,cs),
(23,-95,o),
(19,-82,o),
(19,-82,c),
(-8,-200,l),
(30,-204,o),
(61,-205,o),
(78,-205,cs)
);
},
{
pos = (40,500);
ref = _serif.I.TL;
},
{
pos = (164,500);
ref = _serif.I.TR;
},
{
pos = (324,500);
ref = _serif.I.TL;
},
{
pos = (458,500);
ref = _serif.I.TR;
},
{
pos = (-8,-200);
ref = _serif.S.BL;
}
);
width = 498;
}
);
metricLeft = "=v";
metricRight = "=v";
unicode = 121;
userData = {
KernOnName = y;
};
}
{
glyphname = z;
kernLeft = KO_z;
kernRight = KO_z;
layers = (
{
anchors = (
{
name = bottom;
pos = (243,0);
},
{
name = center;
pos = (243,250);
},
{
name = top;
pos = (243,500);
}
);
layerId = m01;
shapes = (
{
closed = 1;
nodes = (
(80,500,l),
(80,445,l),
(350,445,l),
(60,55,l),
(60,0,l),
(425,0,l),
(425,55,l),
(136,55,l),
(425,445,l),
(425,500,l)
);
},
{
pos = (425,0);
ref = _serif.Z.BR;
},
{
pos = (80,500);
ref = _serif.T.TL;
}
);
width = 485;
},
{
anchors = (
{
name = bottom;
pos = (238,0);
},
{
name = center;
pos = (238,250);
},
{
name = top;
pos = (238,500);
}
);
layerId = m002;
shapes = (
{
closed = 1;
nodes = (
(30,500,l),
(30,380,l),
(280,380,l),
(15,120,l),
(15,0,l),
(460,0,l),
(460,120,l),
(211,120,l),
(460,380,l),
(460,500,l)
);
},
{
pos = (460,0);
ref = _serif.Z.BR;
},
{
pos = (30,500);
ref = _serif.T.TL;
}
);
width = 475;
}
);
unicode = 122;
userData = {
KernOnName = z;
};
}
{
glyphname = braceleft;
kernRight = KO_braceleft;
layers = (
{
hints = (
{
horizontal = 1;
place = (312,51);
type = Stem;
},
{
place = (189,184);
type = Stem;
}
);
layerId = m01;
shapes = (
{
closed = 1;
nodes = (
(286,0,l),
(274,-2,o),
(264,-3,o),
(253,-3,cs),
(180,-3,o),
(168,35,o),
(168,93,c),
(171,200,l),
(171,262,o),
(162,317,o),
(95,340,c),
(161,357,o),
(171,411,o),
(171,471,c),
(168,576,l),
(168,632,o),
(180,669,o),
(253,669,cs),
(263,669,o),
(275,668,o),
(286,666,c),
(286,703,l),
(276,705,o),
(256,708,o),
(236,708,cs),
(187,708,o),
(116,690,o),
(116,604,cs),
(116,562,o),
(116,530,o),
(116,490,cs),
(116,421,o),
(111,358,o),
(30,354,c),
(30,321,l),
(114,317,o),
(116,252,o),
(116,178,cs),
(116,144,o),
(116,97,o),
(116,62,cs),
(116,-24,o),
(187,-42,o),
(236,-42,cs),
(255,-42,o),
(286,-36,o),
(286,-36,c)
);
}
);
width = 311;
},
{
layerId = m002;
shapes = (
{
closed = 1;
nodes = (
(351,0,l),
(339,-2,o),
(329,-3,o),
(318,-3,cs),
(245,-3,o),
(233,35,o),
(233,93,c),
(236,200,l),
(236,262,o),
(227,317,o),
(150,340,c),
(226,357,o),
(236,411,o),
(236,471,c),
(233,576,l),
(233,632,o),
(245,669,o),
(318,669,cs),
(328,669,o),
(340,668,o),
(351,666,c),
(351,763,l),
(341,765,o),
(321,768,o),
(301,768,cs),
(172,768,o),
(101,750,o),
(101,604,cs),
(101,562,o),
(101,530,o),
(101,490,cs),
(101,421,o),
(96,378,o),
(15,374,c),
(15,301,l),
(99,297,o),
(101,252,o),
(101,178,cs),
(101,144,o),
(101,97,o),
(101,62,cs),
(101,-84,o),
(172,-102,o),
(301,-102,cs),
(320,-102,o),
(351,-96,o),
(351,-96,c)
);
}
);
width = 351;
}
);
metricLeft = "=O";
note = braceleft;
unicode = 123;
userData = {
KernOnSpecialSpacing = {
R = parenthesis;
};
};
}
{
glyphname = bar;
layers = (
{
layerId = m01;
shapes = (
{
closed = 1;
nodes = (
(172,-125,l),
(227,-125,l),
(228,700,l),
(173,700,l)
);
}
);
width = 400;
},
{
layerId = m002;
shapes = (
{
closed = 1;
nodes = (
(142,-125,l),
(257,-125,l),
(258,700,l),
(143,700,l)
);
}
);
width = 400;
}
);
unicode = 124;
userData = {
KernOnSpecialSpacing = {
L = NoKerning;
R = NoKerning;
};
};
}
{
glyphname = braceright;
kernLeft = KO_braceright;
layers = (
{
hints = (
{
horizontal = 1;
place = (312,51);
type = Stem;
},
{
place = (77,184);
type = Stem;
}
);
layerId = m01;
shapes = (
{
closed = 1;
nodes = (
(25,-36,o),
(56,-42,o),
(75,-42,cs),
(124,-42,o),
(195,-24,o),
(195,62,cs),
(195,97,o),
(195,144,o),
(195,178,cs),
(195,252,o),
(197,317,o),
(281,321,c),
(281,354,l),
(200,358,o),
(195,421,o),
(195,490,cs),
(195,530,o),
(195,562,o),
(195,604,cs),
(195,690,o),
(124,708,o),
(75,708,cs),
(55,708,o),
(35,705,o),
(25,703,c),
(25,666,l),
(36,668,o),
(48,669,o),
(58,669,cs),
(131,669,o),
(143,632,o),
(143,576,c),
(140,471,l),
(140,411,o),
(150,357,o),
(216,340,c),
(149,317,o),
(140,262,o),
(140,200,c),
(143,93,l),
(143,35,o),
(131,-3,o),
(58,-3,cs),
(47,-3,o),
(37,-2,o),
(25,0,c),
(25,-36,l)
);
}
);
width = 326;
},
{
layerId = m002;
shapes = (
{
closed = 1;
nodes = (
(0,-96,o),
(31,-102,o),
(50,-102,cs),
(199,-102,o),
(270,-84,o),
(270,62,cs),
(270,97,o),
(270,144,o),
(270,178,cs),
(270,252,o),
(272,297,o),
(356,301,c),
(356,374,l),
(275,378,o),
(270,421,o),
(270,490,cs),
(270,530,o),
(270,562,o),
(270,604,cs),
(270,750,o),
(199,768,o),
(50,768,cs),
(30,768,o),
(10,765,o),
(0,763,c),
(0,666,l),
(11,668,o),
(23,669,o),
(33,669,cs),
(106,669,o),
(118,632,o),
(118,576,c),
(115,471,l),
(115,411,o),
(125,357,o),
(191,340,c),
(124,317,o),
(115,262,o),
(115,200,c),
(118,93,l),
(118,35,o),
(106,-3,o),
(33,-3,cs),
(22,-3,o),
(12,-2,o),
(0,0,c),
(0,-96,l)
);
}
);
width = 371;
}
);
metricRight = "=O";
note = braceright;
unicode = 125;
userData = {
KernOnSpecialSpacing = {
L = parenthesis;
};
};
}
{
glyphname = asciitilde;
kernLeft = KO_asciitilde;
kernRight = KO_asciitilde;
layers = (
{
layerId = m01;
shapes = (
{
closed = 1;
nodes = (
(90,300,l),
(123,325,o),
(169,350,o),
(210,350,cs),
(270,350,o),
(320,290,o),
(390,290,cs),
(456,290,o),
(506,322,o),
(550,355,c),
(510,400,l),
(477,375,o),
(431,350,o),
(390,350,cs),
(330,350,o),
(280,410,o),
(210,410,cs),
(144,410,o),
(95,377,o),
(50,344,c)
);
}
);
width = 600;
},
{
layerId = m002;
shapes = (
{
closed = 1;
nodes = (
(77,269,l),
(111,299,o),
(149,320,o),
(210,320,cs),
(276,320,o),
(306,260,o),
(390,260,cs),
(480,260,o),
(545,313,o),
(594,361,c),
(523,431,l),
(489,401,o),
(451,380,o),
(390,380,cs),
(324,380,o),
(294,440,o),
(210,440,cs),
(119,440,o),
(56,385,o),
(5,338,c)
);
}
);
width = 599;
}
);
metricRight = "=|";
unicode = 126;
userData = {
KernOnSpecialSpacing = {
L = math;
R = math;
};
};
}
{
glyphname = exclamdown;
layers = (
{
hints = (
{
horizontal = 1;
place = (424,194);
type = Stem;
},
{
horizontal = 1;
place = (-195,113);
type = Stem;
},
{
place = (147,114);
type = Stem;
},
{
place = (134,139);
type = Stem;
}
);
layerId = m01;
shapes = (
{
closed = 1;
nodes = (
(95,-200,l),
(90,320,l),
(30,320,l),
(25,-200,l)
);
},
{
closed = 1;
nodes = (
(85,418,o),
(105,438,o),
(105,463,cs),
(105,488,o),
(85,508,o),
(60,508,cs),
(35,508,o),
(15,488,o),
(15,463,cs),
(15,438,o),
(35,418,o),
(60,418,cs)
);
}
);
width = 120;
},
{
layerId = m002;
shapes = (
{
closed = 1;
nodes = (
(205,-200,l),
(185,250,l),
(45,250,l),
(25,-200,l)
);
},
{
closed = 1;
nodes = (
(171,308,o),
(215,353,o),
(215,408,cs),
(215,464,o),
(171,508,o),
(115,508,cs),
(60,508,o),
(15,464,o),
(15,408,cs),
(15,353,o),
(60,308,o),
(115,308,cs)
);
}
);
width = 230;
}
);
metricLeft = "=exclam";
metricRight = "=|";
note = exclamdown;
unicode = 161;
userData = {
KernOnSpecialSpacing = {
R = "spaced-off";
};
};
}
{
glyphname = cent;
layers = (
{
layerId = m002;
name = Black;
shapes = (
{
ref = c;
},
{
closed = 1;
nodes = (
(319,446,l),
(319,575,l),
(199,575,l),
(199,446,l)
);
},
{
closed = 1;
nodes = (
(199,55,l),
(199,-75,l),
(319,-75,l),
(319,55,l)
);
}
);
width = 463;
},
{
layerId = m01;
name = Light;
shapes = (
{
ref = c;
},
{
closed = 1;
nodes = (
(275,471,l),
(275,575,l),
(220,575,l),
(220,471,l)
);
},
{
closed = 1;
nodes = (
(220,25,l),
(220,-75,l),
(275,-75,l),
(275,25,l)
);
}
);
width = 433;
}
);
unicode = 162;
userData = {
KernOnSpecialSpacing = {
L = symbols;
R = symbols;
};
};
}
{
glyphname = sterling;
layers = (
{
layerId = m01;
shapes = (
{
closed = 1;
nodes = (
(120,332,l),
(121,315,o),
(120,260,o),
(120,241,cs),
(120,179,o),
(110,107,o),
(45,55,c),
(45,0,l),
(110,15,o),
(156,15,o),
(186,15,cs),
(217,15,o),
(256,6,o),
(296,-2,cs),
(328,-9,o),
(356,-14,o),
(393,-14,cs),
(471,-14,o),
(527,3,o),
(578,32,c),
(555,84,l),
(511,59,o),
(457,46,o),
(393,46,cs),
(351,46,o),
(326,53,o),
(301,61,cs),
(268,72,o),
(231,80,o),
(186,80,cs),
(169,80,o),
(136,75,o),
(136,75,c),
(164,107,o),
(183,183,o),
(190,242,cs),
(192,260,o),
(193,316,o),
(192,332,c)
);
},
{
closed = 1;
nodes = (
(457,614,o),
(503,596,o),
(549,576,c),
(578,628,l),
(528,654,o),
(471,674,o),
(406,674,cs),
(201,674,o),
(120,512,o),
(120,332,c),
(192,332,l),
(192,489,o),
(251,614,o),
(406,614,cs)
);
},
{
closed = 1;
nodes = (
(45,320,l),
(406,320,l),
(406,380,l),
(45,380,l)
);
}
);
width = 603;
},
{
layerId = m002;
shapes = (
{
closed = 1;
nodes = (
(95,332,l),
(96,315,o),
(95,260,o),
(95,241,cs),
(95,179,o),
(75,147,o),
(25,115,c),
(25,0,l),
(105,15,o),
(161,15,o),
(221,15,cs),
(282,15,o),
(321,6,o),
(361,-2,cs),
(393,-9,o),
(421,-14,o),
(458,-14,cs),
(536,-14,o),
(581,9,o),
(632,38,c),
(603,150,l),
(559,125,o),
(532,116,o),
(488,116,cs),
(446,116,o),
(411,123,o),
(386,131,cs),
(353,142,o),
(301,150,o),
(256,150,cs),
(179,150,o),
(231,75,o),
(231,75,c),
(259,107,o),
(278,183,o),
(285,242,cs),
(287,260,o),
(288,316,o),
(287,332,c)
);
},
{
closed = 1;
nodes = (
(489,556,o),
(540,545,o),
(603,518,c),
(632,630,l),
(582,651,o),
(512,676,o),
(420,676,c),
(175,676,o),
(94,514,o),
(94,334,c),
(286,334,l),
(286,434,o),
(305,556,o),
(420,556,cs)
);
},
{
closed = 1;
nodes = (
(25,290,l),
(441,290,l),
(441,410,l),
(25,410,l)
);
}
);
width = 632;
}
);
metricRight = "=C";
unicode = 163;
userData = {
KernOnSpecialSpacing = {
L = symbols;
R = symbols;
};
};
}
{
glyphname = currency;
layers = (
{
layerId = m01;
shapes = (
{
closed = 1;
nodes = (
(399,153,o),
(480,233,o),
(480,333,cs),
(480,433,o),
(399,513,o),
(300,513,cs),
(201,513,o),
(120,433,o),
(120,333,cs),
(120,233,o),
(201,153,o),
(300,153,cs)
);
},
{
closed = 1;
nodes = (
(234,213,o),
(180,266,o),
(180,333,cs),
(180,400,o),
(234,453,o),
(300,453,cs),
(366,453,o),
(420,400,o),
(420,333,cs),
(420,266,o),
(366,213,o),
(300,213,cs)
);
},
{
closed = 1;
nodes = (
(218,457,l),
(109,566,l),
(67,524,l),
(175,415,l)
);
},
{
closed = 1;
nodes = (
(378,212,l),
(491,100,l),
(533,142,l),
(421,255,l)
);
},
{
closed = 1;
nodes = (
(424,415,l),
(533,524,l),
(491,566,l),
(382,457,l)
);
},
{
closed = 1;
nodes = (
(179,255,l),
(67,142,l),
(109,100,l),
(222,212,l)
);
}
);
width = 600;
},
{
layerId = m002;
shapes = (
{
closed = 1;
nodes = (
(410,133,o),
(500,222,o),
(500,333,cs),
(500,444,o),
(410,533,o),
(300,533,cs),
(190,533,o),
(100,444,o),
(100,333,cs),
(100,222,o),
(190,133,o),
(300,133,cs)
);
},
{
closed = 1;
nodes = (
(245,233,o),
(200,277,o),
(200,333,cs),
(200,389,o),
(245,433,o),
(300,433,cs),
(355,433,o),
(400,389,o),
(400,333,cs),
(400,277,o),
(355,233,o),
(300,233,cs)
);
},
{
closed = 1;
nodes = (
(246,457,l),
(109,594,l),
(39,524,l),
(175,387,l)
);
},
{
closed = 1;
nodes = (
(350,212,l),
(491,72,l),
(561,142,l),
(421,283,l)
);
},
{
closed = 1;
nodes = (
(424,387,l),
(561,524,l),
(491,594,l),
(354,457,l)
);
},
{
closed = 1;
nodes = (
(179,283,l),
(39,142,l),
(109,72,l),
(250,212,l)
);
}
);
width = 600;
}
);
unicode = 164;
}
{
glyphname = yen;
layers = (
{
layerId = m01;
shapes = (
{
ref = Y;
},
{
closed = 1;
nodes = (
(75,270,l),
(435,270,l),
(435,330,l),
(75,330,l)
);
},
{
closed = 1;
nodes = (
(75,150,l),
(435,150,l),
(435,210,l),
(75,210,l)
);
}
);
width = 508;
},
{
layerId = m002;
shapes = (
{
ref = Y;
},
{
closed = 1;
nodes = (
(95,260,l),
(495,260,l),
(495,360,l),
(95,360,l)
);
},
{
closed = 1;
nodes = (
(95,120,l),
(495,120,l),
(495,220,l),
(95,220,l)
);
}
);
width = 588;
}
);
unicode = 165;
userData = {
KernOnSpecialSpacing = {
L = symbols;
R = symbols;
};
};
}
{
glyphname = brokenbar;
layers = (
{
layerId = m01;
shapes = (
{
closed = 1;
nodes = (
(227,350,l),
(228,700,l),
(173,700,l),
(172,350,l)
);
},
{
closed = 1;
nodes = (
(172,225,l),
(172,-125,l),
(227,-125,l),
(227,225,l)
);
}
);
width = 400;
},
{
layerId = m002;
shapes = (
{
closed = 1;
nodes = (
(257,350,l),
(258,700,l),
(143,700,l),
(142,350,l)
);
},
{
closed = 1;
nodes = (
(142,225,l),
(142,-125,l),
(257,-125,l),
(257,225,l)
);
}
);
width = 400;
}
);
unicode = 166;
}
{
glyphname = section;
layers = (
{
layerId = m01;
shapes = (
{
closed = 1;
nodes = (
(414,-8,o),
(476,41,o),
(476,113,cs),
(476,197,o),
(420,243,o),
(291,258,c),
(291,200,l),
(378,188,o),
(416,159,o),
(416,113,cs),
(416,72,o),
(375,47,o),
(291,47,c),
(291,-8,l)
);
},
{
closed = 1;
nodes = (
(204,466,o),
(136,416,o),
(136,339,cs),
(136,262,o),
(195,214,o),
(291,200,c),
(291,258,l),
(229,266,o),
(196,295,o),
(196,339,cs),
(196,383,o),
(239,431,o),
(291,431,c),
(291,466,l)
);
},
{
closed = 1;
nodes = (
(157,32,o),
(217,-8,o),
(291,-8,c),
(291,47,l),
(228,47,o),
(186,79,o),
(160,99,c),
(125,55,l)
);
},
{
closed = 1;
nodes = (
(414,200,o),
(476,249,o),
(476,336,cs),
(476,417,o),
(420,453,o),
(291,468,c),
(291,410,l),
(378,398,o),
(416,374,o),
(416,336,cs),
(416,280,o),
(375,235,o),
(291,235,c),
(291,200,l)
);
},
{
closed = 1;
nodes = (
(204,674,o),
(136,614,o),
(136,542,cs),
(136,462,o),
(195,424,o),
(291,410,c),
(291,468,l),
(229,476,o),
(196,495,o),
(196,542,cs),
(196,581,o),
(239,619,o),
(291,619,c),
(291,674,l)
);
},
{
closed = 1;
nodes = (
(457,610,l),
(426,633,o),
(365,674,o),
(291,674,c),
(291,619,l),
(353,619,o),
(395,588,o),
(422,568,c)
);
}
);
width = 600;
},
{
layerId = m002;
shapes = (
{
closed = 1;
nodes = (
(441,-8,o),
(516,45,o),
(516,133,cs),
(516,235,o),
(457,285,o),
(321,300,c),
(271,182,l),
(316,176,o),
(336,162,o),
(336,143,cs),
(336,123,o),
(320,107,o),
(291,107,c),
(291,-8,l)
);
},
{
closed = 1;
nodes = (
(182,468,o),
(96,411,o),
(96,336,cs),
(96,252,o),
(163,193,o),
(271,182,c),
(321,300,l),
(251,304,o),
(236,315,o),
(236,336,cs),
(236,357,o),
(251,393,o),
(281,393,c),
(291,468,l)
);
},
{
closed = 1;
nodes = (
(117,32,o),
(177,-8,o),
(291,-8,c),
(291,107,l),
(228,107,o),
(202,123,o),
(160,139,c),
(85,55,l)
);
},
{
closed = 1;
nodes = (
(441,182,o),
(516,235,o),
(516,343,cs),
(516,425,o),
(457,475,o),
(321,490,c),
(271,392,l),
(356,386,o),
(376,372,o),
(376,343,cs),
(376,313,o),
(360,277,o),
(331,277,c),
(291,182,l)
);
},
{
closed = 1;
nodes = (
(182,678,o),
(96,621,o),
(96,526,cs),
(96,442,o),
(163,403,o),
(271,392,c),
(321,490,l),
(291,494,o),
(276,505,o),
(276,526,cs),
(276,547,o),
(291,563,o),
(321,563,c),
(291,678,l)
);
},
{
closed = 1;
nodes = (
(497,614,l),
(445,653,o),
(366,678,o),
(291,678,c),
(321,563,l),
(359,563,o),
(392,553,o),
(422,532,c)
);
}
);
width = 600;
}
);
unicode = 167;
userData = {
KernOnSpecialSpacing = {
R = symbols;
};
};
}
{
glyphname = copyright;
layers = (
{
layerId = m01;
shapes = (
{
closed = 1;
nodes = (
(442,-8,o),
(558,108,o),
(558,250,cs),
(558,392,o),
(442,508,o),
(300,508,cs),
(158,508,o),
(42,392,o),
(42,250,cs),
(42,108,o),
(158,-8,o),
(300,-8,cs)
);
},
{
closed = 1;
nodes = (
(186,42,o),
(92,136,o),
(92,250,cs),
(92,364,o),
(186,458,o),
(300,458,cs),
(414,458,o),
(508,364,o),
(508,250,cs),
(508,136,o),
(414,42,o),
(300,42,cs)
);
},
{
closed = 1;
nodes = (
(359,111,o),
(395,143,o),
(406,151,c),
(377,189,l),
(364,180,o),
(344,159,o),
(310,159,cs),
(261,159,o),
(248,200,o),
(248,250,cs),
(248,300,o),
(261,342,o),
(309,342,cs),
(342,342,o),
(362,322,o),
(377,313,c),
(406,348,l),
(398,356,o),
(359,389,o),
(309,389,cs),
(230,389,o),
(197,318,o),
(197,250,cs),
(197,183,o),
(230,112,o),
(309,111,c)
);
}
);
width = 600;
},
{
layerId = m002;
shapes = (
{
closed = 1;
nodes = (
(442,-8,o),
(558,108,o),
(558,250,cs),
(558,392,o),
(442,508,o),
(300,508,cs),
(158,508,o),
(42,392,o),
(42,250,cs),
(42,108,o),
(158,-8,o),
(300,-8,cs)
);
},
{
closed = 1;
nodes = (
(197,62,o),
(112,147,o),
(112,250,cs),
(112,353,o),
(197,438,o),
(300,438,cs),
(403,438,o),
(488,353,o),
(488,250,cs),
(488,147,o),
(403,62,o),
(300,62,cs)
);
},
{
closed = 1;
nodes = (
(384,111,o),
(411,142,o),
(423,151,c),
(386,208,l),
(368,196,o),
(341,189,o),
(313,189,cs),
(291,189,o),
(291,228,o),
(291,250,cs),
(291,272,o),
(291,311,o),
(313,311,cs),
(341,311,o),
(368,304,o),
(386,291,c),
(424,351,l),
(411,360,o),
(386,389,o),
(313,389,cs),
(213,389,o),
(180,318,o),
(180,250,cs),
(180,183,o),
(213,111,o),
(313,111,c)
);
}
);
width = 600;
}
);
unicode = 169;
userData = {
KernOnSpecialSpacing = {
R = symbols;
};
};
}
{
glyphname = ordfeminine;
layers = (
{
layerId = m01;
shapes = (
{
closed = 1;
nodes = (
(128,493,o),
(143,502,o),
(154,512,c),
(162,496,l),
(180,496,l),
(180,601,ls),
(180,647,o),
(162,675,o),
(110,675,cs),
(85,675,o),
(61,663,o),
(48,653,c),
(63,631,l),
(73,638,o),
(87,646,o),
(110,646,cs),
(142,646,o),
(149,636,o),
(150,607,c),
(147,607,ls),
(77,607,o),
(45,591,o),
(45,552,cs),
(45,518,o),
(68,493,o),
(112,493,cs)
);
},
{
closed = 1;
nodes = (
(75,571,o),
(94,579,o),
(150,579,c),
(150,543,l),
(141,532,o),
(127,521,o),
(112,521,cs),
(86,521,o),
(75,533,o),
(75,552,cs)
);
}
);
width = 225;
},
{
layerId = m002;
shapes = (
{
closed = 1;
nodes = (
(87,493,o),
(101,502,o),
(113,513,c),
(121,496,l),
(174,496,l),
(174,602,ls),
(174,649,o),
(152,675,o),
(99,675,cs),
(60,675,o),
(15,656,o),
(15,656,c),
(29,620,l),
(36,624,o),
(66,634,o),
(89,634,cs),
(108,634,o),
(111,626,o),
(111,603,c),
(102,603,ls),
(45,603,o),
(15,587,o),
(15,550,cs),
(15,517,o),
(36,493,o),
(73,493,cs)
);
},
{
closed = 1;
nodes = (
(78,564,o),
(84,573,o),
(111,573,c),
(111,539,l),
(104,536,o),
(97,533,o),
(94,533,cs),
(84,533,o),
(78,539,o),
(78,550,cs)
);
}
);
width = 189;
}
);
metricLeft = "=a";
metricRight = "=|";
unicode = 170;
userData = {
KernOnSpecialSpacing = {
L = superiors;
R = superiors;
};
};
}
{
glyphname = guillemotleft;
kernLeft = KO_guillemotleft;
kernRight = KO_guillemotleft;
layers = (
{
hints = (
{
horizontal = 1;
place = (53,22);
type = Stem;
},
{
horizontal = 1;
place = (441,-20);
target = down;
type = TopGhost;
},
{
horizontal = 1;
place = (529,77);
type = Stem;
},
{
place = (-214,76);
type = Stem;
},
{
place = (-3,76);
type = Stem;
},
{
place = (396,76);
type = Stem;
},
{
place = (411,77);
type = Stem;
}
);
layerId = m01;
shapes = (
{
closed = 1;
nodes = (
(427,99,l),
(304,250,l),
(427,401,l),
(396,430,l),
(237,250,l),
(396,70,l)
);
},
{
closed = 1;
nodes = (
(261,99,l),
(140,250,l),
(261,401,l),
(230,430,l),
(72,250,l),
(230,70,l)
);
}
);
width = 499;
},
{
layerId = m002;
shapes = (
{
closed = 1;
nodes = (
(621,50,l),
(472,250,l),
(621,450,l),
(550,500,l),
(302,250,l),
(550,0,l)
);
},
{
closed = 1;
nodes = (
(391,50,l),
(242,250,l),
(391,450,l),
(320,500,l),
(72,250,l),
(320,0,l)
);
}
);
width = 693;
}
);
metricRight = "=|";
note = guillemotleft;
unicode = 171;
userData = {
KernOnSpecialSpacing = {
L = quotes;
R = quotes;
};
};
}
{
glyphname = logicalnot;
kernLeft = KO_plus;
kernRight = KO_logicalnot;
layers = (
{
layerId = m01;
shapes = (
{
closed = 1;
nodes = (
(90,320,l),
(510,320,l),
(510,380,l),
(90,380,l)
);
},
{
closed = 1;
nodes = (
(510,170,l),
(510,380,l),
(450,380,l),
(450,170,l)
);
}
);
width = 600;
},
{
layerId = m002;
shapes = (
{
closed = 1;
nodes = (
(50,280,l),
(550,280,l),
(550,410,l),
(50,410,l)
);
},
{
closed = 1;
nodes = (
(550,160,l),
(550,410,l),
(420,410,l),
(420,160,l)
);
}
);
width = 600;
}
);
metricRight = "=|";
unicode = 172;
}
{
glyphname = registered;
kernLeft = KO_registered;
layers = (
{
layerId = m01;
shapes = (
{
closed = 1;
nodes = (
(392,375,o),
(467,450,o),
(467,541,cs),
(467,633,o),
(392,708,o),
(300,708,cs),
(208,708,o),
(134,633,o),
(134,541,cs),
(134,450,o),
(208,375,o),
(300,375,cs)
);
},
{
closed = 1;
nodes = (
(226,407,o),
(166,468,o),
(166,541,cs),
(166,615,o),
(226,676,o),
(300,676,cs),
(374,676,o),
(434,615,o),
(434,541,cs),
(434,468,o),
(374,407,o),
(300,407,cs)
);
},
{
closed = 1;
nodes = (
(277,453,l),
(277,523,l),
(297,523,l),
(333,453,l),
(369,453,l),
(329,528,l),
(350,537,o),
(364,556,o),
(364,580,cs),
(364,613,o),
(337,638,o),
(300,638,cs),
(276,638,o),
(254,635,o),
(245,633,c),
(246,453,l)
);
},
{
closed = 1;
nodes = (
(291,553,o),
(283,554,o),
(277,554,c),
(278,606,l),
(283,606,o),
(291,607,o),
(300,607,cs),
(321,607,o),
(330,598,o),
(330,580,cs),
(330,561,o),
(321,554,o),
(300,553,cs)
);
}
);
width = 600;
},
{
layerId = m002;
shapes = (
{
closed = 1;
nodes = (
(403,355,o),
(487,439,o),
(487,541,cs),
(487,644,o),
(403,728,o),
(300,728,cs),
(197,728,o),
(114,644,o),
(114,541,cs),
(114,439,o),
(197,355,o),
(300,355,cs)
);
},
{
closed = 1;
nodes = (
(226,407,o),
(166,468,o),
(166,541,cs),
(166,615,o),
(226,676,o),
(300,676,cs),
(374,676,o),
(434,615,o),
(434,541,cs),
(434,468,o),
(374,407,o),
(300,407,cs)
);
},
{
closed = 1;
nodes = (
(287,452,l),
(287,516,l),
(296,516,l),
(317,452,l),
(376,452,l),
(338,523,l),
(358,532,o),
(369,550,o),
(369,573,cs),
(369,609,o),
(343,631,o),
(298,631,cs),
(277,631,o),
(251,630,o),
(236,629,c),
(236,452,l)
);
},
{
closed = 1;
nodes = (
(291,550,o),
(287,551,o),
(287,551,c),
(287,595,l),
(287,595,o),
(291,596,o),
(298,596,cs),
(309,596,o),
(316,587,o),
(316,572,cs),
(316,559,o),
(309,550,o),
(298,550,cs)
);
}
);
width = 600;
}
);
unicode = 174;
userData = {
KernOnSpecialSpacing = {
L = superiors;
};
};
}
{
glyphname = degree;
kernLeft = KO_degree;
kernRight = KO_degree;
layers = (
{
layerId = m01;
shapes = (
{
closed = 1;
nodes = (
(392,334,o),
(467,408,o),
(467,501,cs),
(467,593,o),
(392,667,o),
(301,667,cs),
(208,667,o),
(134,593,o),
(134,501,cs),
(134,408,o),
(208,334,o),
(301,334,cs)
);
},
{
closed = 1;
nodes = (
(236,384,o),
(184,436,o),
(184,501,cs),
(184,565,o),
(236,617,o),
(301,617,cs),
(365,617,o),
(417,565,o),
(417,501,cs),
(417,436,o),
(365,384,o),
(301,384,cs)
);
}
);
width = 600;
},
{
layerId = m002;
shapes = (
{
closed = 1;
nodes = (
(392,334,o),
(467,408,o),
(467,501,cs),
(467,593,o),
(392,667,o),
(301,667,cs),
(208,667,o),
(134,593,o),
(134,501,cs),
(134,408,o),
(208,334,o),
(301,334,cs)
);
},
{
closed = 1;
nodes = (
(258,424,o),
(224,458,o),
(224,501,cs),
(224,543,o),
(258,577,o),
(301,577,cs),
(343,577,o),
(377,543,o),
(377,501,cs),
(377,458,o),
(343,424,o),
(301,424,cs)
);
}
);
width = 600;
}
);
unicode = 176;
userData = {
KernOnSpecialSpacing = {
L = superiors;
R = superiors;
};
};
}
{
glyphname = plusminus;
layers = (
{
layerId = m01;
shapes = (
{
closed = 1;
nodes = (
(90,380,l),
(510,380,l),
(510,440,l),
(90,440,l)
);
},
{
closed = 1;
nodes = (
(270,580,l),
(270,240,l),
(330,240,l),
(330,580,l)
);
},
{
closed = 1;
nodes = (
(90,120,l),
(510,120,l),
(510,180,l),
(90,180,l)
);
}
);
width = 600;
},
{
layerId = m002;
shapes = (
{
closed = 1;
nodes = (
(50,380,l),
(550,380,l),
(550,500,l),
(50,500,l)
);
},
{
closed = 1;
nodes = (
(240,630,l),
(240,250,l),
(360,250,l),
(360,630,l)
);
},
{
closed = 1;
nodes = (
(50,70,l),
(550,70,l),
(550,190,l),
(50,190,l)
);
}
);
width = 600;
}
);
metricRight = "=|";
unicode = 177;
userData = {
KernOnSpecialSpacing = {
L = math;
R = math;
};
};
}
{
glyphname = micro;
layers = (
{
anchors = (
{
name = bottom;
pos = (195,0);
},
{
name = ogonek;
pos = (380,0);
},
{
name = top;
pos = (195,500);
},
{
name = topright;
pos = (430,500);
}
);
layerId = m01;
shapes = (
{
closed = 1;
nodes = (
(16,198,l),
(19,66,o),
(79,-8,o),
(191,-8,c),
(191,47,l),
(111,47,o),
(75,93,o),
(75,250,c),
(15,250,l)
);
},
{
closed = 1;
nodes = (
(380,500,l),
(320,500,l),
(320,60,l),
(380,140,l)
);
},
{
closed = 1;
nodes = (
(75,500,l),
(15,500,l),
(15,250,l),
(75,250,l)
);
},
{
closed = 1;
nodes = (
(350,0,l),
(380,0,l),
(380,140,l),
(320,60,l)
);
},
{
closed = 1;
nodes = (
(348,150,o),
(282,47,o),
(190,47,c),
(190,-8,l),
(301,-8,o),
(380,140,o),
(380,140,c),
(348,150,l)
);
},
{
closed = 1;
nodes = (
(15,-200,l),
(75,-200,l),
(75,250,l),
(15,250,l)
);
}
);
width = 450;
},
{
anchors = (
{
name = bottom;
pos = (238,0);
},
{
name = ogonek;
pos = (444,10);
},
{
name = top;
pos = (238,500);
},
{
name = topright;
pos = (475,500);
}
);
layerId = m002;
shapes = (
{
closed = 1;
nodes = (
(16,198,ls),
(19,66,o),
(79,-8,o),
(171,-8,c),
(231,107,l),
(191,107,o),
(195,153,o),
(195,250,c),
(15,250,l)
);
},
{
closed = 1;
nodes = (
(460,500,l),
(280,500,l),
(280,60,l),
(460,140,l)
);
},
{
closed = 1;
nodes = (
(195,500,l),
(15,500,l),
(15,250,l),
(195,250,l)
);
},
{
closed = 1;
nodes = (
(310,0,l),
(460,0,l),
(460,140,l),
(280,60,l)
);
},
{
closed = 1;
nodes = (
(390,150,o),
(282,107,o),
(230,107,c),
(170,-8,l),
(281,-8,o),
(390,150,o),
(390,150,c),
(390,150,l)
);
},
{
closed = 1;
nodes = (
(15,-200,l),
(195,-200,l),
(195,250,l),
(15,250,l)
);
}
);
width = 495;
}
);
metricLeft = "=n";
unicode = 181;
}
{
glyphname = paragraph;
layers = (
{
layerId = m01;
shapes = (
{
closed = 1;
nodes = (
(293,667,l),
(293,0,l),
(353,0,l),
(353,667,l)
);
},
{
closed = 1;
nodes = (
(414,667,l),
(413,0,l),
(472,0,l),
(473,667,l)
);
},
{
closed = 1;
nodes = (
(294,667,l),
(202,667,o),
(127,592,o),
(127,501,cs),
(127,409,o),
(202,334,o),
(294,334,c)
);
}
);
width = 600;
},
{
layerId = m002;
shapes = (
{
closed = 1;
nodes = (
(233,667,l),
(233,0,l),
(353,0,l),
(353,667,l)
);
},
{
closed = 1;
nodes = (
(415,667,l),
(413,0,l),
(531,0,l),
(533,667,l)
);
},
{
closed = 1;
nodes = (
(234,667,l),
(142,667,o),
(67,592,o),
(67,501,cs),
(67,409,o),
(142,334,o),
(234,334,c)
);
}
);
width = 600;
}
);
unicode = 182;
userData = {
KernOnSpecialSpacing = {
L = NoKerning;
R = NoKerning;
};
};
}
{
glyphname = periodcentered;
layers = (
{
hints = (
{
horizontal = 1;
place = (200,21);
target = up;
type = BottomGhost;
},
{
horizontal = 1;
place = (276,21);
target = up;
type = BottomGhost;
}
);
layerId = m01;
shapes = (
{
closed = 1;
nodes = (
(150,205,o),
(170,225,o),
(170,250,cs),
(170,275,o),
(150,295,o),
(125,295,cs),
(100,295,o),
(80,275,o),
(80,250,cs),
(80,225,o),
(100,205,o),
(125,205,cs)
);
}
);
width = 250;
},
{
layerId = m002;
shapes = (
{
closed = 1;
nodes = (
(305,150,o),
(350,194,o),
(350,250,cs),
(350,305,o),
(305,350,o),
(250,350,cs),
(194,350,o),
(150,305,o),
(150,250,cs),
(150,194,o),
(194,150,o),
(250,150,cs)
);
}
);
width = 500;
}
);
metricRight = "=|";
note = periodcentered;
unicode = (183,8729);
userData = {
KernOnSpecialSpacing = {
L = NoKerning;
R = NoKerning;
};
};
}
{
glyphname = ordmasculine;
kernLeft = KO_ordmasculine;
layers = (
{
layerId = m01;
shapes = (
{
closed = 1;
nodes = (
(30,540,o),
(50,493,o),
(103,493,cs),
(156,493,o),
(176,540,o),
(176,584,cs),
(176,628,o),
(156,675,o),
(103,675,cs),
(50,675,o),
(30,628,o),
(30,584,cs)
);
},
{
closed = 1;
nodes = (
(60,618,o),
(70,646,o),
(103,646,cs),
(136,646,o),
(146,618,o),
(146,584,cs),
(146,550,o),
(136,521,o),
(103,521,cs),
(70,521,o),
(60,550,o),
(60,584,cs)
);
}
);
width = 206;
},
{
layerId = m002;
shapes = (
{
closed = 1;
nodes = (
(15,539,o),
(35,493,o),
(101,493,cs),
(167,493,o),
(187,539,o),
(187,584,cs),
(187,630,o),
(167,675,o),
(101,675,cs),
(35,675,o),
(15,630,o),
(15,584,cs)
);
},
{
closed = 1;
nodes = (
(79,600,o),
(79,634,o),
(101,634,cs),
(123,634,o),
(123,600,o),
(123,584,cs),
(123,568,o),
(123,534,o),
(101,534,cs),
(79,534,o),
(79,568,o),
(79,584,cs)
);
}
);
width = 202;
}
);
metricLeft = "=o";
metricRight = "=|";
unicode = 186;
userData = {
KernOnSpecialSpacing = {
L = superiors;
R = superiors;
};
};
}
{
glyphname = guillemotright;
kernLeft = KO_guillemotright;
kernRight = KO_guillemotright;
layers = (
{
hints = (
{
horizontal = 1;
place = (53,22);
type = Stem;
},
{
horizontal = 1;
place = (441,-20);
target = down;
type = TopGhost;
},
{
horizontal = 1;
place = (529,77);
type = Stem;
},
{
place = (-205,77);
type = Stem;
},
{
place = (6,77);
type = Stem;
},
{
place = (405,77);
type = Stem;
},
{
place = (421,77);
type = Stem;
}
);
layerId = m01;
shapes = (
{
closed = 1;
nodes = (
(262,250,l),
(103,430,l),
(72,401,l),
(195,250,l),
(72,97,l),
(103,69,l)
);
},
{
closed = 1;
nodes = (
(427,250,l),
(269,430,l),
(238,401,l),
(359,250,l),
(238,97,l),
(269,69,l)
);
}
);
width = 499;
},
{
layerId = m002;
shapes = (
{
closed = 1;
nodes = (
(391,250,l),
(143,500,l),
(72,450,l),
(221,250,l),
(72,50,l),
(143,0,l)
);
},
{
closed = 1;
nodes = (
(621,250,l),
(373,500,l),
(302,450,l),
(451,250,l),
(302,50,l),
(373,0,l)
);
}
);
width = 693;
}
);
metricRight = "=|";
note = guillemotright;
unicode = 187;
userData = {
KernOnSpecialSpacing = {
L = quotes;
R = quotes;
};
};
}
{
glyphname = questiondown;
kernRight = KO_questiondown;
layers = (
{
hints = (
{
horizontal = 1;
place = (-231,73);
type = Stem;
},
{
horizontal = 1;
place = (240,73);
type = Stem;
},
{
horizontal = 1;
place = (496,22);
type = Stem;
},
{
place = (78,84);
type = Stem;
},
{
place = (335,77);
type = Stem;
}
);
layerId = m01;
shapes = (
{
closed = 1;
nodes = (
(222,508,o),
(202,488,o),
(202,463,cs),
(202,438,o),
(222,418,o),
(247,418,cs),
(272,418,o),
(292,438,o),
(292,463,cs),
(292,488,o),
(272,508,o),
(247,508,cs)
);
},
{
closed = 1;
nodes = (
(227,-153,l),
(133,-153,o),
(107,-107,o),
(107,-52,cs),
(107,57,o),
(277,42,o),
(277,190,c),
(217,190,l),
(217,75,o),
(45,90,o),
(45,-52,c),
(45,-134,o),
(101,-208,o),
(227,-208,c)
);
},
{
closed = 1;
nodes = (
(332,-121,o),
(290,-153,o),
(227,-153,c),
(227,-208,l),
(301,-208,o),
(361,-168,o),
(393,-145,c),
(358,-101,l)
);
},
{
closed = 1;
nodes = (
(277,320,l),
(217,320,l),
(217,190,l),
(277,190,l)
);
}
);
width = 418;
},
{
layerId = m002;
shapes = (
{
closed = 1;
nodes = (
(221,508,o),
(177,464,o),
(177,408,cs),
(177,352,o),
(221,308,o),
(277,308,cs),
(333,308,o),
(377,352,o),
(377,408,cs),
(377,464,o),
(333,508,o),
(277,508,cs)
);
},
{
closed = 1;
nodes = (
(257,-88,l),
(197,-88,o),
(187,-57,o),
(187,-32,c),
(187,50,o),
(367,-1,o),
(367,190,c),
(187,190,l),
(187,108,o),
(5,159,o),
(5,-32,cs),
(5,-114,o),
(71,-208,o),
(257,-208,c)
);
},
{
closed = 1;
nodes = (
(346,-72,o),
(317,-88,o),
(257,-88,c),
(257,-208,l),
(371,-208,o),
(431,-153,o),
(463,-125,c),
(388,-36,l)
);
},
{
closed = 1;
nodes = (
(367,250,l),
(187,250,l),
(187,190,l),
(367,190,l)
);
}
);
width = 478;
}
);
note = questiondown;
unicode = 191;
userData = {
KernOnSpecialSpacing = {
R = "spaced-off";
};
};
}
{
glyphname = AE;
kernRight = KO_AE;
layers = (
{
anchors = (
{
name = bottom;
pos = (421,0);
},
{
name = top;
pos = (421,667);
}
);
layerId = m01;
shapes = (
{
closed = 1;
nodes = (
(448,628,l),
(436,0,l),
(508,0,l),
(508,667,l),
(432,667,l),
(0,0,l),
(72,0,l),
(468,628,l)
);
},
{
closed = 1;
nodes = (
(149,158,l),
(461,158,l),
(480,218,l),
(168,218,l)
);
},
{
closed = 1;
nodes = (
(436,0,l),
(815,0,l),
(815,60,l),
(499,60,l),
(499,320,l),
(766,320,l),
(766,380,l),
(499,380,l),
(499,607,l),
(816,607,l),
(816,667,l),
(436,667,l)
);
}
);
width = 861;
},
{
anchors = (
{
name = bottom;
pos = (454,0);
},
{
name = top;
pos = (454,667);
}
);
layerId = m002;
shapes = (
{
closed = 1;
nodes = (
(440,667,l),
(423,0,l),
(580,0,l),
(580,667,l),
(400,667,l),
(0,0,l),
(187,0,l),
(540,667,l)
);
},
{
closed = 1;
nodes = (
(163,98,l),
(475,98,l),
(511,218,l),
(199,218,l)
);
},
{
closed = 1;
nodes = (
(424,0,l),
(883,0,l),
(883,140,l),
(607,140,l),
(607,265,l),
(834,265,l),
(834,405,l),
(607,405,l),
(607,527,l),
(884,527,l),
(884,667,l),
(424,667,l)
);
}
);
width = 899;
}
);
metricLeft = "=A";
metricRight = "=E";
unicode = 198;
}
{
glyphname = multiply;
kernLeft = KO_multiply;
kernRight = KO_multiply;
layers = (
{
layerId = m01;
shapes = (
{
closed = 1;
nodes = (
(130,477,l),
(427,180,l),
(470,223,l),
(173,520,l)
);
},
{
closed = 1;
nodes = (
(427,520,l),
(130,223,l),
(173,180,l),
(470,477,l)
);
}
);
width = 600;
},
{
layerId = m002;
shapes = (
{
closed = 1;
nodes = (
(81,484,l),
(434,131,l),
(519,216,l),
(166,569,l)
);
},
{
closed = 1;
nodes = (
(434,569,l),
(81,216,l),
(166,131,l),
(519,484,l)
);
}
);
width = 600;
}
);
metricRight = "=|";
unicode = 215;
userData = {
KernOnSpecialSpacing = {
L = math;
R = math;
};
};
}
{
glyphname = Oslash;
layers = (
{
anchors = (
{
name = bottom;
pos = (332,0);
},
{
name = top;
pos = (332,637);
}
);
layerId = m01;
shapes = (
{
closed = 1;
nodes = (
(537,-10,o),
(619,154,o),
(619,334,cs),
(619,514,o),
(537,676,o),
(332,676,c),
(127,676,o),
(45,514,o),
(45,334,cs),
(45,154,o),
(127,-10,o),
(332,-10,cs)
);
},
{
closed = 1;
nodes = (
(177,50,o),
(117,177,o),
(117,334,cs),
(117,491,o),
(177,616,o),
(332,616,cs),
(487,616,o),
(547,491,o),
(547,334,cs),
(547,177,o),
(487,50,o),
(332,50,cs)
);
},
{
closed = 1;
nodes = (
(27,15,l),
(72,-23,l),
(637,651,l),
(592,689,l)
);
}
);
width = 664;
},
{
anchors = (
{
name = bottom;
pos = (348,0);
},
{
name = top;
pos = (348,657);
}
);
layerId = m002;
shapes = (
{
closed = 1;
nodes = (
(599,-10,o),
(681,154,o),
(681,334,cs),
(681,514,o),
(599,676,o),
(354,676,cs),
(108,676,o),
(27,514,o),
(27,334,cs),
(27,154,o),
(108,-10,o),
(354,-10,cs)
);
},
{
closed = 1;
nodes = (
(239,110,o),
(219,234,o),
(219,334,cs),
(219,434,o),
(239,556,o),
(354,556,cs),
(469,556,o),
(489,434,o),
(489,334,cs),
(489,234,o),
(469,110,o),
(354,110,cs)
);
},
{
closed = 1;
nodes = (
(15,35,l),
(107,-42,l),
(673,631,l),
(581,708,l)
);
}
);
width = 696;
}
);
unicode = 216;
}
{
glyphname = Thorn;
kernLeft = KO_K.salt;
layers = (
{
layerId = m01;
shapes = (
{
closed = 1;
nodes = (
(328,471,o),
(383,421,o),
(383,332,cs),
(383,245,o),
(328,197,o),
(230,197,cs),
(155,197,o),
(108,200,o),
(108,200,c),
(108,467,l),
(108,467,o),
(155,471,o),
(230,471,cs)
);
},
{
closed = 1;
nodes = (
(45,0,l),
(107,0,l),
(107,140,l),
(107,140,o),
(154,137,o),
(229,137,cs),
(362,137,o),
(455,218,o),
(455,333,cs),
(455,450,o),
(362,531,o),
(230,531,cs),
(125,531,o),
(45,522,o),
(45,522,c)
);
},
{
closed = 1;
nodes = (
(45,500,l),
(107,500,l),
(107,667,l),
(45,667,l)
);
}
);
width = 470;
},
{
layerId = m002;
shapes = (
{
closed = 1;
nodes = (
(285,426,o),
(313,390,o),
(313,332,cs),
(313,277,o),
(285,242,o),
(240,242,cs),
(215,242,o),
(198,245,o),
(198,245,c),
(198,423,l),
(198,423,o),
(215,426,o),
(240,426,cs)
);
},
{
closed = 1;
nodes = (
(15,0,l),
(197,0,l),
(197,125,l),
(197,125,o),
(214,122,o),
(239,122,cs),
(412,122,o),
(505,201,o),
(505,333,cs),
(505,465,o),
(412,547,o),
(240,547,cs),
(135,547,o),
(15,537,o),
(15,537,c)
);
},
{
closed = 1;
nodes = (
(15,467,l),
(197,467,l),
(197,667,l),
(15,667,l)
);
}
);
width = 505;
}
);
metricLeft = "=P";
metricRight = "=P";
unicode = 222;
}
{
glyphname = germandbls;
layers = (
{
layerId = m01;
shapes = (
{
closed = 1;
nodes = (
(224,350,l),
(224,294,o),
(253,246,o),
(330,232,c),
(330,290,l),
(287,298,o),
(284,327,o),
(284,350,c)
);
},
{
closed = 1;
nodes = (
(196,32,o),
(256,-8,o),
(330,-8,c),
(330,47,l),
(267,47,o),
(225,79,o),
(199,99,c),
(164,55,l)
);
},
{
closed = 1;
nodes = (
(84,0,l),
(144,0,l),
(144,450,l),
(84,450,l)
);
},
{
closed = 1;
nodes = (
(274,653,l),
(368,653,o),
(394,607,o),
(394,552,cs),
(394,483,o),
(224,458,o),
(224,350,c),
(284,350,l),
(284,425,o),
(456,450,o),
(456,552,c),
(456,634,o),
(400,708,o),
(274,708,c)
);
},
{
closed = 1;
nodes = (
(144,450,l),
(144,607,o),
(180,653,o),
(274,653,c),
(274,708,l),
(148,708,o),
(88,634,o),
(85,502,cs),
(84,450,l)
);
},
{
closed = 1;
nodes = (
(453,-8,o),
(515,61,o),
(515,153,cs),
(515,239,o),
(459,275,o),
(330,290,c),
(330,232,l),
(417,220,o),
(455,201,o),
(455,153,cs),
(455,92,o),
(414,47,o),
(330,47,c),
(330,-8,l)
);
},
{
pos = (85,502);
ref = _serif.Spur;
},
{
pos = (164,55);
ref = _serif.s.BL;
}
);
width = 545;
},
{
layerId = m002;
shapes = (
{
closed = 1;
nodes = (
(294,350,l),
(294,264,o),
(323,216,o),
(420,202,c),
(470,320,l),
(447,323,o),
(434,331,o),
(434,350,c)
);
},
{
closed = 1;
nodes = (
(306,32,o),
(366,-8,o),
(440,-8,c),
(440,107,l),
(377,107,o),
(335,139,o),
(309,159,c),
(274,55,l)
);
},
{
closed = 1;
nodes = (
(74,0,l),
(254,0,l),
(254,450,l),
(74,450,l)
);
},
{
closed = 1;
nodes = (
(384,588,l),
(444,588,o),
(454,572,o),
(454,552,c),
(454,490,o),
(294,521,o),
(294,350,c),
(434,350,l),
(434,412,o),
(616,381,o),
(616,552,cs),
(616,634,o),
(550,708,o),
(384,708,c)
);
},
{
closed = 1;
nodes = (
(254,450,l),
(254,572,o),
(290,588,o),
(384,588,c),
(384,708,l),
(138,708,o),
(78,634,o),
(75,502,cs),
(74,450,l)
);
},
{
closed = 1;
nodes = (
(590,-8,o),
(665,45,o),
(665,153,cs),
(665,255,o),
(606,305,o),
(470,320,c),
(420,202,l),
(465,196,o),
(485,182,o),
(485,153,cs),
(485,123,o),
(469,107,o),
(440,107,c),
(440,-8,l)
);
},
{
pos = (75,502);
ref = _serif.Spur;
},
{
pos = (274,55);
ref = _serif.s.BL;
}
);
width = 680;
}
);
unicode = 223;
userData = {
KernOnName = germandbls;
};
}
{
glyphname = ae;
kernLeft = KO_ae;
kernRight = KO_ae;
layers = (
{
layerId = m01;
shapes = (
{
closed = 1;
nodes = (
(227,47,l),
(143,47,o),
(102,92,o),
(102,153,cs),
(102,223,o),
(173,250,o),
(357,250,c),
(357,305,l),
(332,305,l),
(130,305,o),
(42,259,o),
(42,153,cs),
(42,61,o),
(104,-8,o),
(227,-8,c)
);
},
{
closed = 1;
nodes = (
(102,423,o),
(150,452,o),
(222,452,c),
(222,508,l),
(131,508,o),
(57,455,o),
(57,455,c),
(84,413,l)
);
},
{
closed = 1;
nodes = (
(417,302,ls),
(417,434,o),
(368,508,o),
(222,508,c),
(222,452,l),
(332,452,o),
(357,407,o),
(357,305,c),
(417,250,l)
);
},
{
closed = 1;
nodes = (
(385,160,o),
(319,47,o),
(227,47,c),
(227,-8,l),
(350,-8,o),
(417,121,o),
(417,121,cs),
(385,160,l)
);
},
{
closed = 1;
nodes = (
(417,250,l),
(357,305,l),
(357,90,l),
(417,125,l)
);
},
{
closed = 1;
nodes = (
(416,508,o),
(357,379,o),
(357,250,c),
(417,225,l),
(417,354,o),
(451,453,o),
(562,453,c),
(562,508,l)
);
},
{
closed = 1;
nodes = (
(700,87,o),
(634,48,o),
(562,48,c),
(562,-8,l),
(653,-8,o),
(727,45,o),
(727,45,c),
(700,87,l)
);
},
{
closed = 1;
nodes = (
(357,250,ls),
(357,121,o),
(416,-8,o),
(562,-8,c),
(562,48,l),
(452,48,o),
(417,145,o),
(417,225,c),
(357,250,l)
);
},
{
closed = 1;
nodes = (
(401,225,l),
(742,225,l),
(732,275,l),
(401,275,l)
);
},
{
closed = 1;
nodes = (
(562,453,l),
(683,453,o),
(680,354,o),
(680,225,c),
(742,225,l),
(742,379,o),
(718,508,o),
(562,508,c)
);
}
);
width = 784;
},
{
layerId = m002;
shapes = (
{
closed = 1;
nodes = (
(240,107,l),
(215,107,o),
(195,122,o),
(195,153,cs),
(195,193,o),
(215,220,o),
(290,220,c),
(290,305,l),
(265,305,l),
(103,305,o),
(15,259,o),
(15,153,cs),
(15,61,o),
(77,-8,o),
(180,-8,c)
);
},
{
closed = 1;
nodes = (
(75,363,o),
(163,392,o),
(225,392,c),
(255,508,l),
(144,508,o),
(15,455,o),
(15,455,c),
(57,353,l)
);
},
{
closed = 1;
nodes = (
(470,302,ls),
(470,434,o),
(407,508,o),
(255,508,c),
(225,392,l),
(281,392,o),
(290,370,o),
(290,305,c),
(470,220,l)
);
},
{
closed = 1;
nodes = (
(400,180,o),
(275,107,o),
(240,107,c),
(180,-8,l),
(291,-8,o),
(400,121,o),
(400,121,c),
(400,180,l)
);
},
{
closed = 1;
nodes = (
(470,220,l),
(290,305,l),
(290,90,l),
(470,125,l)
);
},
{
closed = 1;
nodes = (
(350,508,o),
(291,379,o),
(291,250,c),
(471,195,l),
(471,314,o),
(476,393,o),
(526,393,c),
(536,508,l)
);
},
{
closed = 1;
nodes = (
(704,147,o),
(618,108,o),
(536,108,c),
(506,-8,l),
(657,-8,o),
(746,45,o),
(746,45,cs),
(704,147,l)
);
},
{
closed = 1;
nodes = (
(291,250,ls),
(291,121,o),
(354,-8,o),
(506,-8,c),
(536,108,l),
(476,108,o),
(471,145,o),
(471,195,c),
(291,250,l)
);
},
{
closed = 1;
nodes = (
(375,195,l),
(746,195,l),
(736,305,l),
(375,305,l)
);
},
{
closed = 1;
nodes = (
(526,393,l),
(576,393,o),
(574,314,o),
(574,195,c),
(746,195,l),
(746,369,o),
(722,508,o),
(536,508,c)
);
}
);
width = 761;
}
);
metricLeft = "=a";
metricRight = "=e";
unicode = 230;
}
{
glyphname = eth;
kernLeft = KO_eth;
layers = (
{
layerId = m01;
shapes = (
{
closed = 1;
nodes = (
(465,407,o),
(430,674,o),
(132,677,c),
(132,626,l),
(263,622,o),
(378,566,o),
(408,317,c),
(371,392,o),
(294,403,o),
(255,403,cs),
(105,403,o),
(45,291,o),
(45,197,cs),
(45,103,o),
(105,-10,o),
(255,-10,cs),
(405,-10,o),
(465,103,o),
(465,248,cs)
);
},
{
closed = 1;
nodes = (
(398,132,o),
(365,45,o),
(255,45,cs),
(145,45,o),
(112,132,o),
(112,197,cs),
(112,262,o),
(145,348,o),
(255,348,cs),
(365,348,o),
(398,262,o),
(398,197,cs)
);
},
{
closed = 1;
nodes = (
(225,500,l),
(268,458,l),
(445,634,l),
(402,677,l)
);
}
);
width = 507;
},
{
layerId = m002;
shapes = (
{
closed = 1;
nodes = (
(515,407,o),
(480,674,o),
(102,677,c),
(102,556,l),
(265,556,o),
(313,481,o),
(333,402,c),
(333,402,o),
(305,433,o),
(245,433,cs),
(95,433,o),
(15,331,o),
(15,212,cs),
(15,93,o),
(95,-10,o),
(265,-10,cs),
(435,-10,o),
(515,103,o),
(515,248,cs)
);
},
{
closed = 1;
nodes = (
(333,177,o),
(328,105,o),
(265,105,cs),
(202,105,o),
(197,177,o),
(197,212,c),
(197,247,o),
(202,318,o),
(265,318,cs),
(328,318,o),
(333,247,o),
(333,212,cs)
);
},
{
closed = 1;
nodes = (
(170,497,l),
(245,449,l),
(382,657,l),
(305,707,l)
);
}
);
width = 530;
}
);
unicode = 240;
}
{
glyphname = divide;
kernLeft = KO_plus;
kernRight = KO_plus;
layers = (
{
layerId = m01;
shapes = (
{
closed = 1;
nodes = (
(90,320,l),
(510,320,l),
(510,380,l),
(90,380,l)
);
},
{
closed = 1;
nodes = (
(325,488,o),
(345,508,o),
(345,533,cs),
(345,558,o),
(325,578,o),
(300,578,cs),
(275,578,o),
(255,558,o),
(255,533,cs),
(255,508,o),
(275,488,o),
(300,488,cs)
);
},
{
closed = 1;
nodes = (
(325,122,o),
(345,142,o),
(345,167,cs),
(345,192,o),
(325,212,o),
(300,212,cs),
(275,212,o),
(255,192,o),
(255,167,cs),
(255,142,o),
(275,122,o),
(300,122,cs)
);
}
);
width = 600;
},
{
layerId = m002;
shapes = (
{
closed = 1;
nodes = (
(50,290,l),
(550,290,l),
(550,410,l),
(50,410,l)
);
},
{
closed = 1;
nodes = (
(355,448,o),
(400,492,o),
(400,548,cs),
(400,603,o),
(355,648,o),
(300,648,cs),
(244,648,o),
(200,603,o),
(200,548,cs),
(200,492,o),
(244,448,o),
(300,448,cs)
);
},
{
closed = 1;
nodes = (
(355,52,o),
(400,97,o),
(400,152,cs),
(400,207,o),
(355,252,o),
(300,252,cs),
(245,252,o),
(200,207,o),
(200,152,c),
(200,97,o),
(245,52,o),
(300,52,cs)
);
}
);
width = 600;
}
);
metricRight = "=|";
unicode = 247;
userData = {
KernOnSpecialSpacing = {
L = math;
R = math;
};
};
}
{
glyphname = oslash;
kernLeft = KO_oslash;
layers = (
{
anchors = (
{
name = top;
pos = (273,500);
}
);
layerId = m002;
name = Black;
shapes = (
{
closed = 1;
nodes = (
(459,-8,o),
(518,121,o),
(518,250,cs),
(518,379,o),
(459,508,o),
(273,508,cs),
(87,508,o),
(28,379,o),
(28,250,cs),
(28,121,o),
(87,-8,o),
(273,-8,cs)
);
},
{
closed = 1;
nodes = (
(212,107,o),
(210,205,o),
(210,250,cs),
(210,294,o),
(212,392,o),
(273,392,cs),
(334,392,o),
(336,294,o),
(336,250,cs),
(336,205,o),
(334,107,o),
(273,107,cs)
);
},
{
closed = 1;
nodes = (
(438,355,l),
(531,465,l),
(439,541,l),
(348,433,l)
);
},
{
closed = 1;
nodes = (
(120,160,l),
(15,35,l),
(107,-41,l),
(210,82,l)
);
}
);
width = 546;
},
{
anchors = (
{
name = top;
pos = (277,500);
}
);
layerId = m01;
name = Light;
shapes = (
{
closed = 1;
nodes = (
(423,-8,o),
(482,121,o),
(482,250,cs),
(482,379,o),
(423,508,o),
(277,508,cs),
(131,508,o),
(72,379,o),
(72,250,cs),
(72,121,o),
(131,-8,o),
(277,-8,cs)
);
},
{
closed = 1;
nodes = (
(166,47,o),
(134,145,o),
(134,250,cs),
(134,354,o),
(166,452,o),
(277,452,cs),
(388,452,o),
(420,354,o),
(420,250,cs),
(420,145,o),
(388,47,o),
(277,47,cs)
);
},
{
closed = 1;
nodes = (
(427,382,l),
(512,484,l),
(466,522,l),
(391,432,l)
);
},
{
closed = 1;
nodes = (
(125,115,l),
(42,16,l),
(88,-22,l),
(164,69,l)
);
}
);
width = 554;
}
);
metricLeft = "=o";
metricRight = "=o";
unicode = 248;
}
{
glyphname = thorn;
kernLeft = KO_iacute;
kernRight = KO_ae;
layers = (
{
layerId = m01;
shapes = (
{
closed = 1;
nodes = (
(60,700,l),
(0,700,l),
(0,-200,l),
(60,-200,l)
);
},
{
closed = 1;
nodes = (
(0,140,l),
(0,140,o),
(79,-8,o),
(190,-8,c),
(190,47,l),
(98,47,o),
(32,150,o),
(32,150,c)
);
},
{
closed = 1;
nodes = (
(32,350,o),
(98,452,o),
(190,452,c),
(190,508,l),
(79,508,o),
(0,360,o),
(0,360,c),
(32,350,l)
);
},
{
closed = 1;
nodes = (
(301,452,o),
(333,354,o),
(333,250,cs),
(333,145,o),
(301,47,o),
(190,47,c),
(190,-8,l),
(336,-8,o),
(395,121,o),
(395,250,cs),
(395,379,o),
(336,508,o),
(190,508,c),
(190,452,l)
);
}
);
width = 425;
},
{
layerId = m002;
shapes = (
{
closed = 1;
nodes = (
(150,700,l),
(-30,700,l),
(-30,-200,l),
(150,-200,l)
);
},
{
closed = 1;
nodes = (
(40,170,l),
(40,170,o),
(149,-8,o),
(260,-8,c),
(200,107,l),
(165,107,o),
(40,170,o),
(40,170,c)
);
},
{
closed = 1;
nodes = (
(40,330,o),
(165,392,o),
(200,392,c),
(260,508,l),
(149,508,o),
(40,330,o),
(40,330,c),
(40,330,l)
);
},
{
closed = 1;
nodes = (
(261,392,o),
(263,294,o),
(263,250,cs),
(263,205,o),
(261,107,o),
(200,107,c),
(260,-8,l),
(386,-8,o),
(445,121,o),
(445,250,cs),
(445,379,o),
(386,508,o),
(260,508,c),
(200,392,l)
);
}
);
width = 460;
}
);
metricLeft = "=b";
metricRight = "=b";
unicode = 254;
}
{
glyphname = Hbar;
layers = (
{
anchors = (
{
name = bottom;
pos = (309,0);
},
{
name = center;
pos = (309,334);
},
{
name = top;
pos = (309,637);
},
{
name = topleft;
pos = (20,667);
}
);
layerId = m01;
shapes = (
{
closed = 1;
nodes = (
(473,0,l),
(536,0,l),
(536,667,l),
(473,667,l),
(473,380,l),
(145,380,l),
(145,667,l),
(82,667,l),
(82,0,l),
(145,0,l),
(145,320,l),
(473,320,l)
);
},
{
closed = 1;
nodes = (
(618,494,l),
(618,554,l),
(0,554,l),
(0,494,l)
);
}
);
width = 618;
},
{
anchors = (
{
name = bottom;
pos = (307,0);
},
{
name = center;
pos = (307,334);
},
{
name = top;
pos = (307,657);
},
{
name = topleft;
pos = (20,657);
}
);
layerId = m002;
shapes = (
{
closed = 1;
nodes = (
(386,0,l),
(569,0,l),
(569,667,l),
(386,667,l),
(386,420,l),
(228,420,l),
(228,667,l),
(45,667,l),
(45,0,l),
(228,0,l),
(228,280,l),
(386,280,l)
);
},
{
closed = 1;
nodes = (
(618,484,l),
(618,604,l),
(0,604,l),
(0,484,l)
);
}
);
width = 614;
}
);
unicode = 294;
}
{
glyphname = hbar;
kernLeft = KO_iacute;
kernRight = KO_eng;
layers = (
{
anchors = (
{
name = bottom;
pos = (258,0);
},
{
name = center;
pos = (258,350);
},
{
name = top;
pos = (258,670);
}
);
layerId = m01;
shapes = (
{
closed = 1;
nodes = (
(440,250,l),
(440,302,ls),
(440,434,o),
(377,508,o),
(265,508,c),
(265,453,l),
(345,453,o),
(380,407,o),
(380,250,c)
);
},
{
closed = 1;
nodes = (
(135,710,l),
(75,700,l),
(75,0,l),
(135,-1,l)
);
},
{
closed = 1;
nodes = (
(440,0,l),
(440,250,l),
(380,250,l),
(380,0,l)
);
},
{
closed = 1;
nodes = (
(107,350,o),
(173,453,o),
(265,453,c),
(265,508,l),
(154,508,o),
(75,360,o),
(75,360,c),
(107,350,l)
);
},
{
closed = 1;
nodes = (
(265,573,l),
(265,628,l),
(5,628,l),
(5,573,l)
);
}
);
width = 445;
},
{
anchors = (
{
name = bottom;
pos = (258,0);
},
{
name = center;
pos = (258,350);
},
{
name = top;
pos = (258,690);
}
);
layerId = m002;
shapes = (
{
closed = 1;
nodes = (
(480,250,l),
(480,302,ls),
(480,434,o),
(417,508,o),
(325,508,c),
(265,373,l),
(300,373,o),
(300,327,o),
(300,250,c)
);
},
{
closed = 1;
nodes = (
(215,710,l),
(35,694,l),
(35,0,l),
(215,-1,l)
);
},
{
closed = 1;
nodes = (
(480,0,l),
(480,250,l),
(300,250,l),
(300,0,l)
);
},
{
closed = 1;
nodes = (
(105,330,o),
(230,373,o),
(265,373,c),
(325,508,l),
(214,508,o),
(105,330,o),
(105,330,c),
(105,330,l)
);
},
{
closed = 1;
nodes = (
(325,540,l),
(325,660,l),
(-35,660,l),
(-35,540,l)
);
}
);
width = 485;
}
);
metricRight = "=n";
unicode = 295;
}
{
glyphname = idotless;
kernLeft = KO_iacute;
kernRight = KO_j;
layers = (
{
anchors = (
{
name = bottom;
pos = (115,0);
},
{
name = ogonek;
pos = (215,0);
},
{
name = top;
pos = (115,500);
}
);
layerId = m01;
shapes = (
{
closed = 1;
nodes = (
(145,0,l),
(145,500,l),
(85,500,l),
(85,0,l)
);
},
{
pos = (85,500);
ref = _serif.Spur;
},
{
pos = (85,0);
ref = _serif.I.BL;
},
{
pos = (145,0);
ref = _serif.I.BR;
}
);
width = 230;
},
{
anchors = (
{
name = bottom;
pos = (170,0);
},
{
name = ogonek;
pos = (335,0);
},
{
name = top;
pos = (170,500);
}
);
layerId = m002;
shapes = (
{
closed = 1;
nodes = (
(265,0,l),
(265,500,l),
(85,500,l),
(85,0,l)
);
},
{
pos = (85,500);
ref = _serif.Spur;
},
{
pos = (85,0);
ref = _serif.I.BL;
},
{
pos = (265,0);
ref = _serif.I.BR;
}
);
width = 340;
}
);
unicode = 305;
}
{
glyphname = Lslash;
kernRight = KO_Lslash;
layers = (
{
anchors = (
{
name = bottom;
pos = (224,0);
},
{
name = center;
pos = (224,334);
},
{
name = top;
pos = (224,637);
},
{
name = topright;
pos = (427,637);
}
);
layerId = m01;
shapes = (
{
closed = 1;
nodes = (
(145,667,l),
(82,667,l),
(82,0,l),
(145,0,l)
);
},
{
closed = 1;
nodes = (
(432,0,l),
(432,60,l),
(82,60,l),
(82,0,l)
);
},
{
closed = 1;
nodes = (
(-8,312,l),
(19,264,l),
(235,389,l),
(207,436,l)
);
}
);
width = 447;
},
{
anchors = (
{
name = bottom;
pos = (238,0);
},
{
name = center;
pos = (238,334);
},
{
name = top;
pos = (238,657);
},
{
name = topright;
pos = (455,657);
}
);
layerId = m002;
shapes = (
{
closed = 1;
nodes = (
(228,667,l),
(45,667,l),
(45,0,l),
(228,0,l)
);
},
{
closed = 1;
nodes = (
(475,0,l),
(475,120,l),
(45,120,l),
(45,0,l)
);
},
{
closed = 1;
nodes = (
(-54,310,l),
(6,205,l),
(327,391,l),
(267,495,l)
);
}
);
width = 475;
}
);
unicode = 321;
}
{
glyphname = lslash;
kernLeft = KO_lslash;
layers = (
{
anchors = (
{
name = bottom;
pos = (105,0);
},
{
name = center;
pos = (105,350);
},
{
name = top;
pos = (105,700);
},
{
name = topright;
pos = (210,700);
}
);
layerId = m01;
shapes = (
{
closed = 1;
nodes = (
(135,50,o),
(135,105,o),
(135,196,cs),
(135,710,l),
(75,700,l),
(75,196,ls),
(75,87,o),
(75,0,o),
(180,0,c),
(180,50,l)
);
},
{
closed = 1;
nodes = (
(180,0,l),
(204,0,l),
(204,50,l),
(180,50,l)
);
},
{
closed = 1;
nodes = (
(-17,311,l),
(11,264,l),
(227,389,l),
(199,436,l)
);
}
);
width = 230;
},
{
anchors = (
{
name = bottom;
pos = (115,0);
},
{
name = center;
pos = (115,350);
},
{
name = top;
pos = (115,700);
},
{
name = topright;
pos = (255,700);
}
);
layerId = m002;
shapes = (
{
closed = 1;
nodes = (
(205,110,o),
(205,165,o),
(205,196,cs),
(205,710,l),
(25,700,l),
(25,196,ls),
(25,87,o),
(65,0,o),
(210,0,c),
(250,110,l)
);
},
{
closed = 1;
nodes = (
(210,0,l),
(275,0,l),
(275,110,l),
(250,110,l)
);
},
{
closed = 1;
nodes = (
(-75,310,l),
(-15,205,l),
(306,391,l),
(246,495,l)
);
}
);
width = 275;
}
);
unicode = 322;
}
{
glyphname = Eng;
kernLeft = KO_K.salt;
layers = (
{
anchors = (
{
name = bottom;
pos = (297,0);
},
{
name = top;
pos = (297,637);
}
);
layerId = m01;
shapes = (
{
closed = 1;
nodes = (
(473,0,l),
(536,0,l),
(536,666,l),
(473,666,l),
(473,115,l),
(165,667,l),
(82,666,l),
(82,0,l),
(145,0,l),
(145,572,l)
);
},
{
closed = 1;
nodes = (
(473,0,l),
(473,-83,o),
(441,-153,o),
(361,-153,c),
(361,-208,l),
(473,-208,o),
(536,-134,o),
(536,-2,cs),
(536,70,l)
);
}
);
width = 618;
},
{
anchors = (
{
name = bottom;
pos = (310,0);
},
{
name = top;
pos = (310,657);
}
);
layerId = m002;
shapes = (
{
closed = 1;
nodes = (
(420,0,l),
(575,0,l),
(575,666,l),
(420,666,l),
(420,305,l),
(200,667,l),
(45,666,l),
(45,0,l),
(200,0,l),
(200,360,l)
);
},
{
closed = 1;
nodes = (
(420,0,l),
(420,-63,o),
(395,-93,o),
(330,-93,c),
(330,-208,l),
(472,-208,o),
(575,-134,o),
(575,-2,cs),
(575,70,l)
);
}
);
width = 620;
}
);
metricLeft = "=H";
metricRight = "=H";
unicode = 330;
}
{
glyphname = eng;
kernLeft = KO_iacute;
kernRight = KO_eng;
layers = (
{
anchors = (
{
name = bottom;
pos = (258,0);
},
{
name = top;
pos = (258,500);
}
);
layerId = m01;
shapes = (
{
closed = 1;
nodes = (
(439,302,ls),
(436,434,o),
(376,508,o),
(264,508,c),
(264,453,l),
(344,453,o),
(380,407,o),
(380,250,c),
(440,250,l)
);
},
{
closed = 1;
nodes = (
(75,0,l),
(135,0,l),
(135,440,l),
(75,360,l)
);
},
{
closed = 1;
nodes = (
(380,0,l),
(440,0,l),
(440,250,l),
(380,250,l)
);
},
{
closed = 1;
nodes = (
(105,500,l),
(75,500,l),
(75,360,l),
(135,440,l)
);
},
{
closed = 1;
nodes = (
(107,350,o),
(173,453,o),
(265,453,c),
(265,508,l),
(154,508,o),
(75,360,o),
(75,360,c),
(107,350,l)
);
},
{
closed = 1;
nodes = (
(380,60,l),
(380,-117,o),
(345,-153,o),
(265,-153,c),
(265,-208,l),
(377,-208,o),
(440,-134,o),
(440,-2,cs),
(440,0,l)
);
}
);
width = 515;
},
{
anchors = (
{
name = bottom;
pos = (258,0);
},
{
name = top;
pos = (258,500);
}
);
layerId = m002;
shapes = (
{
closed = 1;
nodes = (
(480,302,ls),
(480,435,o),
(416,508,o),
(324,508,c),
(264,373,l),
(300,373,o),
(300,327,o),
(300,250,c),
(480,250,l)
);
},
{
closed = 1;
nodes = (
(35,0,l),
(215,0,l),
(215,440,l),
(35,360,l)
);
},
{
closed = 1;
nodes = (
(300,0,l),
(480,0,l),
(480,250,l),
(300,250,l)
);
},
{
closed = 1;
nodes = (
(185,500,l),
(35,500,l),
(35,360,l),
(215,440,l)
);
},
{
closed = 1;
nodes = (
(105,330,o),
(230,373,o),
(265,373,c),
(325,508,l),
(214,508,o),
(105,330,o),
(105,330,c),
(105,330,l)
);
},
{
closed = 1;
nodes = (
(300,30,l),
(300,-63,o),
(300,-93,o),
(235,-93,c),
(235,-208,l),
(377,-208,o),
(480,-134,o),
(480,-2,cs),
(480,0,l)
);
}
);
width = 515;
}
);
unicode = 331;
}
{
glyphname = OE;
kernRight = KO_AE;
layers = (
{
layerId = m01;
shapes = (
{
closed = 1;
nodes = (
(537,-10,o),
(589,154,o),
(589,334,c),
(589,514,o),
(537,676,o),
(332,676,c),
(127,676,o),
(45,514,o),
(45,334,cs),
(45,154,o),
(127,-10,o),
(332,-10,cs)
);
},
{
closed = 1;
nodes = (
(177,50,o),
(117,177,o),
(117,334,cs),
(117,491,o),
(177,616,o),
(332,616,cs),
(487,616,o),
(547,491,o),
(547,334,cs),
(547,177,o),
(487,50,o),
(332,50,cs)
);
},
{
closed = 1;
nodes = (
(547,155,l),
(547,0,l),
(926,0,l),
(926,60,l),
(610,60,l),
(610,320,l),
(877,320,l),
(877,380,l),
(610,380,l),
(610,607,l),
(927,607,l),
(927,667,l),
(547,667,l)
);
}
);
width = 968;
},
{
layerId = m002;
shapes = (
{
closed = 1;
nodes = (
(587,-10,o),
(579,334,o),
(579,334,cs),
(579,334,o),
(587,676,o),
(342,676,cs),
(96,676,o),
(15,514,o),
(15,334,cs),
(15,154,o),
(96,-10,o),
(342,-10,cs)
);
},
{
closed = 1;
nodes = (
(227,110,o),
(207,234,o),
(207,334,cs),
(207,434,o),
(227,556,o),
(342,556,cs),
(457,556,o),
(477,434,o),
(477,334,cs),
(477,234,o),
(457,110,o),
(342,110,cs)
);
},
{
closed = 1;
nodes = (
(478,342,l),
(478,0,l),
(937,0,l),
(937,140,l),
(661,140,l),
(661,265,l),
(888,265,l),
(888,405,l),
(661,405,l),
(661,527,l),
(938,527,l),
(938,667,l),
(478,667,l)
);
}
);
width = 961;
}
);
metricLeft = "=O";
metricRight = "=E";
unicode = 338;
}
{
glyphname = oe;
kernLeft = KO_e.salt;
kernRight = KO_ae;
layers = (
{
layerId = m01;
shapes = (
{
closed = 1;
nodes = (
(381,-8,o),
(430,121,o),
(430,250,cs),
(430,379,o),
(381,508,o),
(235,508,cs),
(89,508,o),
(30,379,o),
(30,250,cs),
(30,121,o),
(89,-8,o),
(235,-8,cs)
);
},
{
closed = 1;
nodes = (
(124,47,o),
(92,145,o),
(92,250,cs),
(92,354,o),
(124,452,o),
(235,452,cs),
(346,452,o),
(378,354,o),
(378,250,cs),
(378,145,o),
(346,47,o),
(235,47,cs)
);
},
{
closed = 1;
nodes = (
(583,48,l),
(473,48,o),
(438,145,o),
(438,225,c),
(388,250,l),
(388,121,o),
(437,-8,o),
(583,-8,c)
);
},
{
closed = 1;
nodes = (
(674,-8,o),
(748,45,o),
(748,45,c),
(721,87,l),
(721,87,o),
(655,48,o),
(583,48,c),
(583,-8,l)
);
},
{
closed = 1;
nodes = (
(438,354,o),
(472,453,o),
(583,453,c),
(583,508,l),
(437,508,o),
(388,379,o),
(388,250,c),
(438,225,l)
);
},
{
closed = 1;
nodes = (
(763,225,l),
(763,379,o),
(739,508,o),
(583,508,c),
(583,453,l),
(704,453,o),
(701,354,o),
(701,225,c)
);
},
{
closed = 1;
nodes = (
(763,225,l),
(753,275,l),
(422,275,l),
(422,225,l)
);
}
);
width = 823;
},
{
layerId = m002;
shapes = (
{
closed = 1;
nodes = (
(446,-8,o),
(435,121,o),
(435,250,cs),
(435,379,o),
(446,508,o),
(260,508,cs),
(74,508,o),
(15,379,o),
(15,250,cs),
(15,121,o),
(74,-8,o),
(260,-8,cs)
);
},
{
closed = 1;
nodes = (
(199,107,o),
(197,205,o),
(197,250,cs),
(197,294,o),
(199,392,o),
(260,392,cs),
(321,392,o),
(323,294,o),
(323,250,cs),
(323,205,o),
(321,107,o),
(260,107,cs)
);
},
{
closed = 1;
nodes = (
(568,108,l),
(508,108,o),
(503,145,o),
(503,195,c),
(393,250,l),
(393,121,o),
(386,-8,o),
(538,-8,c)
);
},
{
closed = 1;
nodes = (
(689,-8,o),
(778,45,o),
(778,45,cs),
(736,147,l),
(736,147,o),
(650,108,o),
(568,108,c),
(538,-8,l)
);
},
{
closed = 1;
nodes = (
(503,314,o),
(508,393,o),
(558,393,c),
(568,508,l),
(382,508,o),
(393,379,o),
(393,250,c),
(503,195,l)
);
},
{
closed = 1;
nodes = (
(778,195,l),
(778,369,o),
(754,508,o),
(568,508,c),
(558,393,l),
(608,393,o),
(606,314,o),
(606,195,c)
);
},
{
closed = 1;
nodes = (
(778,195,l),
(768,305,l),
(407,305,l),
(407,195,l)
);
}
);
width = 808;
}
);
metricLeft = "=o";
metricRight = "=e";
unicode = 339;
}
{
glyphname = Schwa;
layers = (
{
layerId = m01;
shapes = (
{
closed = 1;
nodes = (
(317,616,l),
(472,616,o),
(532,491,o),
(532,334,cs),
(532,177,o),
(472,50,o),
(317,50,cs),
(162,50,o),
(102,177,o),
(102,334,c),
(30,334,l),
(30,154,o),
(112,-10,o),
(317,-10,cs),
(522,-10,o),
(604,154,o),
(604,334,cs),
(604,514,o),
(522,676,o),
(317,676,c)
);
},
{
closed = 1;
nodes = (
(317,676,l),
(252,676,o),
(195,656,o),
(145,630,c),
(174,578,l),
(220,598,o),
(266,616,o),
(317,616,c)
);
},
{
closed = 1;
nodes = (
(30,334,l),
(61,320,l),
(545,320,l),
(545,380,l),
(30,380,l)
);
}
);
width = 634;
},
{
layerId = m002;
shapes = (
{
closed = 1;
nodes = (
(342,556,l),
(457,556,o),
(477,434,o),
(477,334,cs),
(477,234,o),
(457,110,o),
(342,110,cs),
(227,110,o),
(207,234,o),
(207,334,c),
(15,334,l),
(15,154,o),
(96,-10,o),
(342,-10,cs),
(587,-10,o),
(669,154,o),
(669,334,cs),
(669,514,o),
(587,676,o),
(342,676,c)
);
},
{
closed = 1;
nodes = (
(342,676,l),
(250,676,o),
(180,651,o),
(130,630,c),
(159,518,l),
(222,545,o),
(273,556,o),
(342,556,c)
);
},
{
closed = 1;
nodes = (
(15,334,l),
(92,280,l),
(551,280,l),
(551,420,l),
(15,420,l)
);
}
);
width = 684;
}
);
metricLeft = "=O";
metricRight = "=O";
unicode = 399;
}
{
glyphname = Ezh;
layers = (
{
anchors = (
{
name = bottom;
pos = (195,-10);
},
{
name = top;
pos = (216,637);
}
);
layerId = m01;
shapes = (
{
closed = 1;
nodes = (
(37,607,l),
(368,607,l),
(381,667,l),
(37,667,l)
);
},
{
closed = 1;
nodes = (
(195,50,l),
(144,50,o),
(98,68,o),
(52,88,c),
(23,36,l),
(73,10,o),
(130,-10,o),
(195,-10,c)
);
},
{
closed = 1;
nodes = (
(355,-10,o),
(429,77,o),
(429,194,cs),
(429,300,o),
(355,380,o),
(195,380,c),
(128,380,l),
(128,324,l),
(297,324,o),
(357,292,o),
(357,194,cs),
(357,106,o),
(297,50,o),
(195,50,c),
(195,-10,l)
);
},
{
closed = 1;
nodes = (
(393,607,l),
(393,667,l),
(351,667,l),
(128,380,l),
(181,350,l)
);
}
);
width = 440;
},
{
anchors = (
{
name = bottom;
pos = (180,-10);
},
{
name = top;
pos = (225,657);
}
);
layerId = m002;
shapes = (
{
closed = 1;
nodes = (
(23,547,l),
(419,547,l),
(419,667,l),
(23,667,l)
);
},
{
closed = 1;
nodes = (
(180,110,l),
(129,110,o),
(83,128,o),
(37,148,c),
(8,36,l),
(58,10,o),
(115,-10,o),
(180,-10,c)
);
},
{
closed = 1;
nodes = (
(380,-10,o),
(454,77,o),
(454,194,cs),
(454,300,o),
(380,410,o),
(200,410,c),
(48,410,l),
(48,295,l),
(226,295,o),
(262,252,o),
(262,194,cs),
(262,136,o),
(226,110,o),
(180,110,c),
(180,-10,l)
);
},
{
closed = 1;
nodes = (
(419,547,l),
(414,667,l),
(357,667,l),
(48,410,l),
(201,380,l)
);
}
);
width = 458;
}
);
metricLeft = "=B/2";
metricRight = "=B";
unicode = 439;
}
{
glyphname = gstroke;
layers = (
{
anchors = (
{
name = bottom;
pos = (225,-200);
},
{
name = top;
pos = (327,-13);
}
);
layerId = m01;
shapes = (
{
closed = 1;
nodes = (
(365,-208,o),
(430,-145,o),
(430,-50,cs),
(430,55,o),
(360,72,o),
(220,60,cs),
(80,48,o),
(77,71,o),
(163,202,c),
(132,215,l),
(103,173,o),
(55,115,o),
(55,70,cs),
(55,25,o),
(56,-8,o),
(220,0,cs),
(348,6,o),
(368,-10,o),
(368,-50,cs),
(368,-90,o),
(353,-153,o),
(225,-153,cs),
(133,-153,o),
(88,-121,o),
(70,-111,c),
(45,-155,l),
(45,-155,o),
(114,-208,o),
(225,-208,cs)
);
},
{
pos = (45,-155);
ref = _serif.s.BL;
},
{
closed = 1;
nodes = (
(80,-95,l),
(465,-95,l),
(465,-55,l),
(45,-55,l),
(45,-155,l)
);
},
{
closed = 1;
nodes = (
(330,158,o),
(395,238,o),
(395,333,c),
(395,428,o),
(330,508,o),
(220,508,cs),
(110,508,o),
(45,428,o),
(45,333,cs),
(45,238,o),
(110,158,o),
(220,158,cs)
);
},
{
closed = 1;
nodes = (
(147,208,o),
(107,263,o),
(107,333,cs),
(107,403,o),
(147,458,o),
(220,458,cs),
(293,458,o),
(333,403,o),
(333,333,cs),
(333,263,o),
(293,208,o),
(220,208,cs)
);
},
{
closed = 1;
nodes = (
(395,333,l),
(395,500,l),
(360,500,l),
(360,333,l)
);
},
{
pos = (395,500);
ref = _serif.I.TR;
}
);
width = 480;
},
{
anchors = (
{
name = bottom;
pos = (235,-200);
},
{
name = top;
pos = (298.823,13);
}
);
layerId = m002;
shapes = (
{
closed = 1;
nodes = (
(395,-208,o),
(475,-135,o),
(475,-25,cs),
(475,105,o),
(410,148,o),
(230,130,cs),
(130,120,o),
(127,103,o),
(183,202,c),
(142,245,l),
(93,203,o),
(25,135,o),
(25,90,cs),
(25,45,o),
(26,5,o),
(230,20,cs),
(298,25,o),
(328,20,o),
(328,-25,cs),
(328,-70,o),
(303,-93,o),
(235,-93,cs),
(123,-93,o),
(70,-61,o),
(70,-61,c),
(15,-155,l),
(15,-155,o),
(84,-208,o),
(235,-208,cs)
);
},
{
pos = (15,-155);
ref = _serif.s.BL;
},
{
closed = 1;
nodes = (
(52,-70,l),
(516,-70,l),
(516,0,l),
(15,0,l),
(15,-155,l)
);
},
{
closed = 1;
nodes = (
(380,158,o),
(445,238,o),
(445,333,cs),
(445,428,o),
(380,508,o),
(230,508,cs),
(80,508,o),
(15,428,o),
(15,333,cs),
(15,238,o),
(80,158,o),
(230,158,cs)
);
},
{
closed = 1;
nodes = (
(197,263,o),
(182,293,o),
(182,333,c),
(182,373,o),
(197,403,o),
(230,403,cs),
(263,403,o),
(278,373,o),
(278,333,c),
(278,293,o),
(263,263,o),
(230,263,cs)
);
},
{
closed = 1;
nodes = (
(445,333,l),
(445,500,l),
(410,500,l),
(410,333,l)
);
},
{
pos = (445,500);
ref = _serif.I.TR;
}
);
width = 520;
}
);
unicode = 485;
}
{
glyphname = jdotless;
layers = (
{
anchors = (
{
name = bottom;
pos = (105,-200);
},
{
name = top;
pos = (105,500);
}
);
layerId = m01;
shapes = (
{
closed = 1;
nodes = (
(75,500,l),
(75,-33,l),
(75,-125,o),
(57,-153,o),
(2,-153,cs),
(-10,-153,o),
(-20,-152,o),
(-35,-150,c),
(-45,-200,l),
(-26,-204,o),
(-15,-205,o),
(2,-205,cs),
(102,-205,o),
(135,-154,o),
(135,0,c),
(135,500,l)
);
},
{
pos = (75,500);
ref = _serif.Spur;
}
);
width = 210;
},
{
anchors = (
{
name = bottom;
pos = (153,-200);
},
{
name = top;
pos = (153,500);
}
);
layerId = m002;
shapes = (
{
closed = 1;
nodes = (
(85,500,l),
(85,-33,l),
(85,-65,o),
(84,-93,o),
(52,-93,cs),
(40,-93,o),
(30,-92,o),
(15,-90,c),
(5,-200,l),
(24,-204,o),
(55,-207,o),
(92,-207,cs),
(232,-207,o),
(265,-154,o),
(265,0,c),
(265,500,l)
);
},
{
pos = (85,500);
ref = _serif.Spur;
}
);
width = 305;
}
);
unicode = 567;
}
{
glyphname = schwa;
kernLeft = KO_schwa;
kernRight = KO_ae;
layers = (
{
layerId = m01;
shapes = (
{
closed = 1;
nodes = (
(371,-8,o),
(430,121,o),
(430,250,c),
(370,275,l),
(370,146,o),
(336,47,o),
(225,47,c),
(225,-8,l)
);
},
{
closed = 1;
nodes = (
(87,413,o),
(153,452,o),
(225,452,c),
(225,508,l),
(134,508,o),
(60,455,o),
(60,455,c),
(87,413,l)
);
},
{
closed = 1;
nodes = (
(430,250,ls),
(430,379,o),
(371,508,o),
(225,508,c),
(225,452,l),
(335,452,o),
(370,355,o),
(370,275,c),
(430,250,l)
);
},
{
closed = 1;
nodes = (
(386,275,l),
(45,275,l),
(55,225,l),
(386,225,l)
);
},
{
closed = 1;
nodes = (
(225,47,l),
(104,47,o),
(107,146,o),
(107,275,c),
(45,275,l),
(45,121,o),
(69,-8,o),
(225,-8,c)
);
}
);
width = 460;
},
{
layerId = m002;
shapes = (
{
closed = 1;
nodes = (
(411,-8,o),
(470,121,o),
(470,250,c),
(290,305,l),
(290,186,o),
(285,107,o),
(235,107,c),
(225,-8,l)
);
},
{
closed = 1;
nodes = (
(57,353,o),
(143,392,o),
(225,392,c),
(255,508,l),
(104,508,o),
(15,455,o),
(15,455,cs),
(57,353,l)
);
},
{
closed = 1;
nodes = (
(470,250,ls),
(470,379,o),
(407,508,o),
(255,508,c),
(225,392,l),
(285,392,o),
(290,355,o),
(290,305,c),
(470,250,l)
);
},
{
closed = 1;
nodes = (
(386,305,l),
(15,305,l),
(25,195,l),
(386,195,l)
);
},
{
closed = 1;
nodes = (
(235,107,l),
(185,107,o),
(187,186,o),
(187,305,c),
(15,305,l),
(15,131,o),
(39,-8,o),
(225,-8,c)
);
}
);
width = 485;
}
);
metricLeft = "=a";
metricRight = "=o";
unicode = 601;
}
{
glyphname = ezh;
layers = (
{
anchors = (
{
name = bottom;
pos = (277,0);
},
{
name = top;
pos = (277,500);
}
);
layerId = m01;
shapes = (
{
closed = 1;
nodes = (
(100,500,l),
(100,440,l),
(370,440,l),
(232,264,l),
(291,238,l),
(445,440,l),
(445,500,l)
);
},
{
closed = 1;
nodes = (
(402,-126,o),
(487,-59,o),
(487,69,c),
(487,183,o),
(402,264,o),
(232,264,c),
(232,209,l),
(354,209,o),
(415,157,o),
(415,69,cs),
(415,-19,o),
(354,-66,o),
(232,-66,c),
(232,-126,l)
);
},
{
closed = 1;
nodes = (
(232,-66,l),
(181,-66,o),
(135,-48,o),
(89,-28,c),
(60,-80,l),
(110,-106,o),
(167,-126,o),
(232,-126,c)
);
}
);
width = 529;
},
{
anchors = (
{
name = bottom;
pos = (269,0);
},
{
name = top;
pos = (269,500);
}
);
layerId = m002;
shapes = (
{
closed = 1;
nodes = (
(40,500,l),
(40,380,l),
(290,380,l),
(172,264,l),
(295,198,l),
(470,380,l),
(470,500,l)
);
},
{
closed = 1;
nodes = (
(437,-156,o),
(522,-84,o),
(522,44,cs),
(522,172,o),
(437,264,o),
(172,264,c),
(172,149,l),
(269,149,o),
(330,132,o),
(330,59,cs),
(330,-14,o),
(269,-36,o),
(227,-36,c),
(227,-156,l)
);
},
{
closed = 1;
nodes = (
(227,-36,l),
(158,-36,o),
(107,-25,o),
(44,2,c),
(15,-110,l),
(65,-131,o),
(135,-156,o),
(227,-156,c)
);
}
);
width = 537;
}
);
metricLeft = "=z";
unicode = 658;
}
{
glyphname = primemod;
layers = (
{
layerId = m01;
shapes = (
{
closed = 1;
nodes = (
(25,500,l),
(65,500,l),
(75,700,l),
(15,700,l)
);
}
);
width = 90;
},
{
layerId = m002;
shapes = (
{
closed = 1;
nodes = (
(35,440,l),
(135,440,l),
(155,700,l),
(15,700,l)
);
}
);
width = 160;
}
);
metricLeft = "=i";
metricRight = "=i";
unicode = 697;
}
{
glyphname = apostrophemod;
kernLeft = KO_apostrophemod;
kernRight = KO_apostrophemod;
layers = (
{
layerId = m01;
shapes = (
{
closed = 1;
nodes = (
(15,500,l),
(55,500,l),
(115,700,l),
(55,700,l)
);
}
);
width = 130;
},
{
layerId = m002;
shapes = (
{
closed = 1;
nodes = (
(15,440,l),
(115,440,l),
(215,700,l),
(75,700,l)
);
}
);
width = 220;
}
);
metricLeft = "=i";
metricRight = "=i";
unicode = 700;
userData = {
KernOnSpecialSpacing = {
L = quotes;
R = quotes;
};
};
}
{
glyphname = verticallinemod;
kernLeft = KO_verticallinemod;
layers = (
{
layerId = m01;
shapes = (
{
closed = 1;
nodes = (
(15,500,l),
(75,500,l),
(75,700,l),
(15,700,l)
);
}
);
width = 90;
},
{
layerId = m002;
shapes = (
{
closed = 1;
nodes = (
(15,440,l),
(155,440,l),
(155,700,l),
(15,700,l)
);
}
);
width = 160;
}
);
metricLeft = "=i";
metricRight = "=i";
unicode = 712;
}
{
glyphname = gravecomb;
layers = (
{
anchors = (
{
name = _top;
pos = (145,500);
},
{
name = top;
pos = (145,700);
}
);
layerId = m01;
shapes = (
{
closed = 1;
nodes = (
(145,560,l),
(205,560,l),
(105,700,l),
(15,700,l)
);
}
);
width = 220;
},
{
anchors = (
{
name = _top;
pos = (145,500);
},
{
name = top;
pos = (145,700);
}
);
layerId = m002;
shapes = (
{
closed = 1;
nodes = (
(145,540,l),
(285,540,l),
(195,700,l),
(15,700,l)
);
}
);
width = 290;
}
);
metricLeft = "=i";
metricRight = "=i";
unicode = 768;
userData = {
KernOnSpecialSpacing = {
L = NoKerning;
R = NoKerning;
};
};
}
{
glyphname = acutecomb;
layers = (
{
anchors = (
{
name = _top;
pos = (75,500);
},
{
name = top;
pos = (75,700);
}
);
layerId = m01;
shapes = (
{
closed = 1;
nodes = (
(115,700,l),
(15,560,l),
(75,560,l),
(205,700,l)
);
}
);
width = 220;
},
{
anchors = (
{
name = _top;
pos = (155,500);
},
{
name = top;
pos = (155,700);
}
);
layerId = m002;
shapes = (
{
closed = 1;
nodes = (
(105,700,l),
(15,540,l),
(155,540,l),
(285,700,l)
);
}
);
width = 290;
}
);
metricLeft = "=i";
metricRight = "=i";
unicode = 769;
userData = {
KernOnSpecialSpacing = {
L = NoKerning;
R = NoKerning;
};
};
}
{
glyphname = circumflexcomb;
layers = (
{
anchors = (
{
name = _top;
pos = (160,500);
},
{
name = top;
pos = (160,700);
}
);
layerId = m01;
shapes = (
{
closed = 1;
nodes = (
(245,560,l),
(305,560,l),
(195,700,l),
(125,700,l)
);
},
{
closed = 1;
nodes = (
(125,700,l),
(15,560,l),
(75,560,l),
(195,700,l)
);
}
);
width = 320;
},
{
anchors = (
{
name = _top;
pos = (195,500);
},
{
name = top;
pos = (195,700);
}
);
layerId = m002;
shapes = (
{
closed = 1;
nodes = (
(235,540,l),
(375,540,l),
(275,700,l),
(135,700,l)
);
},
{
closed = 1;
nodes = (
(115,700,l),
(15,540,l),
(155,540,l),
(255,700,l)
);
}
);
width = 380;
}
);
metricLeft = "=i";
metricRight = "=i";
unicode = 770;
userData = {
KernOnSpecialSpacing = {
L = NoKerning;
R = NoKerning;
};
};
}
{
glyphname = tildecomb;
layers = (
{
anchors = (
{
name = _top;
pos = (190,500);
},
{
name = top;
pos = (190,710);
}
);
layerId = m01;
shapes = (
{
closed = 1;
nodes = (
(55,585,l),
(55,585,o),
(93,625,o),
(127,625,cs),
(195,625,o),
(193,575,o),
(261,575,cs),
(329,575,o),
(365,635,o),
(365,635,c),
(322,675,l),
(322,675,o),
(295,635,o),
(261,635,c),
(193,635,o),
(195,685,o),
(127,685,cs),
(59,685,o),
(15,625,o),
(15,625,c)
);
}
);
width = 380;
},
{
anchors = (
{
name = _top;
pos = (250,500);
},
{
name = top;
pos = (250,720);
}
);
layerId = m002;
shapes = (
{
closed = 1;
nodes = (
(95,555,l),
(95,555,o),
(143,595,o),
(197,595,cs),
(245,595,o),
(273,535,o),
(341,535,c),
(409,535,o),
(485,605,o),
(485,605,cs),
(402,705,l),
(402,705,o),
(365,665,o),
(311,665,c),
(263,665,o),
(235,725,o),
(167,725,cs),
(99,725,o),
(15,655,o),
(15,655,c)
);
}
);
width = 490;
}
);
metricLeft = "=i";
metricRight = "=i";
unicode = 771;
userData = {
KernOnSpecialSpacing = {
L = NoKerning;
R = NoKerning;
};
};
}
{
glyphname = macroncomb;
layers = (
{
anchors = (
{
name = _top;
pos = (247,500);
},
{
name = top;
pos = (247,700);
}
);
layerId = m01;
shapes = (
{
closed = 1;
nodes = (
(110,603,l),
(385,603,l),
(385,658,l),
(110,658,l)
);
}
);
width = 495;
},
{
anchors = (
{
name = _top;
pos = (247,500);
},
{
name = top;
pos = (247,700);
}
);
layerId = m002;
shapes = (
{
closed = 1;
nodes = (
(110,552,l),
(385,552,l),
(385,667,l),
(110,667,l)
);
}
);
width = 495;
}
);
metricRight = "=|";
unicode = 772;
userData = {
KernOnSpecialSpacing = {
L = NoKerning;
R = NoKerning;
};
};
}
{
glyphname = brevecomb;
layers = (
{
anchors = (
{
name = _top;
pos = (202,500);
},
{
name = top;
pos = (202,700);
}
);
layerId = m01;
shapes = (
{
closed = 1;
nodes = (
(45,700,l),
(50,615,o),
(117,551,o),
(201,551,cs),
(284,551,o),
(352,616,o),
(358,700,c),
(312,700,l),
(309,643,o),
(261,601,o),
(201,601,cs),
(142,601,o),
(94,643,o),
(91,700,c)
);
}
);
width = 403;
},
{
anchors = (
{
name = _top;
pos = (202,500);
},
{
name = top;
pos = (202,700);
}
);
layerId = m002;
shapes = (
{
closed = 1;
nodes = (
(45,700,l),
(50,615,o),
(117,551,o),
(201,551,cs),
(284,551,o),
(352,616,o),
(358,700,c),
(252,700,l),
(249,673,o),
(231,651,o),
(201,651,cs),
(172,651,o),
(154,673,o),
(151,700,c)
);
}
);
width = 403;
}
);
metricRight = "=|";
unicode = 774;
userData = {
KernOnSpecialSpacing = {
L = NoKerning;
R = NoKerning;
};
};
}
{
glyphname = dotaccentcomb;
layers = (
{
anchors = (
{
name = _top;
pos = (60,500);
},
{
name = top;
pos = (60,675);
}
);
layerId = m01;
shapes = (
{
closed = 1;
nodes = (
(85,585,o),
(105,605,o),
(105,630,cs),
(105,655,o),
(85,675,o),
(60,675,cs),
(35,675,o),
(15,655,o),
(15,630,cs),
(15,605,o),
(35,585,o),
(60,585,cs)
);
}
);
width = 120;
},
{
anchors = (
{
name = _top;
pos = (115,500);
},
{
name = top;
pos = (115,730);
}
);
layerId = m002;
shapes = (
{
closed = 1;
nodes = (
(170,530,o),
(215,574,o),
(215,630,cs),
(215,685,o),
(170,730,o),
(115,730,cs),
(59,730,o),
(15,685,o),
(15,630,cs),
(15,574,o),
(59,530,o),
(115,530,cs)
);
}
);
width = 220;
}
);
metricLeft = "=i";
metricRight = "=i";
unicode = 775;
userData = {
KernOnSpecialSpacing = {
L = NoKerning;
R = NoKerning;
};
};
}
{
glyphname = dieresiscomb;
layers = (
{
anchors = (
{
name = _top;
pos = (135,500);
},
{
name = top;
pos = (135,708);
}
);
layerId = m01;
shapes = (
{
closed = 1;
nodes = (
(85,585,o),
(105,605,o),
(105,630,cs),
(105,655,o),
(85,675,o),
(60,675,cs),
(35,675,o),
(15,655,o),
(15,630,cs),
(15,605,o),
(35,585,o),
(60,585,cs)
);
},
{
closed = 1;
nodes = (
(235,585,o),
(255,605,o),
(255,630,cs),
(255,655,o),
(235,675,o),
(210,675,cs),
(185,675,o),
(165,655,o),
(165,630,cs),
(165,605,o),
(185,585,o),
(210,585,cs)
);
}
);
width = 270;
},
{
anchors = (
{
name = _top;
pos = (220,500);
},
{
name = top;
pos = (220,730);
}
);
layerId = m002;
shapes = (
{
closed = 1;
nodes = (
(155,540,o),
(195,580,o),
(195,630,cs),
(195,680,o),
(155,720,o),
(105,720,cs),
(55,720,o),
(15,680,o),
(15,630,cs),
(15,580,o),
(55,540,o),
(105,540,cs)
);
},
{
closed = 1;
nodes = (
(375,540,o),
(415,580,o),
(415,630,cs),
(415,680,o),
(375,720,o),
(325,720,cs),
(275,720,o),
(235,680,o),
(235,630,cs),
(235,580,o),
(275,540,o),
(325,540,cs)
);
}
);
width = 420;
}
);
metricLeft = "=i";
metricRight = "=i";
unicode = 776;
userData = {
KernOnSpecialSpacing = {
L = NoKerning;
R = NoKerning;
};
};
}
{
glyphname = ringcomb;
layers = (
{
anchors = (
{
name = _top;
pos = (95,500);
},
{
name = top;
pos = (95,708);
}
);
layerId = m01;
shapes = (
{
closed = 1;
nodes = (
(15,587,o),
(51,550,o),
(95,550,cs),
(138,550,o),
(175,587,o),
(175,630,cs),
(175,674,o),
(138,710,o),
(95,710,cs),
(51,710,o),
(15,674,o),
(15,630,cs)
);
},
{
closed = 1;
nodes = (
(49,655,o),
(69,675,o),
(95,675,cs),
(119,675,o),
(139,655,o),
(139,629,cs),
(139,605,o),
(119,585,o),
(95,585,cs),
(69,585,o),
(49,605,o),
(49,629,cs)
);
}
);
width = 190;
},
{
anchors = (
{
name = _top;
pos = (115,500);
},
{
name = top;
pos = (115,708);
}
);
layerId = m002;
shapes = (
{
closed = 1;
nodes = (
(15,576,o),
(60,530,o),
(115,530,cs),
(169,530,o),
(215,576,o),
(215,630,cs),
(215,685,o),
(169,730,o),
(115,730,cs),
(60,730,o),
(15,685,o),
(15,630,cs)
);
},
{
closed = 1;
nodes = (
(74,653,o),
(92,671,o),
(115,671,cs),
(137,671,o),
(155,653,o),
(155,630,cs),
(155,608,o),
(137,590,o),
(115,590,cs),
(92,590,o),
(74,608,o),
(74,630,cs)
);
}
);
width = 220;
}
);
metricLeft = "=i";
metricRight = "=i";
unicode = 778;
userData = {
KernOnSpecialSpacing = {
L = NoKerning;
R = NoKerning;
};
};
}
{
glyphname = hungarumlautcomb;
layers = (
{
anchors = (
{
name = _top;
pos = (165,500);
},
{
name = top;
pos = (165,700);
}
);
layerId = m01;
shapes = (
{
closed = 1;
nodes = (
(160,700,l),
(60,560,l),
(120,560,l),
(250,700,l)
);
},
{
closed = 1;
nodes = (
(310,700,l),
(210,560,l),
(270,560,l),
(400,700,l)
);
}
);
width = 460;
},
{
anchors = (
{
name = _top;
pos = (210,500);
},
{
name = top;
pos = (210,700);
}
);
layerId = m002;
shapes = (
{
closed = 1;
nodes = (
(115,700,l),
(25,540,l),
(165,540,l),
(295,700,l)
);
},
{
closed = 1;
nodes = (
(345,700,l),
(255,540,l),
(395,540,l),
(525,700,l)
);
}
);
width = 550;
}
);
metricRight = "=|";
unicode = 779;
userData = {
KernOnSpecialSpacing = {
L = NoKerning;
R = NoKerning;
};
};
}
{
glyphname = caroncomb;
layers = (
{
anchors = (
{
name = _top;
pos = (160,500);
},
{
name = top;
pos = (160,700);
}
);
layerId = m01;
shapes = (
{
closed = 1;
nodes = (
(195,560,l),
(305,700,l),
(245,700,l),
(125,560,l)
);
},
{
closed = 1;
nodes = (
(75,700,l),
(15,700,l),
(125,560,l),
(195,560,l)
);
}
);
width = 320;
},
{
anchors = (
{
name = _top;
pos = (195,500);
},
{
name = top;
pos = (195,700);
}
);
layerId = m002;
shapes = (
{
closed = 1;
nodes = (
(275,540,l),
(375,700,l),
(235,700,l),
(135,540,l)
);
},
{
closed = 1;
nodes = (
(155,700,l),
(15,700,l),
(115,540,l),
(255,540,l)
);
}
);
width = 380;
}
);
metricLeft = "=i";
metricRight = "=i";
unicode = 780;
userData = {
KernOnSpecialSpacing = {
L = NoKerning;
R = NoKerning;
};
};
}
{
glyphname = commaturnedabovecomb;
layers = (
{
anchors = (
{
name = _top;
pos = (72,500);
},
{
name = top;
pos = (72,803);
}
);
layerId = m01;
shapes = (
{
closed = 1;
nodes = (
(49,678,o),
(29,658,o),
(29,633,cs),
(29,608,o),
(49,588,o),
(74,588,cs),
(99,588,o),
(119,608,o),
(119,633,cs),
(119,658,o),
(99,678,o),
(74,678,cs)
);
},
{
closed = 1;
nodes = (
(87,803,l),
(57,778,o),
(-26,670,o),
(40,603,c),
(74,678,l),
(74,708,o),
(99,751,o),
(129,776,c)
);
}
);
width = 144;
},
{
anchors = (
{
name = _top;
pos = (127,500);
},
{
name = top;
pos = (127,930);
}
);
layerId = m002;
shapes = (
{
closed = 1;
nodes = (
(85,725,o),
(40,680,o),
(40,625,cs),
(40,570,o),
(85,525,o),
(140,525,cs),
(195,525,o),
(240,570,o),
(240,625,c),
(240,680,o),
(195,725,o),
(140,725,cs)
);
},
{
closed = 1;
nodes = (
(130,930,l),
(35,848,o),
(-44,645,o),
(74,550,c),
(140,725,l),
(140,780,o),
(177,830,o),
(212,863,c)
);
}
);
width = 255;
}
);
metricLeft = "=i";
metricRight = "=|";
unicode = 786;
userData = {
KernOnSpecialSpacing = {
L = NoKerning;
R = NoKerning;
};
};
}
{
glyphname = dotbelowcomb;
layers = (
{
anchors = (
{
name = _bottom;
pos = (60,0);
},
{
name = bottom;
pos = (60,-190);
}
);
layerId = m01;
shapes = (
{
closed = 1;
nodes = (
(85,-190,o),
(105,-170,o),
(105,-145,cs),
(105,-120,o),
(85,-100,o),
(60,-100,cs),
(35,-100,o),
(15,-120,o),
(15,-145,cs),
(15,-170,o),
(35,-190,o),
(60,-190,cs)
);
}
);
width = 120;
},
{
anchors = (
{
name = _bottom;
pos = (115,0);
},
{
name = bottom;
pos = (115,-250);
}
);
layerId = m002;
shapes = (
{
closed = 1;
nodes = (
(170,-250,o),
(215,-206,o),
(215,-150,cs),
(215,-95,o),
(170,-50,o),
(115,-50,cs),
(59,-50,o),
(15,-95,o),
(15,-150,cs),
(15,-206,o),
(59,-250,o),
(115,-250,cs)
);
}
);
width = 220;
}
);
metricLeft = "=i";
metricRight = "=i";
unicode = 803;
}
{
glyphname = commaaccentcomb;
layers = (
{
anchors = (
{
name = _bottom;
pos = (72,0);
},
{
name = bottom;
pos = (72,-265);
}
);
layerId = m01;
shapes = (
{
closed = 1;
nodes = (
(95,-140,o),
(115,-120,o),
(115,-95,cs),
(115,-70,o),
(95,-50,o),
(70,-50,cs),
(45,-50,o),
(25,-70,o),
(25,-95,cs),
(25,-120,o),
(45,-140,o),
(70,-140,cs)
);
},
{
closed = 1;
nodes = (
(57,-265,l),
(87,-240,o),
(170,-132,o),
(104,-65,c),
(70,-140,l),
(70,-170,o),
(45,-213,o),
(15,-238,c)
);
}
);
width = 144;
},
{
anchors = (
{
name = _bottom;
pos = (128,0);
},
{
name = bottom;
pos = (128,-430);
}
);
layerId = m002;
shapes = (
{
closed = 1;
nodes = (
(170,-225,o),
(215,-180,o),
(215,-125,cs),
(215,-70,o),
(170,-25,o),
(115,-25,cs),
(60,-25,o),
(15,-70,o),
(15,-125,c),
(15,-180,o),
(60,-225,o),
(115,-225,cs)
);
},
{
closed = 1;
nodes = (
(125,-430,l),
(220,-348,o),
(299,-145,o),
(181,-50,c),
(115,-225,l),
(115,-280,o),
(78,-330,o),
(43,-363,c)
);
}
);
width = 255;
}
);
metricLeft = "=i";
metricRight = "=|";
unicode = 806;
userData = {
KernOnSpecialSpacing = {
L = NoKerning;
R = NoKerning;
};
};
}
{
glyphname = cedillacomb;
layers = (
{
anchors = (
{
name = _bottom;
pos = (62,0);
},
{
name = bottom;
pos = (62,-150);
}
);
layerId = m01;
shapes = (
{
closed = 1;
nodes = (
(82,-70,o),
(93,-77,o),
(93,-90,cs),
(93,-103,o),
(82,-111,o),
(65,-111,cs),
(55,-111,o),
(36,-108,o),
(31,-104,c),
(15,-135,l),
(25,-141,o),
(47,-150,o),
(65,-150,cs),
(107,-150,o),
(138,-130,o),
(138,-90,cs),
(138,-50,o),
(107,-36,o),
(82,-36,c),
(82,0,l),
(42,0,l),
(42,-74,l),
(47,-71,o),
(55,-70,o),
(65,-70,cs)
);
}
);
width = 153;
},
{
anchors = (
{
name = _bottom;
pos = (102,0);
},
{
name = bottom;
pos = (102,-150);
}
);
layerId = m002;
shapes = (
{
closed = 1;
nodes = (
(122,-80,o),
(133,-87,o),
(133,-105,cs),
(133,-123,o),
(122,-131,o),
(105,-131,cs),
(75,-131,o),
(56,-128,o),
(31,-124,c),
(15,-195,l),
(45,-201,o),
(67,-208,o),
(105,-208,cs),
(187,-208,o),
(218,-180,o),
(218,-120,cs),
(218,-60,o),
(197,-36,o),
(162,-36,c),
(162,0,l),
(42,0,l),
(42,-84,l),
(67,-81,o),
(95,-80,o),
(105,-80,cs)
);
}
);
width = 223;
}
);
metricLeft = "=i";
metricRight = "=i";
unicode = 807;
userData = {
KernOnSpecialSpacing = {
L = NoKerning;
R = NoKerning;
};
};
}
{
glyphname = ogonekcomb;
layers = (
{
anchors = (
{
name = _ogonek;
pos = (129,0);
}
);
layerId = m01;
shapes = (
{
closed = 1;
nodes = (
(129,0,o),
(129,0,c),
(89,16,l),
(89,16,o),
(15,-25,o),
(15,-75,cs),
(15,-125,o),
(45,-155,o),
(95,-155,cs),
(120,-155,o),
(138,-142,o),
(155,-125,c),
(129,-83,l),
(129,-83,o),
(110,-100,o),
(95,-100,c),
(78,-100,o),
(65,-91,o),
(65,-75,cs),
(65,-33,o)
);
}
);
width = 170;
},
{
anchors = (
{
name = _ogonek;
pos = (155,0);
}
);
layerId = m002;
shapes = (
{
closed = 1;
nodes = (
(155,0,o),
(155,0,c),
(109,16,l),
(109,16,o),
(15,-25,o),
(15,-95,cs),
(15,-175,o),
(60,-208,o),
(125,-208,cs),
(165,-208,o),
(198,-189,o),
(215,-175,c),
(189,-75,l),
(189,-75,o),
(155,-90,o),
(125,-90,c),
(108,-90,o),
(95,-83,o),
(95,-67,cs),
(95,-25,o)
);
}
);
width = 230;
}
);
metricLeft = "=i";
metricRight = "=|";
unicode = 808;
userData = {
KernOnSpecialSpacing = {
L = NoKerning;
R = NoKerning;
};
};
}
{
glyphname = circumflexbelowcomb;
layers = (
{
anchors = (
{
name = _bottom;
pos = (160,0);
},
{
name = bottom;
pos = (160,-190);
}
);
layerId = m01;
shapes = (
{
closed = 1;
nodes = (
(245,-190,l),
(305,-190,l),
(195,-50,l),
(125,-50,l)
);
},
{
closed = 1;
nodes = (
(125,-50,l),
(15,-190,l),
(75,-190,l),
(195,-50,l)
);
}
);
width = 320;
},
{
anchors = (
{
name = _bottom;
pos = (195,0);
},
{
name = bottom;
pos = (195,-210);
}
);
layerId = m002;
shapes = (
{
closed = 1;
nodes = (
(235,-210,l),
(375,-210,l),
(275,-50,l),
(135,-50,l)
);
},
{
closed = 1;
nodes = (
(115,-50,l),
(15,-210,l),
(155,-210,l),
(255,-50,l)
);
}
);
width = 380;
}
);
metricLeft = "=i";
metricRight = "=i";
unicode = 813;
}
{
glyphname = macronbelowcomb;
layers = (
{
anchors = (
{
name = _bottom;
pos = (248,0);
},
{
name = bottom;
pos = (248,-155);
}
);
layerId = m01;
shapes = (
{
closed = 1;
nodes = (
(110,-155,l),
(385,-155,l),
(385,-100,l),
(110,-100,l)
);
}
);
width = 495;
},
{
anchors = (
{
name = _bottom;
pos = (248,0);
},
{
name = bottom;
pos = (248,-185);
}
);
layerId = m002;
shapes = (
{
closed = 1;
nodes = (
(110,-185,l),
(385,-185,l),
(385,-70,l),
(110,-70,l)
);
}
);
width = 495;
}
);
metricRight = "=|";
unicode = 817;
}
{
glyphname = strokeshortcomb;
layers = (
{
anchors = (
{
name = _center;
pos = (140,250);
}
);
layerId = m01;
shapes = (
{
closed = 1;
nodes = (
(265,220,l),
(265,280,l),
(15,280,l),
(15,220,l)
);
}
);
width = 280;
},
{
anchors = (
{
name = _center;
pos = (190,250);
}
);
layerId = m002;
shapes = (
{
closed = 1;
nodes = (
(365,190,l),
(365,310,l),
(15,310,l),
(15,190,l)
);
}
);
width = 370;
}
);
metricLeft = "=i";
metricRight = "=i";
unicode = 821;
userData = {
KernOnSpecialSpacing = {
L = NoKerning;
R = NoKerning;
};
};
}
{
glyphname = Omega;
layers = (
{
layerId = m01;
shapes = (
{
closed = 1;
nodes = (
(264,60,l),
(159,92,o),
(117,203,o),
(117,334,cs),
(117,491,o),
(177,616,o),
(332,616,cs),
(487,616,o),
(547,491,o),
(547,334,cs),
(547,202,o),
(505,93,o),
(400,60,c),
(400,0,l),
(555,33,o),
(619,175,o),
(619,334,cs),
(619,514,o),
(537,676,o),
(332,676,c),
(127,676,o),
(45,514,o),
(45,334,cs),
(45,175,o),
(109,32,o),
(264,0,c)
);
},
{
closed = 1;
nodes = (
(264,0,l),
(264,60,l),
(0,60,l),
(0,0,l)
);
},
{
closed = 1;
nodes = (
(664,0,l),
(664,60,l),
(400,60,l),
(400,0,l)
);
}
);
width = 664;
},
{
layerId = m002;
shapes = (
{
closed = 1;
nodes = (
(312,110,l),
(227,110,o),
(207,234,o),
(207,334,cs),
(207,434,o),
(227,556,o),
(342,556,cs),
(457,556,o),
(477,434,o),
(477,334,cs),
(477,234,o),
(457,110,o),
(372,110,c),
(372,0,l),
(587,0,o),
(669,154,o),
(669,334,cs),
(669,514,o),
(587,676,o),
(342,676,cs),
(96,676,o),
(15,514,o),
(15,334,cs),
(15,154,o),
(96,0,o),
(312,0,c)
);
},
{
closed = 1;
nodes = (
(304,0,l),
(304,110,l),
(0,110,l),
(0,0,l)
);
},
{
closed = 1;
nodes = (
(684,0,l),
(684,110,l),
(380,110,l),
(380,0,l)
);
}
);
width = 684;
}
);
unicode = 937;
}
{
glyphname = pi;
kernLeft = KO_pi;
layers = (
{
layerId = m01;
shapes = (
{
closed = 1;
nodes = (
(253,500,l),
(99,500,o),
(48,467,o),
(48,367,cs),
(48,350,o),
(49,339,o),
(53,320,c),
(103,330,l),
(101,345,o),
(100,355,o),
(100,367,cs),
(100,422,o),
(128,440,o),
(220,440,c),
(553,440,l),
(553,500,l)
);
},
{
closed = 1;
nodes = (
(373,200,l),
(373,46,o),
(406,-5,o),
(506,-5,cs),
(523,-5,o),
(534,-4,o),
(553,0,c),
(543,50,l),
(528,48,o),
(518,47,o),
(506,47,cs),
(451,47,o),
(433,75,o),
(433,167,c),
(433,470,l),
(373,470,l)
);
},
{
closed = 1;
nodes = (
(148,0,l),
(253,0,o),
(253,87,o),
(253,196,cs),
(253,470,l),
(193,470,l),
(193,196,ls),
(193,105,o),
(193,50,o),
(148,50,c)
);
}
);
width = 600;
},
{
layerId = m002;
shapes = (
{
closed = 1;
nodes = (
(222,500,l),
(68,500,o),
(15,467,o),
(15,387,cs),
(15,350,o),
(18,319,o),
(22,300,c),
(132,310,l),
(130,325,o),
(129,335,o),
(129,347,cs),
(129,379,o),
(157,380,o),
(189,380,c),
(642,380,l),
(642,500,l)
);
},
{
closed = 1;
nodes = (
(392,200,l),
(392,46,o),
(425,-7,o),
(565,-7,cs),
(602,-7,o),
(633,-4,o),
(652,0,c),
(642,110,l),
(627,108,o),
(617,107,o),
(605,107,cs),
(573,107,o),
(572,135,o),
(572,167,c),
(572,470,l),
(392,470,l)
);
},
{
closed = 1;
nodes = (
(127,0,l),
(312,0,o),
(352,87,o),
(352,196,cs),
(352,470,l),
(172,470,l),
(172,196,ls),
(172,165,o),
(172,110,o),
(127,110,c)
);
}
);
width = 682;
}
);
unicode = 960;
}
{
glyphname = baht;
layers = (
{
layerId = m002;
name = Black;
shapes = (
{
ref = B;
},
{
closed = 1;
nodes = (
(347,591,l),
(347,742,l),
(227,742,l),
(227,591,l)
);
},
{
closed = 1;
nodes = (
(227,73,l),
(227,-75,l),
(347,-75,l),
(347,73,l)
);
}
);
width = 575;
},
{
layerId = m01;
name = Light;
shapes = (
{
ref = B;
},
{
closed = 1;
nodes = (
(298,639,l),
(298,742,l),
(238,742,l),
(238,639,l)
);
},
{
closed = 1;
nodes = (
(238,31,l),
(238,-75,l),
(298,-75,l),
(298,31,l)
);
}
);
width = 543;
}
);
unicode = 3647;
userData = {
KernOnSpecialSpacing = {
L = symbols;
R = symbols;
};
};
}
{
glyphname = Germandbls;
kernLeft = KO_H;
kernRight = KO_S;
layers = (
{
layerId = m01;
shapes = (
{
closed = 1;
nodes = (
(178,0,l),
(178,607,l),
(495,607,l),
(508,667,l),
(115,667,l),
(115,0,l)
);
},
{
closed = 1;
nodes = (
(372,50,l),
(321,50,o),
(275,68,o),
(229,88,c),
(200,36,l),
(250,10,o),
(307,-10,o),
(372,-10,c)
);
},
{
closed = 1;
nodes = (
(532,-10,o),
(606,77,o),
(606,194,cs),
(606,300,o),
(532,380,o),
(372,380,c),
(305,380,l),
(305,324,l),
(474,324,o),
(534,292,o),
(534,194,cs),
(534,106,o),
(474,50,o),
(372,50,c),
(372,-10,l)
);
},
{
closed = 1;
nodes = (
(520,607,l),
(520,667,l),
(478,667,l),
(305,380,l),
(358,350,l)
);
},
{
pos = (115,0);
ref = _serif.I.BL;
},
{
pos = (115,667);
ref = _serif.I.TL;
},
{
pos = (200,36);
ref = _serif.S.BL;
}
);
width = 651;
},
{
layerId = m002;
shapes = (
{
closed = 1;
nodes = (
(267,0,l),
(267,547,l),
(664,547,l),
(664,667,l),
(85,667,l),
(85,0,l)
);
},
{
closed = 1;
nodes = (
(461,110,l),
(410,110,o),
(364,128,o),
(318,148,c),
(289,36,l),
(339,10,o),
(396,-10,o),
(461,-10,c)
);
},
{
closed = 1;
nodes = (
(661,-10,o),
(735,77,o),
(735,194,cs),
(735,300,o),
(661,410,o),
(481,410,c),
(329,410,l),
(329,295,l),
(507,295,o),
(543,252,o),
(543,194,cs),
(543,136,o),
(507,110,o),
(461,110,c),
(461,-10,l)
);
},
{
closed = 1;
nodes = (
(664,547,l),
(659,667,l),
(602,667,l),
(329,410,l),
(482,380,l)
);
},
{
pos = (85,0);
ref = _serif.I.BL;
},
{
pos = (85,667);
ref = _serif.I.TL;
},
{
pos = (289,36);
ref = _serif.S.BL;
}
);
width = 765;
}
);
metricLeft = "=H";
metricRight = "=S";
unicode = 7838;
}
{
glyphname = endash;
kernLeft = KO_endash;
kernRight = KO_endash;
layers = (
{
hints = (
{
horizontal = 1;
place = (215,66);
type = Stem;
}
);
layerId = m01;
shapes = (
{
closed = 1;
nodes = (
(45,225,l),
(433,225,l),
(433,275,l),
(45,275,l)
);
}
);
width = 478;
},
{
layerId = m002;
shapes = (
{
closed = 1;
nodes = (
(15,180,l),
(483,180,l),
(483,320,l),
(15,320,l)
);
}
);
width = 498;
}
);
metricLeft = "=H";
metricRight = "=|";
note = endash;
unicode = 8211;
userData = {
KernOnSpecialSpacing = {
L = dashes;
R = dashes;
};
};
}
{
glyphname = emdash;
kernLeft = KO_endash;
kernRight = KO_endash;
layers = (
{
hints = (
{
horizontal = 1;
place = (215,66);
type = Stem;
}
);
layerId = m01;
shapes = (
{
closed = 1;
nodes = (
(45,225,l),
(689,225,l),
(689,275,l),
(45,275,l)
);
}
);
width = 734;
},
{
layerId = m002;
shapes = (
{
closed = 1;
nodes = (
(15,185,l),
(739,185,l),
(739,315,l),
(15,315,l)
);
}
);
width = 754;
}
);
metricLeft = "=H";
metricRight = "=|";
note = emdash;
unicode = 8212;
userData = {
KernOnSpecialSpacing = {
L = dashes;
R = dashes;
};
};
}
{
glyphname = quoteleft;
kernLeft = KO_quoteleft;
kernRight = KO_quoteleft;
layers = (
{
hints = (
{
horizontal = 1;
place = (544,22);
type = Stem;
},
{
horizontal = 1;
place = (708,-20);
target = down;
type = TopGhost;
}
);
layerId = m01;
shapes = (
{
closed = 1;
nodes = (
(49,678,o),
(29,658,o),
(29,633,cs),
(29,608,o),
(49,588,o),
(74,588,cs),
(99,588,o),
(119,608,o),
(119,633,cs),
(119,658,o),
(99,678,o),
(74,678,cs)
);
},
{
closed = 1;
nodes = (
(87,803,l),
(57,778,o),
(-26,670,o),
(40,603,c),
(74,678,l),
(74,708,o),
(99,751,o),
(129,776,c)
);
}
);
width = 144;
},
{
layerId = m002;
shapes = (
{
closed = 1;
nodes = (
(99,677,o),
(45,632,o),
(33,577,cs),
(22,522,o),
(57,477,o),
(112,477,cs),
(167,477,o),
(222,522,o),
(233,577,c),
(245,632,o),
(209,677,o),
(154,677,cs)
);
},
{
closed = 1;
nodes = (
(188,882,l),
(76,800,o),
(-47,597,o),
(51,502,c),
(154,677,l),
(166,732,o),
(214,782,o),
(256,815,c)
);
}
);
width = 261;
}
);
metricLeft = "=i";
metricRight = "=i";
note = quoteleft;
unicode = 8216;
userData = {
KernOnSpecialSpacing = {
L = quotes;
R = quotes;
};
};
}
{
glyphname = quoteright;
kernLeft = KO_quoteright;
kernRight = KO_quoteright;
layers = (
{
hints = (
{
horizontal = 1;
place = (550,21);
target = up;
type = BottomGhost;
},
{
horizontal = 1;
place = (713,-20);
target = down;
type = TopGhost;
}
);
layerId = m01;
shapes = (
{
closed = 1;
nodes = (
(95,618,o),
(115,638,o),
(115,663,cs),
(115,688,o),
(95,708,o),
(70,708,cs),
(45,708,o),
(25,688,o),
(25,663,cs),
(25,638,o),
(45,618,o),
(70,618,cs)
);
},
{
closed = 1;
nodes = (
(57,493,l),
(87,518,o),
(170,626,o),
(104,693,c),
(70,618,l),
(70,588,o),
(45,545,o),
(15,520,c)
);
}
);
width = 144;
},
{
layerId = m002;
shapes = (
{
closed = 1;
nodes = (
(172,508,o),
(226,553,o),
(238,608,cs),
(249,663,o),
(214,708,o),
(159,708,cs),
(104,708,o),
(49,663,o),
(38,608,c),
(26,553,o),
(62,508,o),
(117,508,cs)
);
},
{
closed = 1;
nodes = (
(83,303,l),
(195,385,o),
(318,588,o),
(220,683,c),
(117,508,l),
(105,453,o),
(57,403,o),
(15,370,c)
);
}
);
width = 261;
}
);
metricLeft = "=i";
metricRight = "=i";
note = quoteright;
unicode = 8217;
userData = {
KernOnSpecialSpacing = {
L = quotes;
R = quotes;
};
};
}
{
glyphname = quotesinglbase;
kernRight = KO_quotedblbase;
layers = (
{
hints = (
{
horizontal = 1;
place = (-80,22);
type = Stem;
},
{
horizontal = 1;
place = (63,21);
target = up;
type = BottomGhost;
}
);
layerId = m01;
shapes = (
{
closed = 1;
nodes = (
(140,-8,o),
(160,12,o),
(160,37,cs),
(160,62,o),
(140,82,o),
(115,82,cs),
(90,82,o),
(70,62,o),
(70,37,cs),
(70,12,o),
(90,-8,o),
(115,-8,cs)
);
},
{
closed = 1;
nodes = (
(102,-133,l),
(132,-108,o),
(215,0,o),
(149,67,c),
(115,-8,l),
(115,-38,o),
(90,-81,o),
(60,-106,c)
);
}
);
width = 234;
},
{
layerId = m002;
shapes = (
{
closed = 1;
nodes = (
(180,-8,o),
(225,37,o),
(225,92,cs),
(225,147,o),
(180,192,o),
(125,192,cs),
(70,192,o),
(25,147,o),
(25,92,c),
(25,37,o),
(70,-8,o),
(125,-8,cs)
);
},
{
closed = 1;
nodes = (
(135,-213,l),
(230,-131,o),
(309,72,o),
(191,167,c),
(125,-8,l),
(125,-63,o),
(88,-113,o),
(53,-146,c)
);
}
);
width = 275;
}
);
metricLeft = "=i";
metricRight = "=i";
note = quotesinglbase;
unicode = 8218;
userData = {
KernOnSpecialSpacing = {
L = quotes;
R = quotes;
};
};
}
{
glyphname = quotedblleft;
kernLeft = KO_quotedblleft;
kernRight = KO_quotedblleft;
layers = (
{
hints = (
{
horizontal = 1;
place = (544,98);
type = Stem;
},
{
horizontal = 1;
place = (544,164);
type = Stem;
}
);
layerId = m01;
shapes = (
{
closed = 1;
nodes = (
(234,678,o),
(214,658,o),
(214,633,cs),
(214,608,o),
(234,588,o),
(259,588,cs),
(284,588,o),
(304,608,o),
(304,633,cs),
(304,658,o),
(284,678,o),
(259,678,cs)
);
},
{
closed = 1;
nodes = (
(272,803,l),
(242,778,o),
(159,670,o),
(225,603,c),
(259,678,l),
(259,708,o),
(284,751,o),
(314,776,c)
);
},
{
closed = 1;
nodes = (
(94,678,o),
(74,658,o),
(74,633,cs),
(74,608,o),
(94,588,o),
(119,588,cs),
(144,588,o),
(164,608,o),
(164,633,cs),
(164,658,o),
(144,678,o),
(119,678,cs)
);
},
{
closed = 1;
nodes = (
(132,803,l),
(102,778,o),
(19,670,o),
(85,603,c),
(119,678,l),
(119,708,o),
(144,751,o),
(174,776,c)
);
}
);
width = 374;
},
{
layerId = m002;
shapes = (
{
closed = 1;
nodes = (
(369,677,o),
(315,632,o),
(303,577,cs),
(292,522,o),
(327,477,o),
(382,477,cs),
(437,477,o),
(492,522,o),
(503,577,c),
(515,632,o),
(479,677,o),
(424,677,cs)
);
},
{
closed = 1;
nodes = (
(458,882,l),
(346,800,o),
(223,597,o),
(321,502,c),
(424,677,l),
(436,732,o),
(484,782,o),
(526,815,c)
);
},
{
closed = 1;
nodes = (
(109,677,o),
(55,632,o),
(43,577,cs),
(32,522,o),
(67,477,o),
(122,477,cs),
(177,477,o),
(232,522,o),
(243,577,c),
(255,632,o),
(219,677,o),
(164,677,cs)
);
},
{
closed = 1;
nodes = (
(198,882,l),
(86,800,o),
(-37,597,o),
(61,502,c),
(164,677,l),
(176,732,o),
(224,782,o),
(266,815,c)
);
}
);
width = 551;
}
);
metricLeft = "=i";
metricRight = "=i";
note = quotedblleft;
unicode = 8220;
userData = {
KernOnSpecialSpacing = {
L = quotes;
R = quotes;
};
};
}
{
glyphname = quotedblright;
kernLeft = KO_quoteright;
kernRight = KO_quoteright;
layers = (
{
hints = (
{
horizontal = 1;
place = (550,163);
type = Stem;
},
{
horizontal = 1;
place = (616,97);
type = Stem;
}
);
layerId = m01;
shapes = (
{
closed = 1;
nodes = (
(95,618,o),
(115,638,o),
(115,663,cs),
(115,688,o),
(95,708,o),
(70,708,cs),
(45,708,o),
(25,688,o),
(25,663,cs),
(25,638,o),
(45,618,o),
(70,618,cs)
);
},
{
closed = 1;
nodes = (
(57,493,l),
(87,518,o),
(170,626,o),
(104,693,c),
(70,618,l),
(70,588,o),
(45,545,o),
(15,520,c)
);
},
{
closed = 1;
nodes = (
(235,618,o),
(255,638,o),
(255,663,cs),
(255,688,o),
(235,708,o),
(210,708,cs),
(185,708,o),
(165,688,o),
(165,663,cs),
(165,638,o),
(185,618,o),
(210,618,cs)
);
},
{
closed = 1;
nodes = (
(197,493,l),
(227,518,o),
(310,626,o),
(244,693,c),
(210,618,l),
(210,588,o),
(185,545,o),
(155,520,c)
);
}
);
width = 284;
},
{
layerId = m002;
shapes = (
{
closed = 1;
nodes = (
(172,508,o),
(226,553,o),
(238,608,cs),
(249,663,o),
(214,708,o),
(159,708,cs),
(104,708,o),
(49,663,o),
(38,608,c),
(26,553,o),
(62,508,o),
(117,508,cs)
);
},
{
closed = 1;
nodes = (
(83,303,l),
(195,385,o),
(318,588,o),
(220,683,c),
(117,508,l),
(105,453,o),
(57,403,o),
(15,370,c)
);
},
{
closed = 1;
nodes = (
(432,508,o),
(486,553,o),
(498,608,cs),
(509,663,o),
(474,708,o),
(419,708,cs),
(364,708,o),
(309,663,o),
(298,608,c),
(286,553,o),
(322,508,o),
(377,508,cs)
);
},
{
closed = 1;
nodes = (
(343,303,l),
(455,385,o),
(578,588,o),
(480,683,c),
(377,508,l),
(365,453,o),
(317,403,o),
(275,370,c)
);
}
);
width = 521;
}
);
metricLeft = "=i";
metricRight = "=i";
note = quotedblright;
unicode = 8221;
userData = {
KernOnSpecialSpacing = {
L = quotes;
R = quotes;
};
};
}
{
glyphname = quotedblbase;
kernRight = KO_quotedblbase;
layers = (
{
hints = (
{
horizontal = 1;
place = (-80,164);
type = Stem;
},
{
horizontal = 1;
place = (-13,97);
type = Stem;
}
);
layerId = m01;
shapes = (
{
closed = 1;
nodes = (
(95,-8,o),
(115,12,o),
(115,37,cs),
(115,62,o),
(95,82,o),
(70,82,cs),
(45,82,o),
(25,62,o),
(25,37,cs),
(25,12,o),
(45,-8,o),
(70,-8,cs)
);
},
{
closed = 1;
nodes = (
(57,-133,l),
(87,-108,o),
(170,0,o),
(104,67,c),
(70,-8,l),
(70,-38,o),
(45,-81,o),
(15,-106,c)
);
},
{
closed = 1;
nodes = (
(235,-8,o),
(255,12,o),
(255,37,cs),
(255,62,o),
(235,82,o),
(210,82,cs),
(185,82,o),
(165,62,o),
(165,37,cs),
(165,12,o),
(185,-8,o),
(210,-8,cs)
);
},
{
closed = 1;
nodes = (
(197,-133,l),
(227,-108,o),
(310,0,o),
(244,67,c),
(210,-8,l),
(210,-38,o),
(185,-81,o),
(155,-106,c)
);
}
);
width = 284;
},
{
layerId = m002;
shapes = (
{
closed = 1;
nodes = (
(170,-8,o),
(215,37,o),
(215,92,cs),
(215,147,o),
(170,192,o),
(115,192,cs),
(60,192,o),
(15,147,o),
(15,92,c),
(15,37,o),
(60,-8,o),
(115,-8,cs)
);
},
{
closed = 1;
nodes = (
(125,-213,l),
(220,-131,o),
(299,72,o),
(181,167,c),
(115,-8,l),
(115,-63,o),
(78,-113,o),
(43,-146,c)
);
},
{
closed = 1;
nodes = (
(430,-8,o),
(475,37,o),
(475,92,cs),
(475,147,o),
(430,192,o),
(375,192,cs),
(320,192,o),
(275,147,o),
(275,92,c),
(275,37,o),
(320,-8,o),
(375,-8,cs)
);
},
{
closed = 1;
nodes = (
(385,-213,l),
(480,-131,o),
(559,72,o),
(441,167,c),
(375,-8,l),
(375,-63,o),
(338,-113,o),
(303,-146,c)
);
}
);
width = 505;
}
);
metricLeft = "=i";
metricRight = "=i";
note = quotedblbase;
unicode = 8222;
userData = {
KernOnSpecialSpacing = {
L = quotes;
R = quotes;
};
};
}
{
glyphname = dagger;
kernLeft = KO_dagger;
layers = (
{
layerId = m01;
shapes = (
{
closed = 1;
nodes = (
(227,300,l),
(228,700,l),
(173,700,l),
(172,300,l)
);
},
{
closed = 1;
nodes = (
(72,546,l),
(328,545,l),
(328,599,l),
(72,600,l)
);
}
);
width = 400;
},
{
layerId = m002;
shapes = (
{
closed = 1;
nodes = (
(257,270,l),
(258,700,l),
(143,700,l),
(142,270,l)
);
},
{
closed = 1;
nodes = (
(42,471,l),
(358,470,l),
(358,584,l),
(42,585,l)
);
}
);
width = 400;
}
);
unicode = 8224;
}
{
glyphname = daggerdbl;
layers = (
{
layerId = m01;
shapes = (
{
closed = 1;
nodes = (
(227,300,l),
(228,700,l),
(173,700,l),
(172,300,l)
);
},
{
closed = 1;
nodes = (
(72,546,l),
(328,545,l),
(328,599,l),
(72,600,l)
);
},
{
closed = 1;
nodes = (
(72,401,l),
(328,400,l),
(328,454,l),
(72,455,l)
);
}
);
width = 400;
},
{
layerId = m002;
shapes = (
{
closed = 1;
nodes = (
(257,270,l),
(258,730,l),
(143,730,l),
(142,270,l)
);
},
{
closed = 1;
nodes = (
(42,536,l),
(358,535,l),
(358,649,l),
(42,650,l)
);
},
{
closed = 1;
nodes = (
(42,351,l),
(358,350,l),
(358,464,l),
(42,465,l)
);
}
);
width = 400;
}
);
unicode = 8225;
}
{
glyphname = bullet;
layers = (
{
hints = (
{
horizontal = 1;
place = (145,205);
type = Stem;
},
{
place = (98,204);
type = Stem;
}
);
layerId = m01;
shapes = (
{
closed = 1;
nodes = (
(305,150,o),
(350,195,o),
(350,250,cs),
(350,305,o),
(305,350,o),
(250,350,cs),
(195,350,o),
(150,305,o),
(150,250,cs),
(150,195,o),
(195,150,o),
(250,150,cs)
);
}
);
width = 500;
},
{
layerId = m002;
shapes = (
{
closed = 1;
nodes = (
(327,110,o),
(390,173,o),
(390,250,cs),
(390,327,o),
(327,390,o),
(250,390,cs),
(173,390,o),
(110,327,o),
(110,250,cs),
(110,173,o),
(173,110,o),
(250,110,cs)
);
}
);
width = 500;
}
);
note = bullet;
unicode = 8226;
userData = {
KernOnSpecialSpacing = {
L = NoKerning;
R = NoKerning;
};
};
}
{
glyphname = ellipsis;
kernLeft = KO_ellipsis;
kernRight = KO_ellipsis;
layers = (
{
hints = (
{
horizontal = 1;
place = (-13,97);
type = Stem;
}
);
layerId = m01;
shapes = (
{
closed = 1;
nodes = (
(85,-8,o),
(105,12,o),
(105,37,cs),
(105,62,o),
(85,82,o),
(60,82,cs),
(35,82,o),
(15,62,o),
(15,37,cs),
(15,12,o),
(35,-8,o),
(60,-8,cs)
);
},
{
closed = 1;
nodes = (
(285,-8,o),
(305,12,o),
(305,37,cs),
(305,62,o),
(285,82,o),
(260,82,cs),
(235,82,o),
(215,62,o),
(215,37,cs),
(215,12,o),
(235,-8,o),
(260,-8,cs)
);
},
{
closed = 1;
nodes = (
(485,-8,o),
(505,12,o),
(505,37,cs),
(505,62,o),
(485,82,o),
(460,82,cs),
(435,82,o),
(415,62,o),
(415,37,cs),
(415,12,o),
(435,-8,o),
(460,-8,cs)
);
}
);
width = 520;
},
{
layerId = m002;
shapes = (
{
closed = 1;
nodes = (
(170,-8,o),
(215,36,o),
(215,92,cs),
(215,147,o),
(170,192,o),
(115,192,cs),
(59,192,o),
(15,147,o),
(15,92,cs),
(15,36,o),
(59,-8,o),
(115,-8,cs)
);
},
{
closed = 1;
nodes = (
(450,-8,o),
(495,36,o),
(495,92,cs),
(495,147,o),
(450,192,o),
(395,192,cs),
(339,192,o),
(295,147,o),
(295,92,cs),
(295,36,o),
(339,-8,o),
(395,-8,cs)
);
},
{
closed = 1;
nodes = (
(730,-8,o),
(775,36,o),
(775,92,cs),
(775,147,o),
(730,192,o),
(675,192,cs),
(619,192,o),
(575,147,o),
(575,92,cs),
(575,36,o),
(619,-8,o),
(675,-8,cs)
);
}
);
width = 790;
}
);
metricLeft = "=period";
metricRight = "=|";
note = ellipsis;
unicode = 8230;
}
{
glyphname = guilsinglleft;
kernLeft = KO_guillemotleft;
kernRight = KO_guillemotleft;
layers = (
{
hints = (
{
horizontal = 1;
place = (53,22);
type = Stem;
},
{
horizontal = 1;
place = (441,-20);
target = down;
type = TopGhost;
},
{
horizontal = 1;
place = (529,77);
type = Stem;
},
{
place = (-212,76);
type = Stem;
},
{
place = (-2,77);
type = Stem;
},
{
place = (398,76);
type = Stem;
},
{
place = (413,77);
type = Stem;
}
);
layerId = m01;
shapes = (
{
closed = 1;
nodes = (
(261,99,l),
(140,250,l),
(261,401,l),
(230,430,l),
(72,250,l),
(230,70,l)
);
}
);
width = 333;
},
{
layerId = m002;
shapes = (
{
closed = 1;
nodes = (
(391,50,l),
(242,250,l),
(391,450,l),
(320,500,l),
(72,250,l),
(320,0,l)
);
}
);
width = 463;
}
);
metricRight = "=|";
note = guilsinglleft;
unicode = 8249;
userData = {
KernOnSpecialSpacing = {
L = quotes;
R = quotes;
};
};
}
{
glyphname = guilsinglright;
kernLeft = KO_guillemotright;
kernRight = KO_guillemotright;
layers = (
{
hints = (
{
horizontal = 1;
place = (53,22);
type = Stem;
},
{
horizontal = 1;
place = (441,-20);
target = down;
type = TopGhost;
},
{
horizontal = 1;
place = (529,77);
type = Stem;
},
{
place = (-368,76);
type = Stem;
},
{
place = (-158,77);
type = Stem;
},
{
place = (242,76);
type = Stem;
},
{
place = (257,77);
type = Stem;
}
);
layerId = m01;
shapes = (
{
closed = 1;
nodes = (
(261,250,l),
(103,430,l),
(72,401,l),
(193,250,l),
(72,99,l),
(103,70,l)
);
}
);
width = 333;
},
{
layerId = m002;
shapes = (
{
closed = 1;
nodes = (
(391,250,l),
(143,500,l),
(72,450,l),
(221,250,l),
(72,50,l),
(143,0,l)
);
}
);
width = 463;
}
);
metricRight = "=|";
note = guilsinglright;
unicode = 8250;
userData = {
KernOnSpecialSpacing = {
L = quotes;
R = quotes;
};
};
}
{
glyphname = fraction;
layers = (
{
layerId = m01;
shapes = (
{
closed = 1;
nodes = (
(-200,-25,l),
(-159,-55,l),
(384,693,l),
(343,722,l)
);
}
);
width = 184;
},
{
layerId = m002;
shapes = (
{
closed = 1;
nodes = (
(-182,-14,l),
(-110,-67,l),
(433,681,l),
(361,733,l)
);
}
);
width = 250;
}
);
unicode = 8260;
userData = {
KernOnSpecialSpacing = {
L = fraction;
R = fraction;
};
};
}
{
glyphname = sheqel;
layers = (
{
layerId = m01;
shapes = (
{
closed = 1;
nodes = (
(445,478,l),
(445,600,o),
(362,676,o),
(230,676,cs),
(125,676,o),
(45,667,o),
(45,667,c),
(45,0,l),
(107,0,l),
(108,612,l),
(108,612,o),
(155,616,o),
(230,616,cs),
(328,616,o),
(383,566,o),
(383,477,c)
);
},
{
closed = 1;
nodes = (
(383,125,l),
(445,125,l),
(445,478,l),
(383,477,l)
);
},
{
closed = 1;
nodes = (
(199,198,l),
(199,76,o),
(282,0,o),
(414,0,cs),
(519,0,o),
(599,9,o),
(599,9,c),
(599,676,l),
(537,676,l),
(536,64,l),
(536,64,o),
(489,60,o),
(414,60,cs),
(316,60,o),
(261,110,o),
(261,199,c)
);
},
{
closed = 1;
nodes = (
(261,551,l),
(199,551,l),
(199,198,l),
(261,199,l)
);
}
);
width = 644;
},
{
layerId = m002;
shapes = (
{
closed = 1;
nodes = (
(515,463,l),
(515,612,o),
(440,677,o),
(270,677,cs),
(125,677,o),
(15,667,o),
(15,667,c),
(15,0,l),
(147,0,l),
(148,553,l),
(148,553,o),
(185,556,o),
(250,556,cs),
(355,556,o),
(383,520,o),
(383,462,c)
);
},
{
closed = 1;
nodes = (
(383,185,l),
(515,185,l),
(515,463,l),
(383,462,l)
);
},
{
closed = 1;
nodes = (
(198,214,l),
(198,65,o),
(273,0,o),
(443,0,cs),
(588,0,o),
(698,10,o),
(698,10,c),
(698,677,l),
(566,677,l),
(565,124,l),
(565,124,o),
(528,121,o),
(463,121,cs),
(358,121,o),
(330,157,o),
(330,215,c)
);
},
{
closed = 1;
nodes = (
(330,492,l),
(198,492,l),
(198,214,l),
(330,215,l)
);
}
);
width = 713;
}
);
metricLeft = "=P";
metricRight = "=|";
unicode = 8362;
userData = {
KernOnSpecialSpacing = {
L = symbols;
R = symbols;
};
};
}
{
glyphname = euro;
layers = (
{
layerId = m01;
shapes = (
{
pos = (55,0);
ref = C;
},
{
closed = 1;
nodes = (
(0,363,l),
(438,363,l),
(465,423,l),
(27,423,l)
);
},
{
closed = 1;
nodes = (
(0,243,l),
(385,243,l),
(412,303,l),
(27,303,l)
);
}
);
width = 583;
},
{
layerId = m002;
shapes = (
{
pos = (85,0);
ref = C;
},
{
closed = 1;
nodes = (
(0,353,l),
(568,353,l),
(592,453,l),
(24,453,l)
);
},
{
closed = 1;
nodes = (
(0,213,l),
(535,213,l),
(559,313,l),
(24,313,l)
);
}
);
width = 638;
}
);
unicode = 8364;
userData = {
KernOnSpecialSpacing = {
L = symbols;
R = symbols;
};
};
}
{
glyphname = hryvnia;
layers = (
{
layerId = m01;
shapes = (
{
closed = 1;
nodes = (
(439,387,l),
(463,416,o),
(476,454,o),
(476,500,c),
(476,618,o),
(376,676,o),
(306,676,c),
(306,616,l),
(369,616,o),
(413,565,o),
(413,500,c),
(413,449,o),
(389,414,o),
(346,396,c)
);
},
{
closed = 1;
nodes = (
(306,676,l),
(241,676,o),
(184,656,o),
(134,630,c),
(163,578,l),
(209,598,o),
(255,616,o),
(306,616,c)
);
},
{
closed = 1;
nodes = (
(306,-10,l),
(371,-10,o),
(428,10,o),
(478,36,c),
(449,88,l),
(403,68,o),
(357,50,o),
(306,50,c)
);
},
{
closed = 1;
nodes = (
(90,274,l),
(78,251,o),
(72,225,o),
(72,194,cs),
(72,77,o),
(146,-10,o),
(306,-10,c),
(306,50,l),
(204,50,o),
(144,106,o),
(144,194,cs),
(144,226,o),
(156,250,o),
(176,269,c)
);
},
{
closed = 1;
nodes = (
(25,363,l),
(525,363,l),
(525,423,l),
(25,423,l)
);
},
{
closed = 1;
nodes = (
(25,243,l),
(525,243,l),
(525,303,l),
(25,303,l)
);
}
);
width = 550;
},
{
layerId = m002;
shapes = (
{
closed = 1;
nodes = (
(539,377,l),
(557,406,o),
(566,441,o),
(566,480,cs),
(566,598,o),
(466,676,o),
(356,676,c),
(316,556,l),
(364,556,o),
(393,531,o),
(393,500,cs),
(393,475,o),
(386,448,o),
(348,433,c)
);
},
{
closed = 1;
nodes = (
(356,676,l),
(264,676,o),
(194,651,o),
(144,630,c),
(173,518,l),
(236,545,o),
(267,556,o),
(316,556,c)
);
},
{
closed = 1;
nodes = (
(356,-10,l),
(448,-10,o),
(518,17,o),
(568,38,c),
(539,160,l),
(476,133,o),
(425,120,o),
(356,120,c)
);
},
{
closed = 1;
nodes = (
(86,258,l),
(83,244,o),
(82,229,o),
(82,214,cs),
(82,97,o),
(156,-10,o),
(356,-10,c),
(356,120,l),
(310,120,o),
(274,137,o),
(274,194,cs),
(274,215,o),
(280,230,o),
(294,242,c)
);
},
{
closed = 1;
nodes = (
(25,348,l),
(625,348,l),
(625,448,l),
(25,448,l)
);
},
{
closed = 1;
nodes = (
(25,218,l),
(625,218,l),
(625,318,l),
(25,318,l)
);
}
);
width = 650;
}
);
unicode = 8372;
userData = {
KernOnSpecialSpacing = {
L = symbols;
R = symbols;
};
};
}
{
glyphname = rupeeIndian;
layers = (
{
layerId = m01;
shapes = (
{
closed = 1;
nodes = (
(372,0,l),
(215,290,l),
(310,313,o),
(372,384,o),
(372,478,cs),
(372,595,o),
(245,676,o),
(147,676,c),
(147,616,l),
(245,616,o),
(300,566,o),
(300,477,cs),
(300,390,o),
(245,342,o),
(147,342,cs),
(122,342,l),
(299,0,l)
);
},
{
closed = 1;
nodes = (
(442,447,l),
(469,507,l),
(52,507,l),
(25,447,l)
);
},
{
closed = 1;
nodes = (
(442,616,l),
(469,676,l),
(52,676,l),
(25,616,l)
);
}
);
width = 494;
},
{
layerId = m002;
shapes = (
{
closed = 1;
nodes = (
(519,0,l),
(372,273,l),
(458,304,o),
(504,371,o),
(504,463,cs),
(504,595,o),
(284,677,o),
(239,677,c),
(239,577,l),
(284,577,o),
(312,520,o),
(312,462,cs),
(312,407,o),
(284,372,o),
(239,372,cs),
(136,372,l),
(328,0,l)
);
},
{
closed = 1;
nodes = (
(575,425,l),
(599,525,l),
(39,525,l),
(15,425,l)
);
},
{
closed = 1;
nodes = (
(575,577,l),
(599,677,l),
(39,677,l),
(15,577,l)
);
}
);
width = 614;
}
);
unicode = 8377;
userData = {
KernOnSpecialSpacing = {
L = symbols;
R = symbols;
};
};
}
{
glyphname = ruble;
layers = (
{
layerId = m01;
shapes = (
{
closed = 1;
nodes = (
(15,282,l),
(300,282,l),
(300,342,l),
(15,342,l)
);
},
{
closed = 1;
nodes = (
(15,162,l),
(377,162,l),
(377,222,l),
(15,222,l)
);
},
{
closed = 1;
nodes = (
(398,616,o),
(453,566,o),
(453,477,cs),
(453,390,o),
(398,342,o),
(300,342,cs),
(225,342,o),
(178,335,o),
(178,335,c),
(178,612,l),
(178,612,o),
(225,616,o),
(300,616,cs)
);
},
{
closed = 1;
nodes = (
(115,0,l),
(177,0,l),
(177,285,l),
(177,285,o),
(224,282,o),
(299,282,cs),
(432,282,o),
(525,363,o),
(525,478,cs),
(525,595,o),
(432,676,o),
(300,676,cs),
(195,676,o),
(115,667,o),
(115,667,c)
);
}
);
width = 549;
},
{
layerId = m002;
shapes = (
{
closed = 1;
nodes = (
(5,252,l),
(329,252,l),
(329,352,l),
(5,352,l)
);
},
{
closed = 1;
nodes = (
(5,112,l),
(499,112,l),
(499,212,l),
(5,212,l)
);
},
{
closed = 1;
nodes = (
(375,556,o),
(403,520,o),
(403,462,cs),
(403,387,o),
(375,352,o),
(330,352,cs),
(305,352,o),
(288,332,o),
(288,332,c),
(288,553,l),
(288,553,o),
(305,556,o),
(330,556,cs)
);
},
{
closed = 1;
nodes = (
(105,0,l),
(287,0,l),
(287,255,l),
(287,255,o),
(304,252,o),
(329,252,cs),
(502,252,o),
(595,331,o),
(595,463,cs),
(595,595,o),
(502,677,o),
(330,677,cs),
(225,677,o),
(105,667,o),
(105,667,c)
);
}
);
width = 610;
}
);
metricRight = "=P";
unicode = 8381;
userData = {
KernOnSpecialSpacing = {
L = symbols;
R = symbols;
};
};
}
{
glyphname = leftArrow;
layers = (
{
layerId = m01;
shapes = (
{
closed = 1;
nodes = (
(343,395,l),
(312,427,l),
(134,250,l),
(166,218,l)
);
},
{
closed = 1;
nodes = (
(343,105,l),
(167,282,l),
(134,250,l),
(311,73,l)
);
},
{
closed = 1;
nodes = (
(665,225,l),
(665,274,l),
(165,275,l),
(165,225,l)
);
}
);
width = 800;
},
{
layerId = m002;
shapes = (
{
closed = 1;
nodes = (
(387,385,l),
(303,469,l),
(84,250,l),
(168,166,l)
);
},
{
closed = 1;
nodes = (
(387,115,l),
(168,334,l),
(84,250,l),
(303,31,l)
);
},
{
closed = 1;
nodes = (
(717,190,l),
(717,310,l),
(157,310,l),
(157,190,l)
);
}
);
width = 800;
}
);
unicode = 8592;
userData = {
KernOnSpecialSpacing = {
L = NoKerning;
R = NoKerning;
};
};
}
{
glyphname = upArrow;
layers = (
{
layerId = m01;
shapes = (
{
closed = 1;
nodes = (
(255,306,l),
(432,483,l),
(400,515,l),
(223,338,l)
);
},
{
closed = 1;
nodes = (
(425,-16,l),
(425,484,l),
(375,484,l),
(375,-16,l)
);
},
{
closed = 1;
nodes = (
(577,338,l),
(400,515,l),
(368,483,l),
(545,306,l)
);
}
);
width = 800;
},
{
layerId = m002;
shapes = (
{
closed = 1;
nodes = (
(265,254,l),
(484,473,l),
(400,557,l),
(181,338,l)
);
},
{
closed = 1;
nodes = (
(460,-46,l),
(460,484,l),
(340,484,l),
(340,-46,l)
);
},
{
closed = 1;
nodes = (
(619,338,l),
(400,557,l),
(316,473,l),
(535,254,l)
);
}
);
width = 800;
}
);
unicode = 8593;
userData = {
KernOnSpecialSpacing = {
L = NoKerning;
R = NoKerning;
};
};
}
{
glyphname = rightArrow;
layers = (
{
layerId = m01;
shapes = (
{
closed = 1;
nodes = (
(134,225,l),
(634,225,l),
(634,275,l),
(134,275,l)
);
},
{
closed = 1;
nodes = (
(456,395,l),
(633,218,l),
(665,250,l),
(488,427,l)
);
},
{
closed = 1;
nodes = (
(488,73,l),
(665,250,l),
(633,282,l),
(456,105,l)
);
}
);
width = 800;
},
{
layerId = m002;
shapes = (
{
closed = 1;
nodes = (
(83,190,l),
(643,190,l),
(643,310,l),
(83,310,l)
);
},
{
closed = 1;
nodes = (
(413,385,l),
(632,166,l),
(716,250,l),
(497,469,l)
);
},
{
closed = 1;
nodes = (
(497,31,l),
(716,250,l),
(632,334,l),
(413,115,l)
);
}
);
width = 800;
}
);
unicode = 8594;
userData = {
KernOnSpecialSpacing = {
L = NoKerning;
R = NoKerning;
};
};
}
{
glyphname = downArrow;
layers = (
{
layerId = m01;
shapes = (
{
closed = 1;
nodes = (
(577,161,l),
(545,193,l),
(368,16,l),
(400,-16,l)
);
},
{
closed = 1;
nodes = (
(432,16,l),
(255,193,l),
(223,161,l),
(400,-16,l)
);
},
{
closed = 1;
nodes = (
(425,15,l),
(425,515,l),
(375,515,l),
(375,15,l)
);
}
);
width = 800;
},
{
layerId = m002;
shapes = (
{
closed = 1;
nodes = (
(619,153,l),
(535,237,l),
(316,18,l),
(400,-66,l)
);
},
{
closed = 1;
nodes = (
(484,18,l),
(265,237,l),
(181,153,l),
(400,-66,l)
);
},
{
closed = 1;
nodes = (
(460,7,l),
(460,567,l),
(340,567,l),
(340,7,l)
);
}
);
width = 800;
}
);
unicode = 8595;
userData = {
KernOnSpecialSpacing = {
L = NoKerning;
R = NoKerning;
};
};
}
{
glyphname = leftRightArrow;
layers = (
{
layerId = m01;
shapes = (
{
closed = 1;
nodes = (
(329,105,l),
(152,282,l),
(120,250,l),
(297,73,l)
);
},
{
closed = 1;
nodes = (
(651,275,l),
(151,275,l),
(151,225,l),
(651,225,l)
);
},
{
closed = 1;
nodes = (
(297,427,l),
(120,250,l),
(152,218,l),
(329,395,l)
);
},
{
closed = 1;
nodes = (
(681,250,l),
(649,282,l),
(472,105,l),
(504,73,l)
);
},
{
closed = 1;
nodes = (
(649,218,l),
(681,250,l),
(504,427,l),
(472,395,l)
);
}
);
width = 800;
},
{
layerId = m002;
shapes = (
{
closed = 1;
nodes = (
(351,115,l),
(132,334,l),
(48,250,l),
(267,31,l)
);
},
{
closed = 1;
nodes = (
(681,310,l),
(121,310,l),
(121,190,l),
(681,190,l)
);
},
{
closed = 1;
nodes = (
(267,469,l),
(48,250,l),
(132,166,l),
(351,385,l)
);
},
{
closed = 1;
nodes = (
(753,250,l),
(669,334,l),
(450,115,l),
(534,31,l)
);
},
{
closed = 1;
nodes = (
(669,166,l),
(753,250,l),
(534,469,l),
(450,385,l)
);
}
);
width = 800;
}
);
unicode = 8596;
}
{
glyphname = upDownArrow;
layers = (
{
layerId = m01;
shapes = (
{
closed = 1;
nodes = (
(577,354,l),
(400,531,l),
(368,499,l),
(545,322,l)
);
},
{
closed = 1;
nodes = (
(432,2,l),
(255,179,l),
(223,147,l),
(400,-30,l)
);
},
{
closed = 1;
nodes = (
(577,147,l),
(545,179,l),
(368,2,l),
(400,-30,l)
);
},
{
closed = 1;
nodes = (
(425,1,l),
(425,501,l),
(375,501,l),
(375,1,l)
);
},
{
closed = 1;
nodes = (
(432,499,l),
(400,531,l),
(223,354,l),
(255,322,l)
);
}
);
width = 800;
},
{
layerId = m002;
shapes = (
{
closed = 1;
nodes = (
(619,383,l),
(400,602,l),
(316,518,l),
(535,299,l)
);
},
{
closed = 1;
nodes = (
(484,-19,l),
(265,200,l),
(181,116,l),
(400,-103,l)
);
},
{
closed = 1;
nodes = (
(619,116,l),
(535,200,l),
(316,-19,l),
(400,-103,l)
);
},
{
closed = 1;
nodes = (
(460,-30,l),
(460,530,l),
(340,530,l),
(340,-30,l)
);
},
{
closed = 1;
nodes = (
(484,518,l),
(400,602,l),
(181,383,l),
(265,299,l)
);
}
);
width = 800;
}
);
unicode = 8597;
}
{
glyphname = northWestArrow;
layers = (
{
layerId = m01;
shapes = (
{
closed = 1;
nodes = (
(596,88,l),
(243,442,l),
(208,407,l),
(562,53,l)
);
},
{
closed = 1;
nodes = (
(249,196,l),
(250,446,l),
(204,446,l),
(204,196,l)
);
},
{
closed = 1;
nodes = (
(454,401,l),
(455,446,l),
(204,446,l),
(204,401,l)
);
}
);
width = 800;
},
{
layerId = m002;
shapes = (
{
closed = 1;
nodes = (
(645,90,l),
(249,486,l),
(164,401,l),
(560,5,l)
);
},
{
closed = 1;
nodes = (
(273,185,l),
(273,495,l),
(155,495,l),
(155,185,l)
);
},
{
closed = 1;
nodes = (
(464,376,l),
(464,495,l),
(155,495,l),
(155,376,l)
);
}
);
width = 800;
}
);
unicode = 8598;
userData = {
KernOnSpecialSpacing = {
L = NoKerning;
R = NoKerning;
};
};
}
